<?xml version="1.0" encoding="UTF-8"?><svg id="b" xmlns="http://www.w3.org/2000/svg" width="343.69" height="172.81" viewBox="0 0 343.69 172.81"><g id="c"><path d="M288.52,112.69c0-1.48-.86-2.81-2.45-2.81h-.43v5.51h.32c1.58,0,2.56-1.15,2.56-2.7Z" fill="#bd3528"/><path d="M207.36,51.57h-1.6v11.71c.45.06.96.06,1.41.06,3.65,0,5.44-2.5,5.44-5.95s-1.54-5.82-5.25-5.82Z" fill="#bd3528"/><path d="M56.21,110.03v5.72h.43c1.66,0,2.59-1.51,2.59-3.02,0-1.94-1.19-2.7-3.02-2.7Z" fill="#bd3528"/><path d="M0,0v172.81h343.69V0H0ZM336.69,165.81H7v-68.33h4v64.33h321.69v-64.33h4v68.33ZM7.88,86.96v-8.45c1.15,1.41,2.56,2.37,4.48,2.37,3.65,0,3.58-3.71,3.58-6.4v-29.57h8.45v30.01c0,2.3-.13,4.74-.9,6.98-1.41,4.1-5.12,6.4-9.34,6.4-2.18,0-4.35-.32-6.27-1.34ZM46.02,80.62c4.29,0,4.16-3.78,4.16-6.98v-28.73h8.45v31.81c0,2.43-.13,4.35-1.41,6.53-2.3,3.9-7.1,5.06-11.33,5.06-6.98,0-12.54-3.39-12.54-10.94v-32.45h8.45v28.35c0,3.2-.13,7.36,4.22,7.36ZM66.8,128.64h-7.02l-3.67-9.97.11,9.97h-6.48v-24.01h6.62c1.66,0,3.46.18,5,.83,2.88,1.22,4.32,4.18,4.32,7.2,0,2.81-1.12,4.82-3.71,6.01l4.82,9.97ZM84.87,79.6v8h-17.28v-42.69h8.45v34.69h8.83ZM84.33,113.77v5.44h-4.97v3.67h5.54v5.76h-12.02v-24.01h12.02v5.65h-5.54v3.49h4.97ZM95.92,104.63h7.92l5.08,24.01h-6.7l-.5-3.06h-4.36l-.54,3.06h-6.69l5.79-24.01ZM90.95,87.6v-42.69h8.45v42.69h-8.45ZM124.29,62.07v8.06h-7.49v9.6h8.64v7.87h-17.09v-42.69h16.96v7.94h-8.51v9.22h7.49ZM126.09,122.88v5.76h-11.34v-24.01h6.48v18.25h4.86ZM129.65,110.39v-5.76h13.61v5.76h-3.56v18.25h-6.48v-18.25h-3.56ZM222.15,87.6h-8.9l-7.49-19.65v19.65h-8.45v-42.69h9.15c3.14,0,6.59.26,9.28,2.05,3.39,2.24,5.06,6.4,5.06,10.37,0,4.86-1.92,8.32-6.08,10.88l7.42,19.39ZM225.48,128.64h-7.02l-3.67-9.97.11,9.97h-6.48v-24.01h6.62c1.66,0,3.46.18,5,.83,2.88,1.22,4.32,4.18,4.32,7.2,0,2.81-1.12,4.82-3.71,6.01l4.82,9.97ZM201.18,110.14l-6.3,2.3c-.11-1.04-.65-2.45-1.91-2.45-2.66,0-2.66,5.51-2.66,7.34,0,1.69-.04,5.94,2.45,5.94,1.8,0,2.27-2.02,2.27-3.46h-2.38v-5.04h9.03v.97c0,2.99-.18,6.48-1.58,9.18-1.44,2.74-4.14,4.14-7.16,4.14-6.95,0-9.25-6.37-9.25-12.31s2.27-12.56,9.25-12.56c4.03,0,6.7,2.38,8.24,5.94ZM182.66,87.6h-7.36l-5.63-25.41-6.21,25.41h-7.36l-8.64-42.69h8.64l4.54,25.41,5.57-25.41h6.66l5.57,25.63,4.22-25.63h8.83l-8.83,42.69ZM148.3,104.63h6.77l2.27,7.42,2.27-7.42h6.69l-5.54,13.86v10.15h-6.48v-10.15l-5.98-13.86ZM261.63,80.62c4.61,0,5.12-5.76,5.18-9.22h-5.38v-7.55h13.7c.06,1.09.06,2.18.06,3.26,0,3.01-.13,6.08-.77,9.02-1.41,6.59-5.7,12.16-12.93,12.16-11.52,0-15.17-12.42-15.17-21.89s3.2-22.14,15.17-22.14c6.53,0,10.75,4.1,12.54,10.11l-8.19,3.2c-.38-2.5-1.09-5.89-4.29-5.89-5.76,0-6.21,10.56-6.21,14.59s.19,14.33,6.27,14.33ZM263.71,122.99c1.66,0,1.66-1.62,1.66-2.84v-15.51h6.48v16.99c0,2.41-.54,4-2.41,5.58-1.55,1.33-3.42,1.87-5.44,1.87-2.2,0-4.43-.61-6.08-2.09-1.87-1.66-2.34-3.85-2.34-6.26v-16.09h6.48v15.51c0,1.22.04,2.84,1.66,2.84ZM248.85,116.4c0,5.62-2.27,12.67-9,12.67-2.56,0-4.93-1.26-6.55-3.2-2.09-2.52-2.7-6.3-2.7-9.47,0-5.65,2.63-12.2,9.21-12.2s9.03,6.62,9.03,12.2ZM238.34,87.6h-8.45v-42.69h8.45v42.69ZM300.1,60.72v-15.81h8.45v42.69h-8.45v-18.88h-8.51v18.88h-8.45v-42.69h8.45v15.81h8.51ZM285.42,104.63c1.8,0,3.67.18,5.33.9,2.92,1.3,4.32,4.18,4.32,7.27,0,5.83-3.92,8.46-9.43,7.96v7.88h-6.48v-24.01h6.26ZM314.18,52.72v-7.81h21.63v7.81h-6.59v34.88h-8.45v-34.88h-6.59ZM336.69,36.45h-4V11H11v25.45h-4V7h329.69v29.45Z" fill="#bd3528"/><path d="M239.78,110.25c-2.23,0-2.45,4.82-2.45,6.37s.14,6.37,2.38,6.37,2.41-4.79,2.41-6.33-.11-6.41-2.34-6.41Z" fill="#bd3528"/><polygon points="99.74 110.39 98.22 120.47 100.96 120.47 99.74 110.39" fill="#bd3528"/><path d="M214.9,110.03v5.72h.43c1.66,0,2.59-1.51,2.59-3.02,0-1.94-1.19-2.7-3.02-2.7Z" fill="#bd3528"/></g></svg>