<?xml version="1.0" encoding="UTF-8"?><svg id="a" xmlns="http://www.w3.org/2000/svg" width="689.11" height="548.13" viewBox="0 0 689.11 548.13"><path d="M21.69,125.09c17.83,6.34,28.79-8.42,45.2-10.79,8.26-.85,16.3,1.84,24.52,1.25,9.61-1.56,19.45-4.12,29.05-1.31,13.01,4.73,27.17,10.88,41.36,8.72,16.54-2.53,37.83,3.46,49.6-9.49,4.41-5.4,6.67-12.57,15.17-11.68,21.72,3.98,44.94-1.65,66.09-8.54,14.28-6.65,45.32-25.07,45.33,3.69.5,6.42-3.27,14.64,2.23,19.89,9.05,7.1,22.38,7.45,33.26,4.18,14.37-4.08,23.61,6.71,36.48,6.27,11.6-1.51,23.97-.53,35.55-.32,18.12,1.8.91,18.58-6.71,23.16-4.05,2.3-7.77,2.8-12.27,4.25-10.68,4.16-24.92,2.47-22.99,17.03-1.7,18.39-24.82,8.2-36.7,9.5-21.52,3.18-43.76,3.75-65.18,7.88-18.52,1.71-31.94,15.5-48.64,22.05-10.94,5.49-23.73,8.18-34.35,12.54-8.98,4.26-17.75,9.53-26.35,14.39-8.46,4.89-17.67,10.32-21.41,19.79-6.51,17.33-3.77,34.65-2.34,52.8.59,14.48,9.45,27.52,19.86,37.33,9.04,6.92,20.72,12.32,30.12,18.09,6.26,3.93,16.96,5.69,23.31,8.25,5.7,2.72,12.7,6.53,17.62,10.32,6.24,5.04,13.25,12.73,19.91,17.6,10.68,6.11,21.66,12.52,32.39,19.51,6.96,4.38,15.58,6.88,21.94,12.63,10.19,10.48-9.13,9.75-15.66,8.11-11.07-2.79-24.64-1.37-35.29-3.97-8.36-3.19-16.27-9.06-25.58-8.95-26.2,2.62-51.25,17.49-76.75,7.47-19.89-9.36-38.99-28.93-62.53-24.05-6.83,1.22-13.05-.63-19.42-2.91-24.87-7.53-52.64-11.27-76.84.58" vector-effect="none" fill="none" stroke="#000" stroke-miterlimit="10"/><path d="M655.69,537.38c-7.72-10.6-12.82-23.21-20.53-33.92-3.81-8.35-16.49-15.47-16.07-25.04,8.08-10.52,24.85,4.77,48.31-19.74" vector-effect="none" fill="none" stroke="#000" stroke-miterlimit="10"/><path d="M21.69,110.69c17.66,9,28.19-12.99,44.74-15.03,12.98-.18,26.29.99,39.23-1.88,22.93-3.87,37.04,21.7,60.03,18.22,11.02-1.74,25.55-.41,33.37-9.41,3.43-4.38,4.51-12.5,10.53-14.71,7.46-2.44,16.47,2.34,24.07,2.7,18.8.69,28.4-11.51,48.8-8.09,19.31-.37,32.01-22.61,51.83-18.46,10.54,3.28,22.37,5.03,33.49,4.72,14.9,3.56-.11,22.65-4.14,29.95-10.68,11.78,1.93,11.36,10.55,8.74,17.93-12.81,38.75-16.63,60.49-11.46,12.25,2.34,23.71,10.07,36.48,6.96,7.87-.39,5.62,8.58,4.74,13.71-1.14,8.54-3.26,13.69-10.05,19.06-8.12,6.21-14.54,14.44-20.17,22.78-5.6,8.65-16,13.5-15.58,25.28.67,23.67-38.77,8.19-52.37,7.43-13.26-3.59-27.69.59-40.91.66-13.83.76-29.81-.29-43.27,4.31-14.81,4.86-30.74,16.19-43.73,23-12.79,7.58-30.28,10.3-42.35,20.34-14.9,10.24-26.35,13.62-25.34,33.96,2.49,19.46-.33,42.11,8.57,60.51,8.06,13.34,23.16,20.77,36.18,28.12,11.77,3.94,22.71,9.07,33.77,15.11,16.51,11.7,12.81,18.51,37.46,27.18,14.89,8.21,31.22,17.4,46.3,25.03,11.83,4.69,26.22,25.28,3.34,24.22-10.5-.25-21.24-.73-31.5-3.13-17.17-5.67-32.16,1.23-47.09-10.6-25.25-12.12-52.55,12.78-79.2,6.25-13.84,0-23.44-10.23-34.67-16.54-15.97-7.56-25.55-7.76-42.56-4.05-10.9,1.05-21.94-1.86-32.89-1.62-10.59-1.76-21.11-4.34-31.54-.49-8.45,3.26-17.33,9.33-26.62,11.48" vector-effect="none" fill="none" stroke="#000" stroke-miterlimit="10"/><path d="M21.69,532.18c9.13,1.34,20.71,1.28,30.25,5.19" vector-effect="none" fill="none" stroke="#000" stroke-miterlimit="10"/><path d="M643.97,537.38c-5.35-15.29-12.59-31.35-24.07-42.61-3.28-3.28-7.39-7.5-10.51-10.57-7.11-5.91-25.11-18.75-5.31-21.33,15.66-5.1,36.19,6.9,48.68-7.29,4.38-4.85,8.73-9.6,14.65-12.74" vector-effect="none" fill="none" stroke="#000" stroke-miterlimit="10"/><path d="M47.99,10.61c-3.22,13.21-6.86,43.31-26.3,38" vector-effect="none" fill="none" stroke="#000" stroke-miterlimit="10"/><path d="M21.69,88.53c11.58,2.99,14.44,1.42,24.38-3.79,6.4-3.62,11.36-4.19,18.35-5.93,10.85-3.37,22.13,1.46,33.16-.74,19.01-4.39,31.66,1.96,47.41,11.49,11.86,8.62,26.33,6.75,39.01,1.29,6.37-3.46,9.5-11.15,14.45-16.26,14.93-13.79,30.13,16.33,56.11-4.37,15.71-15.32,25.74-.32,42.71-7.9,11.72-5.01,20.11-16.74,34.21-14.57,9.29,1.53,18.2,8.75,27.95,6.38,10.83-1.95,31.58-16.03,37.1.06,1.17,6.64-1.32,15.72,3.69,21.38,7.86,7.21,33.04-1.65,43.61-2.1,23.11.6,52.98,6.3,43.49,36.89-1.96,9.41-5.05,19.59-12.76,25.78-17.17,15.2-14.38,12.7-23.73,32.93-4.46,8.26-5.8,17.74-4.15,27.06,8.82,25.85-17.81,14.54-32.01,11.16-13.96-3.48-29.07-6.51-43.6-9.49-8.45-1.75-18.13.68-26.12,1.13-40.13-2.23-60.62,3.98-91.68,28.16-26.18,17.01-61.8,18.55-57.06,58.8,1.65,17.14.56,36.54,11.98,50.42,17.79,18.13,44.58,25.59,64.02,40.37,9.94,15.51,21.74,15.8,36.61,23.33,14.88,8.52,29,15.65,45.13,20.23,12.62,2.47,17.06,12.62,20.95,23.88,1.55,4.22,3.63,7.77,3.5,12.29-1.33,9.25-12.8,7.94-20.25,7.11-9.32-1.17-18.63.39-27.72-.4-7.01-.74-15.96-4.35-22.62-6.04-8.25-2.87-18.01-.67-26.26-2.6-7.52-1.73-13.49-7.94-20.73-10.06-26.47-5.84-50.22,16.32-77.14,8.35-38.32-5.62-14.17-29.19-76.02-10.74-13.99,4.19-29.38,1.47-43.61,2.54-13.54,5.12-28.48,7.46-42.32,10.06" vector-effect="none" fill="none" stroke="#000" stroke-miterlimit="10"/><path d="M21.69,516.72c9.17,5.05,19.38,1.13,29.24,2.24,20.43-.33,39.69,7.15,56.56,18.41" vector-effect="none" fill="none" stroke="#000" stroke-miterlimit="10"/><path d="M633.44,537.38c-6.94-40.81-30.77-43.77-56.52-67.79-19.45-23.12,53.74-17.38,64.24-25.1,8.92-5.56,17.2-12.68,26.25-18.12" vector-effect="none" fill="none" stroke="#000" stroke-miterlimit="10"/><path d="M68.62,10.61c2.11,13.39-.19,33.05,13,41.43,14.15,9.95,31.36,5.67,47.12,7.96,16.18,5.19,33.56,20.18,51.17,11.87,9.71-6.81,14.75-23.34,29.53-18.46,11.13,3.01,22.37,14.58,34.27,8.05,9.68-6.03,19.08-15.12,31.36-13.95,6.49.6,13.83,2.83,20.07,1.52,10.06-3.21,19.77-10.3,29.34-14.79,17.99-7.78,30.72,16.14,48.5.07,11.64-8.72,25.27-20.21,36.93-4.56,11.42,11.53,4.19,25.03,13.11,29.34,10.17,2.76,19.72-1.74,30.38-2.98,9.4-2.2,17.45-1.64,23.03,7.24,6.42,10.98,16.4,20.1,18.79,32.16,3.13,12.54-3.38,33.49-12.69,42.62-10.66,10.43-13.95,9.04-19.41,24.7-7.79,24.25-6.8,28.95,4.22,50.7,1.49,21.95-34.93,5.45-46.55,2.79-13.28-4.05-28.12-6.29-42.14-9.33-14.15-4.47-28.54,1.15-42.89,1.12-7.56-.14-15.54-1.27-23.27-.77-35.19,4.13-54.88,35.89-86.08,48.83-10.1,4.14-16.35,12.58-16.61,23.75-1.58,13.32-.6,27.77,5.83,39.64,14.25,22.55,38.99,33.96,60.41,48.32,7.78,9.05,17.93,13.88,28.48,18.7,11.17,5.31,23.42,13.16,35.66,17.15,8.36,3.22,17.89,3.43,26.09,6.56,15.88,7.81,19.64,27.57,24.82,42.79,5.26,12.85-9.57,19.7-20.26,18.85-11.19-.3-21.87-.37-32.84,1-13.97,1.68-25.48-7.28-39.08-9.27-14.28-.88-21.17-1.04-33.69-9.14-21.14-13.07-42.22,7.38-64.2,7.88-10.46-.86-22.45-1.17-32.88-2.21-14.04-3.81-17.26-15.97-35.21-9.61-10.57,2.99-21.52,7.67-31.47,11.67-14.08,4.7-29.16,3.99-43.04,9.37-6.24,2.76-15.74,7.41-16.23,15.52,1.67,9,21.34,8.13,28.3,12.33,5.96,2.53,15.26,5.25,20.77,8.61,12.34,10.09,26.93,20.42,39.82,29.3" vector-effect="none" fill="none" stroke="#000" stroke-miterlimit="10"/><path d="M622.3,537.38c-.48-12.4-5.44-25.91-15.65-33.19-12.7-9.09-25-18.98-36.08-29.05-35.45-27.62,20.6-33.19,39.34-37.44,21.42-2.62,36.59-21.66,57.5-26.46" vector-effect="none" fill="none" stroke="#000" stroke-miterlimit="10"/><path d="M92.36,10.61c1.64,25.41,12.51,27.72,35.49,30.52,11.58,1.51,22.79,7.83,33.66,11.7,29.72,4.16,23.56-33.55,64.94-11.84,16.01,7.64,30.79-7.91,47.2-5.66,27.89,5.32,29.66-3.22,51.75-14.85,26.73-10.22,25.38,18.28,57.14-9.88" vector-effect="none" fill="none" stroke="#000" stroke-miterlimit="10"/><path d="M412.65,10.61c22.97,5.64,8.83,37.22,38.81,33.15,17.37-3.15,28.1,8.03,35.91,22.37,5.89,14.72,18.87,28.45,14.29,45.36-2.26,15.95-11.74,28.72-22.5,39.89-6.31,8.85-12.32,26.01-10.53,36.83,1.89,10.16,10.32,18.57,15.46,27.22,18.08,23.08-6.01,33.31-25.85,22.28-28.6-13.12-61.05-23.01-92.74-22.36-8.18,1.55-17.35,5.18-25.4,5.28-23.12-2.14-45.1-1.31-63.91,15.01-11.79,12.89-24.73,22.6-39.87,31.67-15.02,7.56-18.77,30.7-7.99,43.34,5.54,7.42,11.86,12.57,18.65,18.33,14.46,16.34,19.48,19.63,38.68,29.43,21.97,19.07,46.56,35.14,76.02,38.82,23.89,2.91,35.35,34.84,40.39,55.27,3.56,11.83,1.18,20.57-11.86,23.35-6.72,2.47-12.41,3.47-19.52,3.61-18.11-.75-33.01,7.8-51.17.61-12.87-6.16-26.54-9.05-40.63-11.04-12.53-2.18-23.9-12.25-37.15-7.86-15.75,3.55-30.1,12.96-46.64,10-10.23-1.74-20.49,2.05-30.67,1.75-12.53-2.76-25.35-5.91-36.2,3.42-17.54,7.83-10.65,28.86.5,39.04,7.85,6.85,18.26,11.99,21.96,22" vector-effect="none" fill="none" stroke="#000" stroke-miterlimit="10"/><path d="M608.54,537.38c1.22-13.67-10.49-22.41-18.4-31.95-7.16-7.6-15-15.88-23.11-22.45-17.5-10.95-35.83-25.69-12.85-43.11,15.31-8.68,33.12-8.24,49.55-14.64,11.32-3.95,19.88-12.99,30.89-17.45,10.71-3.64,22.24-4.38,32.78-8.03" vector-effect="none" fill="none" stroke="#000" stroke-miterlimit="10"/><path d="M120.48,10.61c7.48,7.25,18.69,10.12,28.17,14.25,27.72,12.13,41.21-14.38,67.96-5.08,23.71,8.85,28.03,4.07,50.75,3.27,26.2.12,31.42,2.5,53.17-12.44" vector-effect="none" fill="none" stroke="#000" stroke-miterlimit="10"/><path d="M454.03,10.61c-1,8.58-.38,17.61,10.13,18.81,6.49,1.15,13.85,3.15,20.11,3.8,16.36-2.08,29.79-14.33,43.62-22.6" vector-effect="none" fill="none" stroke="#000" stroke-miterlimit="10"/><path d="M555.46,10.61c-3.51,8.84-2.13,19.39-.98,28.25.34,7.26-1.8,17.92-1.86,24.72,1.46,15.95.84,26.64-14.58,34.64-10.58,6.77-24.81,9.4-29.7,22.01-3.76,7.43-6.37,15.34-10.75,22.16-10.08,14.61-25.11,36.91-10.69,53.34,5.89,6.89,10.96,13,18.17,18.92,10.19,6.86,14.45,16.45,12.16,28.56-7.12,20.91-36.37,21.02-52.85,11.71-9.66-5.59-19.13-12.55-28.97-17.28-16.03-6.97-35.08-10.86-52.88-8.21-7.95,1.52-13.19,9.3-20.43,12.62-5.53,2.47-11.8,3.72-17.67,5.48-9.86,3.83-18.77-3.2-27.57-6.81-13.23-4.42-29.39,3.67-38.88,12.79-10.37,10.22-21.1,19.88-33.45,27.77-18.52,15.24,8.08,29.39,20.15,36.64,7.17,5.09,16.53,11.59,22.53,17.73,20.01,20.43,40.98,46.33,71.76,48,40.43,3.45,51.06,50.37,56.44,83.46-.82,22.42-41.64,16.69-57.01,21.4-23.94,12-39.58-1.15-62.27-5.93-13.99-2.13-29.74-4.77-43.58-8.22-13.84-1.03-28.54,5.88-42,8.18-10.8,1.39-22.35-.08-32.49,4.99-6.14,2.82-14.06,4.95-17.37,11.12-5.88,15.55,19.16,22.71,15.47,38.74" vector-effect="none" fill="none" stroke="#000" stroke-miterlimit="10"/><path d="M588.22,537.38c-3.57-7.98-9.78-15.79-13.77-24.05-3.37-7.05-6.41-14.38-11.81-20.26-8.32-9.11-20.36-13.81-26.66-24.92-9.93-15.3-4.61-30.83,11.03-39.33,24.41-9.38,50.13-10.82,69.55-30.52,14.61-11.65,27.31.9,50.84-9.82" vector-effect="none" fill="none" stroke="#000" stroke-miterlimit="10"/><path d="M489.31,10.61c2.5.69,5.53.5,7.83,0" vector-effect="none" fill="none" stroke="#000" stroke-miterlimit="10"/><path d="M564.9,10.61c1.14,16.81-.34,35.93,1.1,52.74,1.67,14.37,9.21,33.26-7.5,40.68-14.66,6.98-33.2,10.14-42.43,24.51-4.34,6.94-6.27,16.17-10.85,23.33-10.61,18.39-9.11,33.83,6.26,48.63,14.6,15.34,21.06,22.6,18.4,44.81-1.68,7.65-8.27,13.34-13.84,18.54-9.5,10.26-24.28,12.79-37.57,10.15-31.3-10.24-48.65-36.54-86.06-21.39-17.12,9.2-35.68,16-55.22,17.14-13.38-.43-25.83-2.95-39.15.69-13.82-.13-15.45,10.07-10.09,20.94,3.57,17.66,19.55,29.13,31.07,40.77,5.48,4.78,10.01,12.2,13.83,18.69,7.22,13.02,19.11,16.03,32.25,19.64,12.02,4.65,25.93,7.03,34.62,17.15,16.26,17.48,19.13,43.02,24.81,65.36,2.17,7.9,8.35,19.24.79,26.24-14.76,12.27-35.18,12.26-53.36,16.31-16.04,3.26-30.55,16.15-47.58,9.94-25.35-13.58-34.73-.14-56.96-10.29-16.6-10.31-35.81-4.37-53.28,1.33-25.59,11-24.47,15.49-17.42,40.84" vector-effect="none" fill="none" stroke="#000" stroke-miterlimit="10"/><path d="M568.1,537.38c-9.28-13.05-9.08-31.6-20.15-43-23.42-20.18-38.49-51.13-7.78-72.82,12.22-7.54,27.58-12.61,40.3-18.43,6.13-2.39,13.82-3.94,19.2-8.56,5.33-3.72,12.49-9.2,17.63-12.46,16.3-7.9,26.15,5.57,50.11-6.41" vector-effect="none" fill="none" stroke="#000" stroke-miterlimit="10"/><path d="M667.4,321.06c-1.19-3.32-1.21-7.25,0-10.57" vector-effect="none" fill="none" stroke="#000" stroke-miterlimit="10"/><path d="M572.84,10.61c4.6,21.9.56,46.19,9.91,67.09,10.77,14.75,16.35,26.17.03,39.85-13.13,11.3-32.36-.88-46.07,11.96-6.2,5.4-12.67,11.11-14.25,19.38-3.79,13.64-9.37,29.13-1.25,42.31,6.69,14.68,21.03,27.17,21.22,44.72.11,11.62-2.84,16.7-10.42,25.21-8.27,8.58-22.02,25.32-32.89,35.12-7.39,3.97-20.62-5.82-29.02-7.31-17.14-8.39-27.69-18.81-48.29-16.26-22.32-1.56-41.22,8.79-61.52,15.95-9.41,2.52-28.61,5.09-23.21,19.2,49.19,78.56,73,20.04,101.7,145.36,7.44,25.3,4.8,36.27-23.2,40.19-9.7,3.33-19.38,7.36-29.35,9.43-15.83,5.15-26.71,19.37-42.67,23.82-25.58.6-25.19-15.34-55.78-5.64-15.29,1.25-27.29-14.43-42.46-13.49-14.69,1.98-29.28,14.76-30.36,29.88" vector-effect="none" fill="none" stroke="#000" stroke-miterlimit="10"/><path d="M551.41,537.38c-3.97-10-5-21.47-9.36-31.47-10.09-16.69-25.39-31.99-26.24-52.64,1.12-24.53,22.01-43.06,41.4-55.25,10.81-6.97,24.18-7.47,35.59-12.35,12.59-6.07,21.95-20.45,37.23-18.67,10.99.28,24.5,1.62,32.45-7.7,11.95-14.69-6.57-27.31-5.64-42.74.24-8.42,5.98-15.23,10.56-21.98" vector-effect="none" fill="none" stroke="#000" stroke-miterlimit="10"/><path d="M581.15,10.61c.61,8.78,5.55,16.63,6.99,25.34.58,9.24,1.89,18.09,6.87,25.97,6.68,14.28,24.14,27.77,19.06,44.89-5.9,11.39-18.18,18.49-28.56,25.29-7.31,3.56-15.28,3.5-22.86,5.76-24.46,5.74-31.03,21.01-28.13,44.64-.67,16.35,11.34,27.37,17.75,41.1,12.96,28.88-23.95,47.17-31.96,71.46-5.18,11.54-16.64,37.53-32.67,29.08-6.53-4.34-11.67-10.46-18.4-14.54-9.52-5.59-20.09-11.32-30.41-14.39-7.1-1.19-15.28,1.71-22.42,1.84-15.86-.57-21.26.92-31.95,13.26-12.62,13.61,6.63,24.58,17.01,31.06,7.63,6.12,16.32,11.6,22.19,19.55,19.22,34.77,60.7,128.53,4.43,146.57-11.96-2.92-14.22,3.81-23.24,8.38-17.14,3.75-31.73,15.49-47.87,21.52" vector-effect="none" fill="none" stroke="#000" stroke-miterlimit="10"/><path d="M325.12,537.38c-6.09-1.48-12.48-1.33-18.39,0" vector-effect="none" fill="none" stroke="#000" stroke-miterlimit="10"/><path d="M536.81,537.38c-2.83-14.94-7.3-30.53-15.88-43.31-12.87-16.5-16.1-40.27-7.72-59.32,10.11-17.39,19.73-34.59,35.59-47.57,8.83-7.28,22.29-7.73,32.71-10.33,20.38-5.81,31.1-23.5,54.98-23.44,20.11-1.04,9.87-24.5,11.58-37.43.37-15.16,13.8-24.51,19.33-37.77" vector-effect="none" fill="none" stroke="#000" stroke-miterlimit="10"/><path d="M667.4,246.99c-.13-2.62-.64-5.29,0-7.89" vector-effect="none" fill="none" stroke="#000" stroke-miterlimit="10"/><path d="M490.79,474.93c-14.49,6.23-20.06,23.14-27.14,36.39-4.96,9.73-10.87,14.17-9.59,26.06" vector-effect="none" fill="none" stroke="#000" stroke-miterlimit="10"/><path d="M519.32,537.38c-2.31-15.95-8.8-31.76-18.03-45.17-3.03-5.83-5.5-12.36-10.5-17.27" vector-effect="none" fill="none" stroke="#000" stroke-miterlimit="10"/><path d="M592.59,10.61c5.05,14.5,10.9,30.1,18.89,43.58,6.65,9.81,15.95,17.89,17.75,30.31,2.29,14.47-3.43,30.32-13.29,41.12-20.22,27.15-52.53,18.14-59.71,49.15-9.93,38.18,34.08,40.07-2.87,94.64-20.79,24.3-20.64,25.67-29.86,56.31-2.62,9.03-5.88,14.91-16.31,16.19-22.97,7.5-24.6-1.69-45.66-8.2-17.39-4.47-24.82.4-17.76,18.58,3.65,16.76,14,29.5,21.33,44.84,10.3,17.57,10.81,57.79,34.58,23.13,7.29-19.89,4.9-26.87,26.55-37.55,7.01-1.88,12.1-7.25,17.9-11.08,9.3-4.43,21.45-3.16,31.07-4.22,19.43-3.94,34.99-18.75,52.41-26.11,4.47-2.03,7.08-5.66,8.76-9.99.77-2.41.76-4.11,1.27-7.99-.57-29.67,18.96-33.61,19.64-56.5-.21-6.18-4.43-11.05-6.08-16.73-4.86-16.33,11.12-29.09,16.21-42.72" vector-effect="none" fill="none" stroke="#000" stroke-miterlimit="10"/><path d="M636.41,153.19c-9.78-2.96-22.07,20.57-26.92,28.11-3.43,8.46-3.3,6.22-9.57,1.54-9.62-3.26-16.32,4.54-10.43,13.3,1.64,2.4,4.75,4.99,5.85,7.56.74,1.95.08,4.19.25,6.6,1.66,6.23.97,12-.81,18.03-6.65,17.02-3.81,26.79-17.07,42.04-4.25,14.73-13.48,26.57-18.72,40.91-3.62,13.86-12.35,38.04,7.07,42.66,22.64,5.14,42.73-11.93,55.77-28.6,2.45-6.5,3.53-16.47,5.16-22.77,14.92-35.82,18.37-18.44,4.23-57.63-1.21-19.81,20.37-30.94,21.43-50.31,2.49-10.5-5.09-37.89-16.04-41.41" vector-effect="none" fill="none" stroke="#000" stroke-miterlimit="10"/><path d="M484.71,523.74l-3.17,13.64" vector-effect="none" fill="none" stroke="#000" stroke-miterlimit="10"/><path d="M495.75,537.38c0-4.5-2.31-8.57-4.52-12.28-1.39-1.74-4.55-.96-6.52-1.36" vector-effect="none" fill="none" stroke="#000" stroke-miterlimit="10"/><path d="M607.16,10.61c3.21,5.02,7.45,11.22,10.54,16.37,3.35,6.01,5.19,14.26,9.4,19.76,4.52,7.11,10.99,13.51,13.4,21.5,1.94,10.29,6.76,21.53,2.63,31.9-.27,2.44,2.8,2.37,4.5,2,3.75-.49,6.51-4.44,9.51-6.28,2.99-1.76,7.07-1.74,10.26-2.77" vector-effect="none" fill="none" stroke="#000" stroke-miterlimit="10"/><path d="M605.6,287.98c-6.28-2.03-12.54,8.31-17.33,11.16-10.64,8.52-32.06,37.2-6.41,39.7,5.04-.41,9.27-6.85,13.46-9.9,4.7-3.76,12.5-5.28,14.31-11.92,2.21-9.12,1.38-21.32-3.9-28.96" vector-effect="none" fill="none" stroke="#000" stroke-miterlimit="10"/><path d="M632.82,10.61c3.63,5.35,6.74,15.18,14.63,13.89,7.06.35,13.18,6.26,19.96,5.73" vector-effect="none" fill="none" stroke="#000" stroke-miterlimit="10"/><path d="M21.69,262.57c2.09,1.22,5.37,1.53,5.72,4.42,1.78,5.19-.14,13.32-5.72,14.97" vector-effect="none" fill="none" stroke="#000" stroke-miterlimit="10"/><path d="M21.69,243.45c10.25,3.5,21.58,5.48,32.71,4.85,21.19-6.45,25.29-1.51,11.2,16.1-5.97,5.74-13.53,10.48-19.99,15.66-11.3,8.92,3.26,24.14-23.92,17.53" vector-effect="none" fill="none" stroke="#000" stroke-miterlimit="10"/><path d="M21.69,230.4c50.54,14.71,43.94-12.84,84.33-1.6-1.62,5.8-5.55,9.74-10.22,13.68-9.51,7.88-16.05,18.74-23.76,28.19-3.55,4.76-10.09,10.18-12.28,16.41-1.4,3.67-.05,7.6.42,11.32,5.35,21-27.9,8.81-38.5,8.08" vector-effect="none" fill="none" stroke="#000" stroke-miterlimit="10"/><path d="M21.69,219.19c47.74,13.61,40.77-8.2,91.26-7.94,4.43-.55,40.51-6.8,31.04,3.73-17.36,8.69-32.82,22.08-47.85,34.38-9.49,7.93-15.36,19.67-20.21,30.6-5.64,13.78,3.05,27.99,8.56,40.63,10.02,17.97-21.14.51-27.73.1-11.32-3.69-23.91-4.25-35.07-6.51" vector-effect="none" fill="none" stroke="#000" stroke-miterlimit="10"/><path d="M21.69,208.44c14.77,1.85,28.2,9.2,42.97,3.15,20.51-7.69,41.87-10.09,63.81-11.38,13.68.01,26.88-8.23,40.09-9.94,3.36-.04,9.23-.02,9.8,4.21-.52,7.62-12.93,11.42-17.85,16.25-6.71,7.06-15,12.26-24.32,15-11.26,5.14-20.25,14-30.26,21.53-20.43,13.1-24.67,38.72-15.66,60.03,4.61,13.25,15.01,23.01,22.75,34.5,19.88,25.66-10.13,10.15-19.93,1.7-21.3-13.04-46.62-19.83-71.41-20.72" vector-effect="none" fill="none" stroke="#000" stroke-miterlimit="10"/><path d="M21.69,198.41c9.14.57,17.29,4.12,26.21,5.49,24.44.57,48.04-11.31,72.13-12.19,37.87-8.87,55.51-20.36,96.21-5.99-18.55,14.45-43.09,23.05-62.17,37.15-27.17,12.03-64.55,30.67-59.06,65.71,1.77,17.07,11.18,31.32,21.7,44.31,12.81,15.95,24.49,33.64,41.65,45.66.9.62,2.23,2.08,1.59,2.81-19.04,6.04-35.06-14.86-52.03-21.43-15.9-9.76-31.96-22.2-50.48-26.03-11.43-1.33-24.15-2.48-35.75-2.93" vector-effect="none" fill="none" stroke="#000" stroke-miterlimit="10"/><path d="M21.69,187.5c19.1,4.25,38.3,9.72,57.35,4.19,21.07-6.12,43.37-8.77,63.12-18.84,29.35-11.44,61.53,3,91.91-1.25,15.48-2.47,50.1-5.93,19.68,14.26-18.33,7.04-38.19,10.14-55.72,18.28-16.12,7.46-31.96,16.98-48.28,24.93-33.6,13.94-57.53,37.05-42.3,75.09,9.76,20.74,25.2,36.64,39.81,54.33,7.11,7.33,16.83,13.39,26.17,18.08,13,3.86,31.93,9.78,7.91,17.95-29.36,2.66-55.02-16.57-78.92-31.26-9.33-6.07-20.4-15.41-31.6-19.19-15.5-6.18-32.78-3.73-49.12-4.73" vector-effect="none" fill="none" stroke="#000" stroke-miterlimit="10"/><path d="M21.69,175.66c37.4,6.88,48.42,14,86.36-.81,12.35-3.86,23.51-13.26,36.97-14.49,16.47-3.96,32.73-1.28,49.65.06,12.92.8,26.73-2.25,39.86-.44,13.75.29,30.37-2.91,43.49-7.2,15.61-1.34,43.76,3.76,13.33,15.7-24.04,6.75-20.27,21.97-53.86,28.09-30.25,6.45-49.54,17.81-75.63,31.31-35.13,13.89-63.73,38.08-44.76,78.59,11.88,21.45,27.99,40.67,46.33,56.83,10.7,10.12,26.07,10.39,39.14,16.42,12.5,5.36,31.31,15.53,6.22,19.7-13.28-1.16-25.77,6.5-39.01,3.04-35.18-10.79-64.91-31.99-96.39-50.73-16.61-7.97-34.52,1.41-51.71-1.68" vector-effect="none" fill="none" stroke="#000" stroke-miterlimit="10"/><path d="M21.69,163.56c8.98,1.7,18.32,1.79,27.51,2.44,9.72,1.12,19.22,4.23,29.15,3.33,15.74.77,29.32-8.76,43.09-14.96,11.82-3.43,25.11-2.73,38.11-4.33,14.98-2.17,30.39,2.51,45.95.66,7.37-1.3,14.97-5.58,22.17-6.28,37.41,3.54,26.28-3.45,57.04-10.61,8.66.49,13.25,9.43,23.14,8.76,9.94.61,19.69-1.69,29.61.44,21.29,6.47,9,13.02-4.89,17.01-10.09,4.02-19.9,8.66-30.19,12.24-6.65,2.23-16.18,2.94-21.64,7.74-10.1,8.08-21.23,16.31-34.35,18.74-30.64,6.41-59.38,20.59-88.15,35.9-18.69,7.75-33.37,22.91-36.23,43.44-4.89,30.36,26.04,59.14,45.09,79.18,7.9,8.05,19.11,10.99,29.5,14.31,7.69,2.64,14.98,7.2,22.6,10.37,8.43,3.43,20.18,7.56,22.5,17.26-2.72,3-10.49,3.5-14.4,5.21-21.21,7.44-33.37,13.83-56.53,5.88-28.85-12.79-66.72-32.75-92.2-47.9-21.25-14.02-31.4,6.84-56.86-.27" vector-effect="none" fill="none" stroke="#000" stroke-miterlimit="10"/><path d="M667.4,516.77c-1.91-4.73-6.84-14.47,0-18.17" vector-effect="none" fill="none" stroke="#000" stroke-miterlimit="10"/><path d="M21.69,151.26c9.93,1.19,21.8-.54,31.46-.91,10.23.58,21.6,4.03,32.18,3.46,13.63.33,22.17-12.38,35.71-12.87,14.47,1.26,28.8,1.36,43.16,0,41.5,1.14,30.11,5.14,69.12-10.85,23.15-.46,26.61.42,48.75-9.41,31.61-13.82,14.56,13.01,40.58,12.81,12.58.85,24.2,3.85,36.78,5.55,5,.4,12.47-1.09,17.35.2,2.35.88,4.8,2.76,4.07,5.37-8.2,16.81-30.36,18.36-47.31,24.49-7.89,2.27-16.49,4.76-24.07,6.94-7.93,2.78-19.26,2.59-26.41,7.83-6.77,4.23-14.87,10.05-20.8,13.26-10.36,4.75-22.97,7.25-34.44,10.94-22.94,7.77-46.55,19.09-68.06,32.81-14.34,7.67-23.51,21.23-25.05,37.48-2.61,9.01-1.41,17.95,2.32,26.72,6.24,18.91,21.47,33.21,34.83,47.04,6.39,6.97,15.7,9.91,24.13,13.68,12.32,6.04,25.02,12.51,38.35,16.66,10.72,5.3,32.81,21.46,36.64,32.69-.32,4.76-19.18-1.18-22.81-1.31-13.31-3.32-25.82,6.56-37.81,9.41-24.32,5.97-46.33-9.75-67.05-20.63-7.41-4.14-18.32-7.52-26.07-10.87-15.67-8.15-31.54-18.92-48.65-23.09-8.14-.58-15.82,3.69-24.01,4.27-7.53,1.06-15.43.66-22.88.26" vector-effect="none" fill="none" stroke="#000" stroke-miterlimit="10"/><path d="M667.4,528.17c-5.31-6.17-7.68-14.18-12.47-20.56-10.44-13.03,1.35-16.95,12.47-20.45" vector-effect="none" fill="none" stroke="#000" stroke-miterlimit="10"/><path d="M21.69,138.02c13.79,2.11,27.97-2.9,41.5-3.19,7.31.27,15.47.98,22.78,1.25,13.86-.88,26.76-12.58,41.19-6.65,20.68,7.03,42.26,1.09,64.07,2.93,18.92,3.85,28.36-16.53,45.74-16.49,34.14.24,36.71-2.18,67.14-15.09,16.91-7.53,18.29,3.07,18.13,17.21,5.48,10.17,19.7,8.99,29.7,12.15,11.64,3.47,24.85-2.73,36.51.68,5.59,1.94,12.03,6.47,17.63,8.78,27.21,4.36,3.33,6.09-7.17,9-9.49,2.57-12.48,12.95-20.56,17.21-26.28,9.07-55.14,12.4-81.86,18.28-13.58,2.03-22.81,13.39-35.23,18.24-12.94,4.91-29.82,9.56-41.24,13.91-38.56,17.66-74.39,29.42-71.64,79.62,2.05,23.69,18.67,42.68,35.82,57.64,12.68,7.78,25.96,14.72,39.79,20.16,24.53,5.46,35.53,19.86,54.18,34.09,7.56,5.26,35.95,23.65,10.72,23.85-5.66-.06-11.37-3.35-16.8-5.24-10.62-4.04-21.03-6.37-32.16-1.81-16.54,5.18-34.03,10.89-51.45,7.09-19.63-6.03-35.56-20.21-54.31-26.96-7.17-2.94-15.2-1.75-22.42-4.17-29.94-19.12-56.71-14.97-90.06-13.63" vector-effect="none" fill="none" stroke="#000" stroke-miterlimit="10"/><path d="M667.4,536.42c-6.71-3.75-10.02-10.83-13.54-17.15-6.21-9.61-15.76-18.85-18.12-30.24,1.61-7.57,13.26-5.68,18.9-8.61,4.23-1.67,8.8-4.22,12.76-6.11" vector-effect="none" fill="none" stroke="#000" stroke-miterlimit="10"/><path d="M21.69,118.73c18.8,6.04,24.26-7.56,40.16-12.75,9.55-3.22,19.73.18,29.5-.77,13.08-2.28,19.92-6.33,32.71.68,21.53,14.23,39.24,13.09,63.38,10.3,26.52.8,16.18-23.08,34.39-21.65,17.91,5.63,29.84-.21,47.18-3.28,17.68.5,32.15-7.93,46.88-16.32,10.6-4.83,27.64-5.7,34.1,5.75,1.94,7.58-3.5,16.98-4.26,24.91-.09,15.41,20.26,13.28,30.37,9.43,14.16-3.51,27.55-13.13,42.71-8.31,11.34,2.61,23.54,4.62,34.15,8.97,6.95.85,17.87,4.13,13.13,13.2-2.28,4.5-7.85,8.3-11.21,11.86-4.53,4.31-8.6,10.69-13.27,14.58-5.93,6.57-23.27,7.9-24,16.78-.48,4.11-.18,8.31-2.29,11.95-8.8,10.76-30.29,2.51-42.84,2.43-17.47-1.7-34.83,2.84-52.76,2.73-30.25-.58-49.06,17.06-75.15,28.93-11.62,4.46-25.14,7.63-35.17,14.67-10.57,7.38-23.63,11.84-30.6,22.79-7.81,16.31-1.91,47.16-.66,64.66,2.92,10.33,8.41,21.26,17.46,27.16,7.85,4.73,18.03,12.78,26.76,16.61,11,4.77,22.89,7.27,33.07,13.91,9.84,4.26,14.5,13.62,22.8,19.78,8.01,8.03,86.24,38.79,69.57,49.27-14.14,4.23-29.09-.98-43.57-2.86-20.35-.61-21.1-.46-39.03-10.02-25.92-5.55-51.36,14.87-76.86,8.44-12.87-1.27-22.03-11.07-33.03-16.73-12.49-6.82-25.92-11.44-40.03-7.03-6.51,1.26-12.93-1.19-19.14-2.61-14.14-.95-28.61-5.76-42.26-4.63-11.6.61-21.72,7.05-32.22,10.95" vector-effect="none" fill="none" stroke="#000" stroke-miterlimit="10"/><path d="M649.37,537.38c-5.85-13.33-12.62-26.86-21.13-38.32-5.34-7.63-35.71-31.91-9.76-30.82,23.24,2.62,33.67-.91,48.93-17.92" vector-effect="none" fill="none" stroke="#000" stroke-miterlimit="10"/><path d="M34.86,10.61c-3.68,5.8-8.06,10.72-13.17,14.99" vector-effect="none" fill="none" stroke="#000" stroke-miterlimit="10"/><path d="M21.69,101.55c15.55,7.64,24.37-9.61,38.17-12.72,10.64-4.9,21.81-1.03,32.77-1.7,15.15-2.26,29.06-3.58,41.98,5.76,18.63,12.59,31.74,15.85,52.88,6.55,8.77-4.52,9.98-17.42,19.93-20.08,11.39-.93,22.37,7.66,34.25,4.28,19.05-5.39,19.34-15.66,42.17-9.52,17.97.05,29.13-21.16,47.55-18.29,5.19.73,10.15,3.42,15.22,4.53,12.64,5.42,30.5-10.61,39.01,4.17,2.74,5.71-.75,15.19,4.06,19.66,11.07,6.05,28.32.03,40.62.26,8.34-.97,19.2,2.62,26.93,4.24,6.13,2.55,12.27,2.71,18.42.65,11.69-.9,10.36,13.03,7.65,20.9-4,22.82-13.36,23.46-26.76,38.59-5.7,8.83-11.76,18.94-15.85,28.31-1.79,4.88-1.24,10.34-1.51,15.55-.05,14.27-7.3,13.69-18.68,11.42-10.14-2.12-24.76-5.1-35.58-7.36-22.15-6.35-44.5-.01-67.1-.99-24.23-1.55-45.56,14.54-64.85,26.29-7.25,4.92-17.24,8.29-25.72,11.74-10.12,4.24-20.13,11.93-28.83,17.9-3.37,2.73-6.42,6.65-7.64,10.94-3.17,15.14.33,30.41.97,46.15.52,15.49,5.24,29.75,19.07,38.02,16.92,13.1,37.88,18.3,55.48,29.89,5.58,3.81,9.01,10.75,14.06,14.89,7.57,6.04,17.69,7.22,25.79,12.2,8.38,4.58,16.93,10.51,25.9,14.22,8.83,3.92,19.8,7.1,26.8,14.34,5.01,6.04,18.02,22.33,6.74,26.69-9.96.22-22.12-1.1-31.97-.94-8.76-1.13-18.24-3.97-26.98-5.69-7.65-1.97-17.02.09-24.8-1.84-7.85-2.02-13.7-8.74-21.71-10.36-25.65-3.27-49.78,16.2-75.22,8.88-12.62-.34-19.21-8.98-28.99-15.15-14.79-8.03-32.6-3.47-47.55-.52-7.35,1.48-15.23,1.33-22.95,1.46-7.75-.08-16.41-3.47-24.1-2.1-13.11,4.12-25.69,10.4-39.6,12.1" vector-effect="none" fill="none" stroke="#000" stroke-miterlimit="10"/><path d="M21.69,525.16c6.64,2.14,14.93,1.04,22.05,1.63,17.32,2.04,34.3,5.27,50.77,10.59" vector-effect="none" fill="none" stroke="#000" stroke-miterlimit="10"/><path d="M638.69,537.38c-11.07-56.35-72.65-63.02-54.46-78.21,4.32-2.02,10.9-1.38,15.13-1.99,8.67-.87,16.93-3.31,25.56-2.3,5.8.21,10.76,1.34,16.45-.41,10.19-4.4,15.96-14.75,26.03-19.52" vector-effect="none" fill="none" stroke="#000" stroke-miterlimit="10"/><path d="M58.72,10.61c-.24,13.95.65,27.82-3.43,41.55-4.68,13.61,10.13,13.86,19.54,15.18,7.28,1.02,12.81,2.34,20.4,1.84,15.95-2.07,30.82-1.61,44.99,7.38,11.82,7.17,27.16,10.47,40.35,5.77,6.75-3.04,9.66-10.51,14.61-15.5,17.35-17.87,34.16,21.97,62.27-7.2,4.54-3.44,11.37-5.31,16.98-4.94,33.95,10,40.28-26.03,69.93-10.72,15.55,11.14,30.99-6.03,45.44-9.05,12.63-1.98,19.33,8.95,17.86,20.36-2.26,24.33,25.85,10.84,38.98,9.17,24.88-4.08,24.04-.62,38.85,18.3,12.19,12.61,5.81,33.01-.96,46.83-4.94,8.71-14.8,13.6-20.82,21.09-6.56,12.41-12.32,26.75-11.79,40.94-.03,8.1,7.76,15.44,5.65,23.61-4.84,7.21-15.87,3.21-22.64,1.56-18.43-5.31-37.81-9.99-56.97-13.72-10.74-3.28-22.53-1.43-33.34-.11-10.14,1.26-20.69-.52-30.96-.04-24.29,1.65-45.03,17.67-63.34,32.2-13.18,10.23-34.18,13.72-44.02,27.96-6.32,17.71-3.96,39.09,1.11,56.93,15.85,32.43,56.22,38.54,78.74,64.21,15.33,6.68,31.59,14.62,46.51,22.59,24.64,9.82,39.84,2.55,47.96,34.5,12.44,28.1-4.5,28.45-27.52,26.16-20.2,1.44-27.5.85-46.56-6.59-7.13-2.39-15.96-1.16-23.15-2.35-14.91-3.71-23.84-16.27-40.88-11.31-12.85,2.87-27.29,9.74-40.89,10.9-12.9-.9-27.38.81-38.7-6.64-8.18-7.78-15.56-12.17-27.23-9.32-14.91,3.33-29.57,10.12-45.17,12.22-22.54,2.09-50.22,2.95-68.82,18.04" vector-effect="none" fill="none" stroke="#000" stroke-miterlimit="10"/><path d="M21.69,496.71c11.67,22.33,45.01,5.89,68.6,21.2,9.74,6.14,19.28,12.61,28.2,19.47" vector-effect="none" fill="none" stroke="#000" stroke-miterlimit="10"/><path d="M628.04,537.38c-1.89-15.13-8.44-30.88-21.36-39.36-10.47-7.28-20.68-14.26-30.16-23.1-35.02-29.76,30.98-26.95,47.29-34.13,17.08-2.85,28.22-16.26,43.6-23.11" vector-effect="none" fill="none" stroke="#000" stroke-miterlimit="10"/><path d="M80.24,10.61c1.27,24,1.84,34.87,28.97,38.58,16.3-.52,26.46,2.25,40.71,10.18,35.23,19.33,32.63-19.46,58.87-15.3,7.36,1.43,13.57,5.89,20.29,8.93,15.11,4.87,26.95-12.63,42.11-11.85,14.32.48,22.99,5.96,36.17-3.49,35.12-29.06,39.04,5.66,64.83-11.18,7.28-4.75,13.32-12.54,22.61-13.79,19.13-1.26,25.62,19.49,32.44,33.23,6.31,9.27,19.01,4.52,28.21,3.69,19.02-4.51,26.48,17.23,35.12,29.97,16.95,23.05,4.69,54.11-16,70.32-11.25,16.5-17.45,40.99-3.18,57.72,25.6,39.6-33.66,18.12-51.58,12.18-13-4.09-26.45-5.7-41.81-8.82-13.96-4.29-28.5,2.6-42.63,2.61-10.83-.24-22-2.94-32.43,1.41-17.34,4.13-31.62,16.84-43.78,28.39-11.79,13.14-35.37,16.03-41.84,33.91-9.8,35.08,16.89,54.33,41.66,73.18,5.65,3.75,12.41,7.3,18.12,11.02,5.33,3.68,13.58,11.62,19.4,14.43,16.45,8.31,30.45,18.5,46.14,22.98,30.9,7.2,35.19,6.54,48.82,37.98,1.99,7.57,5.96,16.16,6.28,23.8-2.64,16.3-24.13,15.18-36.82,14.9-11.95.45-23.27,4.38-35.35,1.27-6.86-1.05-13.43-4.71-19.91-7.1-8.92-3.17-18.66-2.83-27.73-5.05-15.21-4.83-24.79-15.6-41.64-7.49-13.18,4.1-27.44,11.49-41.69,9.37-12.19-2.58-25.5,2.28-36.85-3.37-10.03-4.06-15.43-7.63-26.56-3.52-10.62,3.63-20.79,9.33-30.28,14.98-12.54,5.73-8.13,17.26-1.19,25.9,4.11,5.46,11.95,11.74,17.26,17.02,7.53,7.18,18.5,11.12,24.69,19.79" vector-effect="none" fill="none" stroke="#000" stroke-miterlimit="10"/><path d="M615.8,537.38c1.78-15.83-9.95-27.26-21.55-35.87-9.25-7.86-18.31-17.36-27.17-24.18-5.81-4.27-13.8-8.55-15.42-16.31-.38-20.84,26.1-22.89,41.67-25.42,8.69-1.93,18.66-5.73,26.74-9.01,16.85-11.02,26.88-17.19,47.35-21.07" vector-effect="none" fill="none" stroke="#000" stroke-miterlimit="10"/><path d="M149.78,10.61c17.41,7.53,25.42,6.47,42.97,0" vector-effect="none" fill="none" stroke="#000" stroke-miterlimit="10"/><path d="M210.94,10.61c10.65,1.76,22.66,5.53,33.8,6.02,6.85-.33,14.4-.99,20.97-.82,16.36-.77,31.07,3.78,44.09-5.2" vector-effect="none" fill="none" stroke="#000" stroke-miterlimit="10"/><path d="M468.06,10.61c6.24,23.94,35.91,7.89,49.3,0" vector-effect="none" fill="none" stroke="#000" stroke-miterlimit="10"/><path d="M560.3,10.61c-1.2,17.58-.43,35.62-.6,53.04,5.14,28.3-3.46,32.38-27.96,44.62-12.91,5.19-21.47,15.2-25.47,28.22-9.58,18.26-27.82,40.37-9.02,59.11,7.84,11.32,23.04,17.61,25.97,31.9,7.73,28.51-19.4,44.86-44.75,39.24-16.59-3.85-29.72-16.18-44.63-23.31-14.79-4.73-31.5-9.72-46.51-2.79-14.71,11.41-26.77,14.37-44.59,18.16-9.33,2.47-18.36-2.14-27.39-4.7-24.38-9.56-45,14.72-56.96,33.06-6.05,10.87,8.81,16.79,15.99,21.66,5.71,4.03,10.82,9.09,16.3,13.74,17.66,13,27.6,34.19,46.27,46.04,11.89,8.82,26.29,7.35,39.31,12.84,31.35,10.08,36.23,47.51,43.01,75.17,13.39,31.87-27.4,29.84-48.95,34.32-12.42,1.08-23.81,10.63-36.84,8.26-12.2-.98-24.03-8.02-35.85-9.34-14.88-1.01-30.23-3.82-44.38-8.28-17.17-.76-35.24,6.45-51.75,10.12-35.93,13.17-18.02,18.54-15.56,45.67" vector-effect="none" fill="none" stroke="#000" stroke-miterlimit="10"/><path d="M577.42,537.38c-6.26-10.25-10.83-21.37-14.97-32.45-6.69-16.02-26.24-22.5-32.15-39.26-9.53-15.02-.7-33.78,14.15-41.28,17.06-8.02,36.81-10.34,53-20.49,7.01-4.69,15.54-12.32,23.78-16.54,16.68-4.79,22.12,5.86,46.18-5.23" vector-effect="none" fill="none" stroke="#000" stroke-miterlimit="10"/><path d="M569.23,10.61c2.42,20.81.26,42.09,4.68,62.75.87,6.7,4.78,13.08,4.75,19.71.03,9.71-5.61,21.96-16.68,21.86-16.16.3-28.46,4.6-39.11,16.85-4.06,5.55-6.29,11.21-8.62,17.8-6.04,14.98-10.88,32.1,1.2,45.33,5.45,7.83,13.23,16,17.52,24.44,5.29,13.64,5.99,30.24-6.11,40.36-9.48,9.85-19.44,22.19-33.82,24.1-36.41,1.58-45.27-34.87-94.39-20.98-17.62,4.74-31.29,16.02-50.01,16.93-11.81,3.22-24.01-.11-35.56,3.54-6.49,3.17-8.9,11.01-4.96,17.2,5.1,7.62,14.1,14.02,21.14,21.42,8.97,8.63,15.68,20.44,24.89,29.08,6.65,5.34,16.14,11.22,24.23,15.29,39.98,10.73,44.28,57.52,54.62,90.89,6.36,17.74,3.55,26.99-16.38,31.9-15.26,6.33-31.74,7.06-46.91,13.55-14.24,5.8-27.34,22.32-44.03,13.69-24.62-15.96-21.44-5.6-43.62-4.98-13.21-3.03-23.82-14.2-37.79-13.61-24.82,3.52-44.01,10.08-37.76,39.65" vector-effect="none" fill="none" stroke="#000" stroke-miterlimit="10"/><path d="M559.23,537.38c-5.57-9.97-6.15-22.66-11.31-32.87-14.02-20.41-41.48-45.81-22.73-71.66,4.21-5.55,8.27-11.7,13.96-15.95,11.35-6.9,22.96-14.25,35.16-19.05,16.47-3.83,26.9-10.53,39.68-20.43,15.32-10.64,36.13,3.26,53.4-10.49" vector-effect="none" fill="none" stroke="#000" stroke-miterlimit="10"/><path d="M667.4,331.88c-7.45-9.09-7.8-21.46,0-30.4" vector-effect="none" fill="none" stroke="#000" stroke-miterlimit="10"/><path d="M577.02,10.61c.32,8.74,3.81,16.66,4.69,25.15.16,11.37,1.3,21.97,5.83,32.63,18.66,27.92,31.5,32.39-2.56,56.72-15.15,8.73-30.66-.53-44.54,12.42-13.07,8.01-13.79,23.03-14.83,36.67-1.18,34.95,43.76,53.27,11.4,87.87-4,4.65-10.25,11.96-14.09,16.42-9.88,9.48-15.34,37.26-33.75,31.08-8.79-7.07-19.6-10.08-29.19-15.59-14.26-10.81-31.29-11.13-48.54-9.84-17.46-.05-35.79,8.38-47.27,21.72-7.61,8.15.28,17.14,5.64,24.1,10.36,14.44,29.91,19.71,42.11,32.46,8.32,10.04,12.33,21.82,17.31,33.87,10.21,23.78,17.03,45.89,19.95,71.26,1.63,11.31-4.28,21.84-14.05,27.69-4.76,2.65-10.47,1.7-15.7,2.02-7.15.68-13.51,5.04-19.6,8.59-13.55,3.79-25.45,12.26-36.52,20.3-26.03,17.5-45.51-6.7-74.15,2.51-12.89,1.89-25.43-4.29-38.05-4.32-8.99,2.92-18.64,6.09-25.57,13.06" vector-effect="none" fill="none" stroke="#000" stroke-miterlimit="10"/><path d="M544.58,537.38c-5.88-42.52-29.76-46.68-32.24-83.59,1.16-23.62,29.22-60.73,52.63-66.28,11.94-3.55,23.81-4.07,33.23-11.65,6.84-4.72,13.37-11.25,21.59-13.68,11.89-3.82,27.62,3.08,35.92-8.98,6.55-10.48-3.06-21.48-3.08-32.55-1.74-12.8,8.32-23.37,14.78-32.87" vector-effect="none" fill="none" stroke="#000" stroke-miterlimit="10"/><path d="M586.6,10.61c1.15,8.68,6.24,16.88,8.52,25.46,1.17,4.65,1.97,9.87,3.99,14.21,8.14,19.88,31.62,37.28,21.23,59.39-8.76,14.41-24.68,25.53-40.13,31.61-21.4,4.49-37.8,17.27-35.89,40.79-.81,40.08,35.65,36.17,4.79,81.5-16.04,17.74-22.54,29.58-30.21,52.23-3.78,14.04-11.52,18.53-25.37,20.09-12.16.8-19.64-11.18-29.62-16.11-19.69-15.91-76.67-16.56-45.57,19.62,14.63,13.54,21.74,32.78,31.11,49.86,2.66,5.12,5.15,10.06,6.91,15.71,2.5,8.33,6.66,19.24,8.37,28.13,1.16,10.65,1.43,21.31,3.84,31.77-3.02,24.74-18.76,45.29-39.31,58.5-15.06,8.75-33.02,6.11-48.76,14.01" vector-effect="none" fill="none" stroke="#000" stroke-miterlimit="10"/><path d="M527.67,537.38c-1.42-18.75-10.38-36.72-20.33-52.21-5.96-16.05-6.1-35.79.77-51.46,9.05-17.89,19.44-34.36,33.39-48.99,12.05-13.09,24.11-9,39.25-13.4,18.06-5.27,31.12-19.29,49.42-24.05,21.6-6.02,7.18-35.09,19.23-49.4,3.28-5.16,7.87-10.74,10.6-16.32,14.61-26.25-12.51-31.36,7.4-59.53" vector-effect="none" fill="none" stroke="#000" stroke-miterlimit="10"/><path d="M630.77,177.27c-11.29,6.4-19.83,30.9-14.88,43.2.4,1.66,1.36,4.83,3.39,3.16,5.42-7.58,14.82-12.26,19.02-20.75,4.51-7.78,3.8-25.16-7.37-25.65" vector-effect="none" fill="none" stroke="#000" stroke-miterlimit="10"/><path d="M611.78,251.26c-13.19,1.37-20.78,27.51-28.28,36.52-11.3,13.61-22.98,30.15-21.99,48.7.12,11.41,14.17,12.61,22.9,10.91,7.35-1.42,13.04-6.9,18.52-11.64,9.15-6.77,15.76-15.55,16.33-27.25,1.14-29.5,25.15-31.4-7.34-57.22" vector-effect="none" fill="none" stroke="#000" stroke-miterlimit="10"/><path d="M616.71,10.61c8.03,8.64,10.7,20.43,17.21,30.13,8.13,9.5,21.51,34.98,33.48,15.92" vector-effect="none" fill="none" stroke="#000" stroke-miterlimit="10"/><path d="M21.69,236.49c42.29,14.44,44.75-6.53,64.07,1.5,3.94,3.01-.77,8.4-2.84,11.23-5.73,6.83-10.65,15.94-17.24,22.16-5.36,5.79-14.41,10.18-15.86,18.66-.29,5.92,4.31,13.51-5.03,14.48-7.74.93-15.35-.23-23.1-2.01" vector-effect="none" fill="none" stroke="#000" stroke-miterlimit="10"/><path d="M21.69,224.56c22.91,7.07,36.93,5.15,58.14-4.55,12.92-4.07,27-1.13,40.1-4.4,16.02-1.25-1.27,11.4-5.44,15.1-7.81,7.25-16.58,14.56-24.86,21.5-5.14,5.75-9.05,11.4-13.22,17.99-8.26,12.85-12.28,16.06-7.95,32.01,2.73,9.02,3.66,17.71-8.89,14.66-9.92-1.86-27.93-4.48-37.88-6.56" vector-effect="none" fill="none" stroke="#000" stroke-miterlimit="10"/><path d="M21.69,213.63c31.49,8.61,34.16,4.92,63.04-4.2,18.79-4.46,40.18-3.24,58.61-6.16,5.85-.34,21.33-6.94,13.29,4.86-6.37,10.58-18.44,13.22-28.42,18.99-13.57,10.15-28.11,19.4-38.62,32.9-4.52,8.07-9.57,18.57-9.52,27.95,2.25,16.4,9.21,30.81,19.06,43.95,1.86,2.8,4.85,5.33,5.16,8.89.13,3.94-2.27,3.46-4.94,1.63-1.55-1.04-3.42-1.95-4.78-2.52-7.21-3.04-18.85-7.91-26.04-10.91-14.11-6.83-31.16-8.88-46.83-10.99" vector-effect="none" fill="none" stroke="#000" stroke-miterlimit="10"/><path d="M21.69,203.41c7.87.5,15.33,3.08,22.73,5,23.27,2.99,45.17-12.2,69.04-11.09,19.24-.33,36.39-9.28,55.06-12.89,6.29-1.29,32.84-1.85,23.97,9.84-8.39,6.72-17.93,12.43-27.57,17.35-8.17,5.92-16.47,12.67-26.11,15.31-11.4,5.03-20.37,13.11-30.14,20.96-22.24,13.7-22.28,43.45-11.24,64.39,11.15,19.5,27.38,35.02,38.12,54.5.75.76,1.85,1.98.56,2.73-2.88,1.34-5.61-1.65-7.87-3.19-14.07-5-26.87-12.87-38.82-21.56-9.25-5.52-20.55-10.01-30-13.62-12.54-2.81-25.16-3.15-37.73-4.16" vector-effect="none" fill="none" stroke="#000" stroke-miterlimit="10"/><path d="M21.69,181.62c28.97,6.67,52.72,11.7,81.38-.6,18.18-3.12,33.65-14.94,52.16-17.4,26.13-1.63,51.75,4.61,78.19,2.67,12.19-2.5,24.77-2.04,36.97-4.55,2.88-1.55,23.57-1.96,18.82.92-9.35,3.08-15.39,11.74-22.01,18.43-17.29,14.54-45.3,14.58-64.15,23.56-14.81,7.08-31.49,16.45-46.77,23.84-19.08,7.12-37.83,19.03-47.01,37.96-8.25,24.65,6.83,48.76,21.89,67.04,12.71,15.36,25.28,32.78,44.53,40.24,7.21,3.01,18.39,4.21,25.36,8.67,3.3,1.65,15.33,9.27,6.46,10.63-9.01.16-17.18,4.17-25.89,5.75-32.46,1-70.85-27.49-97.51-44.85-18.24-12.93-41.51-9.68-62.44-9.77" vector-effect="none" fill="none" stroke="#000" stroke-miterlimit="10"/><path d="M21.69,169.84c14.53,2.58,30,3.92,44.3,7.32,21.43,1.96,41.87-7.67,60.18-17.5,13.14-3.66,26.86-5.49,40.47-5.89,8.95-.21,19.54,1.31,28.16,1.83,11.96,1.05,23.72-5.05,35.86-3.55,10.42.93,19.82.97,29.95-.84,10.21-4.78,18.06-9.16,29.85-4.84,5.89,3.82,51.51-3.85,38.96,8.49-8.3,6.4-18.68,9.79-28.14,14.27-6.8,1.94-14.61,3.74-20.41,7.43-7.15,5.02-12.62,11.64-20.92,15.22-11.74,4.2-36.21,10.6-44.47,13.21-21.05,7.67-44.96,21.48-65.09,30.92-14.92,6.21-27.21,18.72-32.23,34.15-8.15,25.33,10.31,48.43,25.08,66.98,11.25,11.51,20.35,25.28,35.42,31.57,8.45,2.58,74.85,22.27,43.49,32.3-22.61,7.41-47.31,11.29-68.66-1.73-25.19-11.6-48.77-23.61-72.02-39.55-5.17-3.77-11.29-5.78-17.68-6.63-16.38-1.83-22.01,8.4-42.09,3.18" vector-effect="none" fill="none" stroke="#000" stroke-miterlimit="10"/><path d="M21.69,157.44c9.56,1.54,20.7.77,30.33.43,12.82,1.85,25.67,5.87,38.67,2.61,14.16-3.12,23.83-14.97,39.37-13.28,12.6.02,25.39-1.35,38.03-2.14,13.38-.25,28.14,4.14,41.31-.25,13.25-6.52,25.32-8.85,40.03-7.12,13.95.55,36.1-18.38,46.75-11.27,9.33,12.13,15.2,11.27,29.35,11.25,9.54.43,19.08,2.45,28.33,4.71,10.09,1.86,21.07,5.29,6.26,12.35-16.03,8.17-34.92,11.76-51.44,18.67-8.17,3.2-19.15,2.74-26.46,8.25-10.32,7.86-20.86,15.86-33.67,18.57-23.7,5.39-46.91,14.2-68.74,26.04-30.44,15.39-53.88,26.32-52.55,65.49,5.4,26.34,36.59,65.41,61.73,74.34,11.22,4.83,34.05,14.49,41.88,17.93,8.78,3.74,16.12,11.24,23.37,17.32,8.01,6.85-1.6,8.98-8.38,7.11-12.57-1.92-24.53,3.8-35.61,8.74-25.99,9.97-50.55-10.49-73.24-20.48-25.08-8.52-45.7-28.36-71.47-34.06-14.63,2.38-28.39,8.31-43.86,5.28" vector-effect="none" fill="none" stroke="#000" stroke-miterlimit="10"/><path d="M667.4,522.91c-3.63-4.54-5.13-10.89-7.8-16.27-4.09-7.94-.06-12.03,7.8-14.02" vector-effect="none" fill="none" stroke="#000" stroke-miterlimit="10"/><path d="M21.69,144.86c11.92.91,24.75-1.15,36.59-1.72,10.75-.33,22.29,4.27,32.89,1.62,19.7-10.36,25.48-13.09,47.89-7.74,14.5,1.91,27.93-1.38,42.52-.21,6.32.21,13.32,1.34,19.75.57,12.5-2.28,22.84-14.35,36.14-15,27.19,1.94,33.23-2.92,57.49-12.07,27.95-9.17,8.32,12.38,26.62,17.61,8.17,1.72,18.66,3.84,27.06,5.51,10.72,3.42,22.27-.75,33.31.94,20.14,4.04.66,19.36-7.11,25.18-12.21,5.39-26.04,10.4-39.41,13.1-17.95,5.1-37.95,5.74-53.7,14.28-5.23,3.46-10.83,7.79-16.31,10.98-12.92,6.44-29.33,9.3-41.98,13.94-19.81,7.59-39.73,17.32-57.88,28.76-9.98,7.89-20.61,17.48-22.45,30.72-4.6,16.78-3.08,33.44,5.97,48.56,9.04,13.3,19.84,25.7,32.19,35.97,13.57,7.31,26.65,14.31,41.11,20,12.76,3.18,24.75,9.96,34.8,18.41,5.55,4.97,12.32,11.23,17.73,16.05,2.54,2.37,6.73,4.51,9.38,7.09,4.87,5.04,2.81,9.54-4.7,7.6-47.31-17.49-44.61,4.79-85.63,4.11-25-4.42-44.39-23.69-68.39-30.62-9.41-1.46-17.72-6.8-25.71-11.58-6.45-2.93-16.64-6.4-22.64-8.69-8.76-4.11-18.43-.87-27.47.34-8.81,1.04-19.27.33-28.04.62" vector-effect="none" fill="none" stroke="#000" stroke-miterlimit="10"/><path d="M667.4,532.73c-8.09-7.88-11.61-19-18.97-27.5-14.21-18.35,6.64-18.37,18.97-24.32" vector-effect="none" fill="none" stroke="#000" stroke-miterlimit="10"/><path d="M543.26,12.06l-.35-1.45" vector-effect="none" fill="none" stroke="#000" stroke-miterlimit="10"/><path d="M546.16,10.61c-.44,1.59-1.45,1.44-2.9,1.45" vector-effect="none" fill="none" stroke="#000" stroke-miterlimit="10"/><path d="M105.05,10.61c.6,15.82,17.84,16.81,29.59,20.37,11.04,3.78,21.89,9.42,33.25,9.73,16.91-2.59,27.29-21.76,46.59-13.25,18.77,6.53,24.99,8.67,44.63,2.89,30.63-2.66,34.23,6.83,61.88-14.22,20.76-14.24,32.45,8.3,52.45-5.52" vector-effect="none" fill="none" stroke="#000" stroke-miterlimit="10"/><path d="M436.15,10.61c1.89,4.08,1.84,8.06,1.81,12.46.82,16.76,17.25,12.98,29.06,15.45,8.66.4,16.34,14.44,24.22,7.78,7.29-10.01,18.19-15.53,28.71-21.29,5.12-2.78,14.64-11.62,19.97-9.42,1.59,1,1.17,3.85,1.64,6.52.76,5.85,5.67,10.21,6.39,16.02,1.13,6.53-.7,14.12-6.31,17.93-2.72,1.98-6.08,1.73-9.18,2.47-4.86,1.69-9.52,4.49-13.54,7.14-7.79,5.03-23.98,3.11-16.38,16.59,2.19,3.65,7.11,3.58,8.1-.61,5.27-8.73,16.09-11.05,25.48-11.62,2.53-.25,4.34,1.15,5.72,3.4,9.21,16.52-18.95,29.23-30.79,19.57-2.65-2.91-1.81,1.93-2.1,3.68.1,14.79-6.95,28.87-13.8,41.87-10.59,14.56-24.26,31.22-20.07,50.51,3.09,10.23,12.29,17.95,18.46,26.16,4.79,5.75,13.41,10.19,14.89,18.23-.15,19.91-28.58,24.94-42.41,15.24-24.65-15.85-53.2-25.76-82.63-27.5-14.56-2.83-22.87,7.61-35.21,12.4-24.78,8.38-27.01-17.55-64.99,5.19-6.62,4.83-12.43,11.6-18.33,16.97-8.44,8.88-21.36,13.56-29.68,22.43-8.84,10.26-6.19,25.72,5.02,33.06,3.85,3.15,10.53,8.75,14.74,12.27,6.79,5.4,13.73,15.26,21.15,19.49,4.22,2.57,10.27,5.83,13.79,8.35,29.19,26.61,40.69,35.28,80.27,41.48,10.49,2.51,14.87,10.5,20.82,18.43,10.32,12.73,13.57,29.27,16.88,44.97,4.09,14.4.46,20.68-14.78,23.49-11.47,3.31-23.32,2.62-35.11,4.5-7.71,2.13-16.48,5.81-24.87,3.95-9.84-1.18-20.72-6.34-29.8-9.49-12.13-3.3-24.92-3.93-37.05-7.63-5.82-1.7-11.8-4.2-17.93-3.94-14.05.57-27.16,8.21-41.21,10.16-7.38.66-15.72-1.29-22.82-.36-13.4,2.72-28.13,5.68-40.39,11.43-13.8,7.46-5.95,21.88,3.56,29.62,5.94,5.28,12.89,11.03,13.88,19.42" vector-effect="none" fill="none" stroke="#000" stroke-miterlimit="10"/><path d="M599.75,537.38c-4.88-15.71-26.56-44.27-40.28-54.28-12.77-8.11-29.7-21.72-20.03-37.88,4.98-9.25,14.31-14.43,24.28-16.08,12.05-3.1,26.44-5.22,38.14-10.83,10.29-5.07,17.85-14.66,29.13-17.7,12.02-1.95,24.99-2.2,36.41-6.71" vector-effect="none" fill="none" stroke="#000" stroke-miterlimit="10"/><path d="M502.93,355.36c-2.02.54-3.8,2.16-5.91,2.69-2.51.64-5.16-.16-7.66.87-10.87,3.22-5.76,14.2-5.49,22.67,8.67,11.36,25.61-6.88,27.42-16.43,2.84-8.14.25-10.79-8.19-9.84" vector-effect="none" fill="none" stroke="#000" stroke-miterlimit="10"/><path d="M490.79,502.92c-18.53-.84-20.66,20.83-23.7,34.45" vector-effect="none" fill="none" stroke="#000" stroke-miterlimit="10"/><path d="M509.45,537.38c-1.22-7.64-3.55-14.29-7.51-20.8-2.97-6.02-5.09-10.69-11.16-13.66" vector-effect="none" fill="none" stroke="#000" stroke-miterlimit="10"/><path d="M599.51,10.61c2.9,6.7,7.92,13.66,10.76,20.59,3.39,7.97,5.99,16.45,11.91,23.04,26.18,23.92,10.45,63.2-8.02,86.8-6.09,7.59-15.51,9.74-23.26,14.66-10.36,7.72-26.39,18.62-21.89,34.23,12.63,23.91,10.78,47.82-2.09,71.43-7.91,18.47-26.61,31.14-31.05,51.34-3.38,11.19-7.6,23.79,3.45,30.86,5.12,11.14,8.11,14.7,20.99,16.79,25.35,6.11,48.11-13.87,66.39-27.97,9.04-10.02,1.61-25.99,10.58-36.63,2.32-3.89,6.4-10.72,8.84-14.86,10.02-15.13-11.44-29.69-3.72-45.48,2.15-7.17,6.83-12.07,11.14-17.88,25.28-36.43-15.61-65.24,13.85-98.9" vector-effect="none" fill="none" stroke="#000" stroke-miterlimit="10"/><path d="M21.69,251.02c10.23,5.07,21.94,2.47,32.87,4.44,5.08.05,7.59,1.96,4.76,6.96-1.95,3.88-6.76,5.18-10.45,7.3-21.76,8.91-11,24.5-27.18,21.93" vector-effect="none" fill="none" stroke="#000" stroke-miterlimit="10"/><path d="M21.69,193.19c42.13,12.69,56.98-.36,96.48-5.74,19.54-5.19,38.16-15.36,59.29-13.45,12.31.11,25.39,2.76,36.63,3.79,3.33,1.65,42.31-2.88,30.65,4.43-8.17,6.72-17.96,10.27-28.32,11.81-7.54,1.33-13.64,4.79-20.01,8.04-15.15,7.43-29.57,15.22-43.62,23.63-10.71,4.81-23.35,9.73-32.04,18.1-6.93,6.37-15.62,12.47-19.41,21.43-7.35,21.7,2.19,45.68,16.46,62.24,12.36,14.34,23.28,33.88,39.74,44.35,2.52,3.04,28.87,13.26,21.78,16.1-20.56,6.63-42.62-5.58-58.67-17.3-12.32-6.91-24.26-14.63-35.74-22.71-6.9-3.62-16.26-7.32-23.17-9.9-13.14-2.62-26.7-2.3-40.04-2.93" vector-effect="none" fill="none" stroke="#000" stroke-miterlimit="10"/><path d="M21.69,131.91c11.3,1.67,21.9-1.25,32.47-4.99,10.96-4.73,22.05.12,33.43-.36,9.12-.7,19.09-4.44,28.37-5.03,9.35-.13,17.76,5.37,27.21,6.17,15.43,1.82,34.74-.42,49.53-.51,12.72,1.25,21.84-8.64,30.62-16.16,4.95-2.65,10.93-1.29,16.46-1.26,15.88-.72,32.78-1.68,47.81-8.55,11.65-2.62,23.17-15.21,35.31-8.85,17.31,14.01-13.76,30.97,38.08,34.96,37.05-6.63,28.34,8.05,56.33,6.27,7.25-.21,29.29-1.05,20.11,10.48-11.01,7.3-25.17,7.7-37.71,10.45-10.15,4.45-5.21,20.36-19.29,20.27-7.85-.05-14.09-.2-21.98,1.97-23.91,5.41-49.13,4.75-72.36,13.24-9.23,4.84-17.76,11.73-27.71,15.62-25.03,8.8-48.68,16.98-71.13,30.29-8.73,4.27-17.87,10.98-22.66,20.04-9.5,19.65-8.82,42.59-2.74,63.18,7.38,14.34,18.27,29.6,33.17,37.13,9.61,4.94,17.53,10.84,27.84,14.32,13.61,3.75,26.81,9.04,37.47,18.27,17.07,18.12,40.91,29.22,59.55,45.35,2.69,2.11-3.38,1.48-4.9,1.66-7.65-.18-18.81.8-26.58-.02-11.59-2.27-22.75-10.92-35.37-10.21-25.15,3.18-52.37,19.82-76.86,5.13-13.3-6.97-30.64-19.46-46.35-23.39-6.17-1.24-13.08.93-19.32-.54-27.32-12.18-59.15-16.23-88.79-9.61" vector-effect="none" fill="none" stroke="#000" stroke-miterlimit="10"/><path d="M662.11,537.38c-5.1-4.33-8.5-10.19-11.66-16.24-5.01-6.97-10.11-14.22-14.53-21.67-12.69-17.24-12.96-19.01,8.94-21.54,8.42-.96,15.51-6.66,22.55-11.01" vector-effect="none" fill="none" stroke="#000" stroke-miterlimit="10"/></svg>