<svg xmlns="http://www.w3.org/2000/svg" viewBox="0 0 14 14" fill="currentColor">
  <defs>
    <radialGradient id="tree3-shadow">
      <stop offset="0" stop-color="#000" stop-opacity="0.45"/>
      <stop offset="0.55" stop-color="#000" stop-opacity="0.42"/>
      <stop offset="1" stop-color="#000" stop-opacity="0"/>
    </radialGradient>
  </defs>
  <!-- Baked drop shadow (never a CSS filter — it runs on ~1,700 <use>s). -->
  <ellipse cx="7" cy="9" rx="7.6" ry="7.0" fill="url(#tree3-shadow)"/>
  <!-- Canopy: artist path (0..64) scaled into the 14×14 tile, baked into the
       coords (no group transform). No fill → inherits .tree-layer green + states. -->
  <path d="M1.623,7.3606c0.1298,-0.9426,1.3823,-1.1303,1.0823,-2.0788,-0.2564,-0.554,-0.9003,-0.7288,-0.9755,-1.3954,-0.1445,-0.8028,0.3501,-0.7773,0.9947,-0.8735,0.7713,-0.6427,0.9764,-0.5588,2.0082,-0.6174,0.512,-0.1499,0.9745,0.1435,1.4934,0.1715,1.0378,0.0696,1.0458,-0.922,1.7502,-1.339,1.2712,-0.8004,1.647,0.6874,2.1264,1.6726,0.7053,0.7155,0.2893,0.8698,0.6158,1.5697,0.5397,0.5806,1.7564,0.5228,2.2814,1.1819,-0.0162,0.0964,-0.3622,0.2024,-0.5891,0.4898,-0.8368,0.9484,0.2987,1.353,0.1444,2.1175,-0.1278,0.4094,-0.7454,0.5974,-0.5882,1.0836,0.0833,0.2379,0.0015,0.4289,-0.1875,0.5771,-0.7471,0.6985,-1.122,1.9621,-1.9718,2.6033,-0.5315,0.1527,-1.5385,0.224,-2.1873,0.2622,-0.6853,-0.1144,-0.9383,-0.8388,-1.3806,-0.8938,-0.7097,-0.0761,-0.9574,1.1182,-1.6313,1.108,-0.7437,-0.1991,-0.2967,-1.265,-0.9037,-1.6323,-1.208,-0.3852,-1.6848,-1.3866,-2.4359,-2.4295,-0.5281,-0.8047,-0.2083,-1.1128,0.3541,-1.5774Z"/>
</svg>
