<svg xmlns="http://www.w3.org/2000/svg" viewBox="0 0 14 14" fill="currentColor">
  <defs>
    <radialGradient id="tree1-shadow">
      <stop offset="0" stop-color="#000" stop-opacity="0.45"/>
      <stop offset="0.55" stop-color="#000" stop-opacity="0.42"/>
      <stop offset="1" stop-color="#000" stop-opacity="0"/>
    </radialGradient>
  </defs>
  <!-- Baked drop shadow (never a CSS filter — it runs on ~1,700 <use>s). -->
  <ellipse cx="7" cy="9" rx="7.2" ry="6.8" fill="url(#tree1-shadow)"/>
  <!-- Canopy: artist path (0..64) scaled into the 14×14 tile, baked into the
       coords (no group transform). No fill → inherits .tree-layer green + states. -->
  <path d="M1.8598,6.8629c-0.3707,-1.4811,-0.8145,-0.8524,0.1069,-2.2659,0.0499,-0.9778,0.3062,-1.6124,1.0621,-2.117,1.0603,-0.8744,1.5793,-1.0267,2.8197,-0.7691,0.7001,-0.1431,1.3434,-0.8838,2.0627,-0.6111,0.783,0.4036,1.7562,0.6515,2.3838,1.2537,0.8829,0.5826,1.7482,0.2806,1.4746,1.8284,0.2624,0.9579,0.9885,1.6159,0.9652,2.6679,0.4648,0.9394,0.316,1.1629,-0.4447,1.9184,-0.3201,0.2936,-0.2948,0.7043,-0.3256,1.1227,0.0525,1.6736,-1.1842,1.2589,-2.2417,2.0262,-0.8164,0.72,-1.614,1.3532,-2.7102,0.8792,-1.1085,-0.3256,-2.2824,-0.1774,-3.1873,-1.103,-0.6444,-0.3481,-1.4004,-0.3773,-1.731,-1.1558,-0.3971,-0.2655,-0.6559,-0.4632,-0.6576,-1.0166,-0.1903,-0.9524,-0.711,-1.0023,-0.2505,-1.7085,0.1835,-0.3519,0.5729,-0.572,0.6736,-0.9493Z"/>
</svg>
