<svg xmlns="http://www.w3.org/2000/svg" viewBox="0 0 14 14" fill="currentColor">
  <defs>
    <radialGradient id="tree2-shadow">
      <stop offset="0" stop-color="#000" stop-opacity="0.45"/>
      <stop offset="0.55" stop-color="#000" stop-opacity="0.42"/>
      <stop offset="1" stop-color="#000" stop-opacity="0"/>
    </radialGradient>
  </defs>
  <!-- Baked drop shadow (never a CSS filter — it runs on ~1,700 <use>s). -->
  <ellipse cx="7" cy="9" rx="7.8" ry="7.2" fill="url(#tree2-shadow)"/>
  <!-- Canopy: artist path (0..64) scaled into the 14×14 tile, baked into the
       coords (no group transform). No fill → inherits .tree-layer green + states. -->
  <path d="M2.2051,7.0769c-0.0889,-0.4372,-0.8388,-0.7191,-0.6092,-1.1053,0.1799,-0.2212,0.4923,-0.341,0.6238,-0.6128,0.176,-0.6164,0.3739,-1.1203,0.7256,-1.6752,0.2479,-0.9148,0.3748,-0.9368,1.2226,-0.549,2.237,0.5631,0.0837,-3.0437,3.5752,-1.8307,1.482,0.2865,1.1219,0.7867,1.8424,1.7603,0.5873,0.5577,2.1583,0.2673,1.9072,1.4543,0.2153,0.7167,1.2622,-0.0117,1.1928,1.2872,0.2771,1.3855,-1.0246,1.4443,-0.7563,1.8479,0.2007,0.1457,1.0112,0.058,1.0708,0.304,-0.1866,0.3107,-1.1379,0.4186,-0.8465,0.9016,0.1818,0.254,0.7278,0.6547,0.7651,0.8175,0.0588,0.2471,-0.91,0.119,-1.1243,0.2172,-0.6405,0.176,-0.1524,1.1488,-0.6518,1.4943,-0.1505,0.1202,-0.3365,0.1415,-0.5544,0.1461,-0.5895,-0.0431,-1.0579,0.3236,-1.5214,0.6371,-0.623,0.4848,-0.9565,-0.1851,-1.5708,-0.0857,-0.7378,0.1231,-1.3883,0.8972,-2.1528,0.9539,-0.3265,-0.0734,-0.4661,-0.5331,-0.5949,-0.8243,-0.2702,-0.7305,-0.9608,-0.2174,-1.3282,-0.3811,-0.1911,-0.58,1.0807,-1.5444,-0.3166,-1.2794,-1.0422,-0.2303,0.1184,-1.1772,-1.866,-0.925,-0.9805,-0.2904,1.4231,-1.8237,0.9678,-2.5527Z"/>
</svg>
