<svg xmlns="http://www.w3.org/2000/svg" width="1200" height="1176" viewBox="0 0 1200 1176">
<rect width="1200" height="1176" fill="#f8f8f0"/>
<line x1="1005.9" y1="927.4" x2="1006.4" y2="794.9" stroke="#e63946" stroke-width="2"/>
<line x1="681.5" y1="807.5" x2="640.6" y2="764.3" stroke="#e63946" stroke-width="2"/>
<line x1="989.9" y1="240.9" x2="975.3" y2="189.5" stroke="#e63946" stroke-width="2"/>
<line x1="987.4" y1="268.1" x2="989.9" y2="240.9" stroke="#e63946" stroke-width="2"/>
<line x1="976.3" y1="291.2" x2="987.4" y2="268.1" stroke="#e63946" stroke-width="2"/>
<line x1="990.4" y1="357.6" x2="976.3" y2="291.2" stroke="#e63946" stroke-width="2"/>
<line x1="977.0" y1="383.8" x2="1016.1" y2="401.3" stroke="#e63946" stroke-width="2"/>
<line x1="873.1" y1="441.4" x2="907.1" y2="364.1" stroke="#e63946" stroke-width="2"/>
<line x1="907.1" y1="364.1" x2="844.6" y2="345.6" stroke="#e63946" stroke-width="2"/>
<line x1="1012.5" y1="380.6" x2="1016.1" y2="401.3" stroke="#e63946" stroke-width="2"/>
<line x1="990.4" y1="357.6" x2="1012.5" y2="380.6" stroke="#e63946" stroke-width="2"/>
<line x1="1010.4" y1="598.6" x2="1016.1" y2="401.3" stroke="#e63946" stroke-width="2"/>
<line x1="963.0" y1="480.4" x2="1013.7" y2="481.6" stroke="#e63946" stroke-width="2"/>
<line x1="952.3" y1="586.4" x2="1010.4" y2="598.6" stroke="#e63946" stroke-width="2"/>
<line x1="939.5" y1="591.6" x2="952.3" y2="586.4" stroke="#e63946" stroke-width="2"/>
<line x1="938.8" y1="608.7" x2="945.6" y2="501.0" stroke="#e63946" stroke-width="2"/>
<line x1="938.8" y1="608.7" x2="872.7" y2="600.6" stroke="#e63946" stroke-width="2"/>
<line x1="923.2" y1="483.2" x2="872.7" y2="600.6" stroke="#e63946" stroke-width="2"/>
<line x1="835.0" y1="583.9" x2="872.7" y2="600.6" stroke="#e63946" stroke-width="2"/>
<line x1="886.8" y1="467.1" x2="835.0" y2="583.9" stroke="#e63946" stroke-width="2"/>
<line x1="798.0" y1="567.6" x2="805.2" y2="551.2" stroke="#e63946" stroke-width="2"/>
<line x1="762.0" y1="532.1" x2="805.2" y2="551.2" stroke="#e63946" stroke-width="2"/>
<line x1="790.3" y1="601.9" x2="829.5" y2="666.1" stroke="#e63946" stroke-width="2"/>
<line x1="776.8" y1="722.5" x2="842.8" y2="651.9" stroke="#e63946" stroke-width="2"/>
<line x1="898.5" y1="267.8" x2="976.3" y2="291.2" stroke="#e63946" stroke-width="2"/>
<line x1="891.3" y1="241.8" x2="916.1" y2="185.7" stroke="#e63946" stroke-width="2"/>
<line x1="805.2" y1="551.2" x2="849.7" y2="450.7" stroke="#e63946" stroke-width="2"/>
<line x1="867.7" y1="621.9" x2="851.1" y2="757.8" stroke="#e63946" stroke-width="2"/>
<line x1="942.7" y1="631.0" x2="867.7" y2="621.9" stroke="#e63946" stroke-width="2"/>
<line x1="980.2" y1="635.6" x2="942.7" y2="631.0" stroke="#e63946" stroke-width="2"/>
<line x1="1011.8" y1="635.7" x2="980.7" y2="631.9" stroke="#e63946" stroke-width="2"/>
<line x1="905.2" y1="626.5" x2="888.6" y2="762.4" stroke="#e63946" stroke-width="2"/>
<line x1="942.7" y1="631.0" x2="926.1" y2="767.0" stroke="#e63946" stroke-width="2"/>
<line x1="980.7" y1="631.9" x2="963.6" y2="771.6" stroke="#e63946" stroke-width="2"/>
<line x1="838.1" y1="875.2" x2="813.7" y2="872.2" stroke="#e63946" stroke-width="2"/>
<line x1="770.8" y1="894.3" x2="813.7" y2="872.2" stroke="#e63946" stroke-width="2"/>
<line x1="1005.9" y1="927.4" x2="834.3" y2="906.4" stroke="#e63946" stroke-width="2"/>
<line x1="770.8" y1="894.3" x2="747.3" y2="889.0" stroke="#e63946" stroke-width="2"/>
<line x1="747.3" y1="889.0" x2="735.1" y2="831.9" stroke="#e63946" stroke-width="2"/>
<line x1="681.5" y1="807.5" x2="723.9" y2="849.2" stroke="#e63946" stroke-width="2"/>
<line x1="610.5" y1="719.8" x2="662.5" y2="750.9" stroke="#e63946" stroke-width="2"/>
<line x1="724.0" y1="673.3" x2="610.9" y2="707.1" stroke="#e63946" stroke-width="2"/>
<line x1="951.4" y1="920.8" x2="967.4" y2="790.1" stroke="#e63946" stroke-width="2"/>
<line x1="912.3" y1="916.0" x2="928.3" y2="785.4" stroke="#e63946" stroke-width="2"/>
<line x1="873.3" y1="911.2" x2="889.3" y2="780.6" stroke="#e63946" stroke-width="2"/>
<line x1="834.3" y1="906.4" x2="850.2" y2="775.8" stroke="#e63946" stroke-width="2"/>
<line x1="816.7" y1="767.8" x2="770.8" y2="894.3" stroke="#e63946" stroke-width="2"/>
<line x1="786.1" y1="752.7" x2="723.9" y2="849.2" stroke="#e63946" stroke-width="2"/>
<line x1="681.5" y1="807.5" x2="759.5" y2="731.1" stroke="#e63946" stroke-width="2"/>
<line x1="738.5" y1="704.2" x2="640.6" y2="764.3" stroke="#e63946" stroke-width="2"/>
<line x1="612.8" y1="643.1" x2="716.7" y2="639.9" stroke="#e63946" stroke-width="2"/>
<line x1="663.0" y1="602.3" x2="619.1" y2="570.7" stroke="#e63946" stroke-width="2"/>
<line x1="663.0" y1="602.3" x2="717.3" y2="603.5" stroke="#e63946" stroke-width="2"/>
<line x1="740.1" y1="537.1" x2="662.0" y2="502.6" stroke="#e63946" stroke-width="2"/>
<line x1="765.1" y1="480.7" x2="688.9" y2="447.0" stroke="#e63946" stroke-width="2"/>
<line x1="821.5" y1="353.2" x2="741.1" y2="317.7" stroke="#e63946" stroke-width="2"/>
<line x1="845.1" y1="300.0" x2="762.9" y2="263.7" stroke="#e63946" stroke-width="2"/>
<line x1="866.3" y1="252.2" x2="785.9" y2="206.5" stroke="#e63946" stroke-width="2"/>
<line x1="575.5" y1="416.5" x2="518.8" y2="500.1" stroke="#e63946" stroke-width="2"/>
<line x1="616.8" y1="444.5" x2="552.3" y2="539.3" stroke="#e63946" stroke-width="2"/>
<line x1="530.5" y1="386.0" x2="465.6" y2="481.5" stroke="#e63946" stroke-width="2"/>
<line x1="441.5" y1="484.4" x2="473.3" y2="359.5" stroke="#e63946" stroke-width="2"/>
<line x1="417.3" y1="485.1" x2="417.8" y2="354.2" stroke="#e63946" stroke-width="2"/>
<line x1="375.2" y1="354.0" x2="374.8" y2="462.8" stroke="#e63946" stroke-width="2"/>
<line x1="319.3" y1="353.8" x2="319.0" y2="441.0" stroke="#e63946" stroke-width="2"/>
<line x1="245.3" y1="362.0" x2="258.8" y2="419.5" stroke="#e63946" stroke-width="2"/>
<line x1="550.6" y1="555.9" x2="555.6" y2="548.6" stroke="#e63946" stroke-width="2"/>
<line x1="515.1" y1="355.9" x2="562.3" y2="260.8" stroke="#e63946" stroke-width="2"/>
<line x1="478.7" y1="342.3" x2="509.1" y2="225.2" stroke="#e63946" stroke-width="2"/>
<line x1="609.0" y1="303.2" x2="555.9" y2="381.4" stroke="#e63946" stroke-width="2"/>
<line x1="420.2" y1="231.4" x2="447.4" y2="245.5" stroke="#e63946" stroke-width="2"/>
<line x1="420.2" y1="231.4" x2="382.3" y2="238.5" stroke="#e63946" stroke-width="2"/>
<line x1="382.3" y1="238.5" x2="331.2" y2="262.7" stroke="#e63946" stroke-width="2"/>
<line x1="331.2" y1="262.7" x2="318.4" y2="256.9" stroke="#e63946" stroke-width="2"/>
<line x1="318.4" y1="256.9" x2="248.3" y2="280.2" stroke="#e63946" stroke-width="2"/>
<line x1="441.9" y1="336.6" x2="447.4" y2="245.5" stroke="#e63946" stroke-width="2"/>
<line x1="393.4" y1="236.4" x2="393.0" y2="336.1" stroke="#e63946" stroke-width="2"/>
<line x1="334.8" y1="261.0" x2="334.5" y2="335.9" stroke="#e63946" stroke-width="2"/>
<line x1="669.7" y1="294.9" x2="614.4" y2="421.1" stroke="#e63946" stroke-width="2"/>
<line x1="248.3" y1="280.2" x2="215.9" y2="277.5" stroke="#e63946" stroke-width="2"/>
<line x1="215.9" y1="277.5" x2="199.6" y2="292.0" stroke="#e63946" stroke-width="2"/>
<line x1="199.6" y1="292.0" x2="165.8" y2="298.7" stroke="#e63946" stroke-width="2"/>
<line x1="165.8" y1="298.7" x2="152.4" y2="314.4" stroke="#e63946" stroke-width="2"/>
<line x1="152.4" y1="314.4" x2="151.1" y2="340.1" stroke="#e63946" stroke-width="2"/>
<line x1="151.1" y1="340.1" x2="162.6" y2="373.8" stroke="#e63946" stroke-width="2"/>
<line x1="162.6" y1="373.8" x2="176.5" y2="390.2" stroke="#e63946" stroke-width="2"/>
<line x1="176.5" y1="390.2" x2="228.6" y2="411.9" stroke="#e63946" stroke-width="2"/>
<line x1="228.6" y1="411.9" x2="274.6" y2="423.5" stroke="#e63946" stroke-width="2"/>
<line x1="274.6" y1="423.5" x2="295.5" y2="439.0" stroke="#e63946" stroke-width="2"/>
<line x1="295.5" y1="439.0" x2="354.2" y2="444.0" stroke="#e63946" stroke-width="2"/>
<line x1="354.2" y1="444.0" x2="378.0" y2="465.7" stroke="#e63946" stroke-width="2"/>
<line x1="378.0" y1="465.7" x2="413.2" y2="485.2" stroke="#e63946" stroke-width="2"/>
<line x1="413.2" y1="485.2" x2="442.6" y2="484.4" stroke="#e63946" stroke-width="2"/>
<line x1="442.6" y1="484.4" x2="474.6" y2="480.4" stroke="#e63946" stroke-width="2"/>
<line x1="474.6" y1="480.4" x2="512.3" y2="484.5" stroke="#e63946" stroke-width="2"/>
<line x1="512.3" y1="484.5" x2="524.5" y2="514.0" stroke="#e63946" stroke-width="2"/>
<line x1="524.5" y1="514.0" x2="537.2" y2="527.5" stroke="#e63946" stroke-width="2"/>
<line x1="537.2" y1="527.5" x2="550.9" y2="535.2" stroke="#e63946" stroke-width="2"/>
<line x1="550.9" y1="535.2" x2="555.6" y2="548.6" stroke="#e63946" stroke-width="2"/>
<line x1="637.9" y1="367.5" x2="636.1" y2="351.4" stroke="#e63946" stroke-width="2"/>
<line x1="636.1" y1="351.4" x2="627.6" y2="326.8" stroke="#e63946" stroke-width="2"/>
<line x1="627.6" y1="326.8" x2="592.6" y2="282.4" stroke="#e63946" stroke-width="2"/>
<line x1="592.6" y1="282.4" x2="570.6" y2="266.1" stroke="#e63946" stroke-width="2"/>
<line x1="570.6" y1="266.1" x2="514.9" y2="230.5" stroke="#e63946" stroke-width="2"/>
<line x1="514.9" y1="230.5" x2="501.2" y2="217.9" stroke="#e63946" stroke-width="2"/>
<line x1="501.2" y1="217.9" x2="471.5" y2="212.9" stroke="#e63946" stroke-width="2"/>
<line x1="471.5" y1="212.9" x2="459.4" y2="231.7" stroke="#e63946" stroke-width="2"/>
<line x1="459.4" y1="231.7" x2="455.3" y2="249.6" stroke="#e63946" stroke-width="2"/>
<line x1="455.3" y1="249.6" x2="447.4" y2="245.5" stroke="#e63946" stroke-width="2"/>
<line x1="862.8" y1="304.5" x2="988.4" y2="348.0" stroke="#e63946" stroke-width="2"/>
<line x1="261.6" y1="275.7" x2="261.4" y2="335.6" stroke="#e63946" stroke-width="2"/>
<line x1="722.5" y1="306.1" x2="669.7" y2="294.9" stroke="#e63946" stroke-width="2"/>
<line x1="223.3" y1="342.6" x2="151.4" y2="335.1" stroke="#e63946" stroke-width="2"/>
<line x1="907.1" y1="364.1" x2="977.0" y2="383.8" stroke="#e63946" stroke-width="2"/>
<line x1="842.8" y1="651.9" x2="862.9" y2="661.4" stroke="#e63946" stroke-width="2"/>
<line x1="923.1" y1="463.5" x2="950.0" y2="402.6" stroke="#e63946" stroke-width="2"/>
<line x1="950.0" y1="402.6" x2="998.6" y2="393.4" stroke="#e63946" stroke-width="2"/>
<line x1="798.0" y1="567.6" x2="835.0" y2="583.9" stroke="#e63946" stroke-width="2"/>
<line x1="790.3" y1="601.9" x2="742.3" y2="577.3" stroke="#e63946" stroke-width="2"/>
<line x1="567.4" y1="620.7" x2="567.2" y2="629.8" stroke="#1d3557" stroke-width="3"/>
<line x1="1005.5" y1="1020.5" x2="601.4" y2="1022.8" stroke="#1d3557" stroke-width="3"/>
<line x1="785.8" y1="177.9" x2="421.4" y2="171.8" stroke="#1d3557" stroke-width="3"/>
<line x1="153.6" y1="171.6" x2="421.4" y2="171.8" stroke="#1d3557" stroke-width="3"/>
<line x1="153.6" y1="171.6" x2="152.7" y2="236.5" stroke="#1d3557" stroke-width="3"/>
<line x1="152.7" y1="236.5" x2="142.7" y2="437.0" stroke="#1d3557" stroke-width="3"/>
<line x1="569.2" y1="561.3" x2="165.0" y2="443.4" stroke="#1d3557" stroke-width="3"/>
<line x1="567.2" y1="629.8" x2="612.8" y2="643.1" stroke="#1d3557" stroke-width="3"/>
<line x1="569.2" y1="561.3" x2="567.4" y2="620.7" stroke="#1d3557" stroke-width="3"/>
<line x1="601.4" y1="1022.8" x2="612.8" y2="643.1" stroke="#1d3557" stroke-width="3"/>
<line x1="1006.5" y1="749.5" x2="1005.5" y2="1020.5" stroke="#1d3557" stroke-width="3"/>
<line x1="1015.0" y1="564.6" x2="1006.5" y2="749.5" stroke="#1d3557" stroke-width="3"/>
<line x1="1015.0" y1="564.6" x2="1022.3" y2="311.2" stroke="#1d3557" stroke-width="3"/>
<line x1="165.0" y1="443.4" x2="142.7" y2="437.0" stroke="#1d3557" stroke-width="3"/>
<line x1="796.4" y1="178.0" x2="785.8" y2="177.9" stroke="#1d3557" stroke-width="3"/>
<line x1="796.4" y1="178.0" x2="1025.7" y2="192.8" stroke="#1d3557" stroke-width="3"/>
<line x1="1022.3" y1="311.2" x2="1025.7" y2="192.8" stroke="#1d3557" stroke-width="3"/>
<line x1="636.3" y1="451.3" x2="530.3" y2="379.3" stroke="#457b9d" stroke-width="2"/>
<line x1="530.3" y1="379.3" x2="431.9" y2="348.8" stroke="#457b9d" stroke-width="2"/>
<line x1="431.9" y1="348.8" x2="260.5" y2="348.2" stroke="#457b9d" stroke-width="2"/>
<line x1="260.5" y1="348.2" x2="250.9" y2="352.6" stroke="#457b9d" stroke-width="2"/>
<line x1="250.9" y1="352.6" x2="250.9" y2="336.4" stroke="#457b9d" stroke-width="2"/>
<line x1="250.9" y1="336.4" x2="260.5" y2="341.0" stroke="#457b9d" stroke-width="2"/>
<line x1="260.5" y1="341.0" x2="431.9" y2="341.6" stroke="#457b9d" stroke-width="2"/>
<line x1="431.9" y1="341.6" x2="534.3" y2="373.3" stroke="#457b9d" stroke-width="2"/>
<line x1="534.3" y1="373.3" x2="640.4" y2="445.3" stroke="#457b9d" stroke-width="2"/>
<line x1="997.4" y1="798.7" x2="997.4" y2="794.8" stroke="#457b9d" stroke-width="2"/>
<line x1="997.4" y1="794.8" x2="991.0" y2="787.6" stroke="#457b9d" stroke-width="2"/>
<line x1="991.0" y1="787.6" x2="972.4" y2="785.3" stroke="#457b9d" stroke-width="2"/>
<line x1="972.4" y1="785.3" x2="850.9" y2="770.5" stroke="#457b9d" stroke-width="2"/>
<line x1="850.9" y1="770.5" x2="733.9" y2="564.5" stroke="#457b9d" stroke-width="2"/>
<line x1="733.9" y1="564.5" x2="793.5" y2="429.8" stroke="#457b9d" stroke-width="2"/>
<line x1="793.5" y1="429.8" x2="789.0" y2="417.9" stroke="#457b9d" stroke-width="2"/>
<line x1="789.0" y1="417.9" x2="734.2" y2="393.7" stroke="#457b9d" stroke-width="2"/>
<line x1="737.1" y1="387.1" x2="791.9" y2="411.3" stroke="#457b9d" stroke-width="2"/>
<line x1="791.9" y1="411.3" x2="803.7" y2="406.8" stroke="#457b9d" stroke-width="2"/>
<line x1="803.7" y1="406.8" x2="871.9" y2="252.8" stroke="#457b9d" stroke-width="2"/>
<line x1="871.9" y1="252.8" x2="881.8" y2="270.4" stroke="#457b9d" stroke-width="2"/>
<line x1="881.8" y1="270.4" x2="868.7" y2="277.8" stroke="#457b9d" stroke-width="2"/>
<line x1="868.7" y1="277.8" x2="810.3" y2="409.7" stroke="#457b9d" stroke-width="2"/>
<line x1="810.3" y1="409.7" x2="814.9" y2="421.5" stroke="#457b9d" stroke-width="2"/>
<line x1="814.9" y1="421.5" x2="929.0" y2="472.0" stroke="#457b9d" stroke-width="2"/>
<line x1="929.0" y1="472.0" x2="939.6" y2="471.8" stroke="#457b9d" stroke-width="2"/>
<line x1="939.6" y1="471.8" x2="933.1" y2="486.6" stroke="#457b9d" stroke-width="2"/>
<line x1="933.1" y1="486.6" x2="926.1" y2="478.6" stroke="#457b9d" stroke-width="2"/>
<line x1="926.1" y1="478.6" x2="812.0" y2="428.1" stroke="#457b9d" stroke-width="2"/>
<line x1="812.0" y1="428.1" x2="800.1" y2="432.7" stroke="#457b9d" stroke-width="2"/>
<line x1="800.1" y1="432.7" x2="740.5" y2="567.4" stroke="#457b9d" stroke-width="2"/>
<line x1="740.5" y1="567.4" x2="851.8" y2="763.3" stroke="#457b9d" stroke-width="2"/>
<line x1="851.8" y1="763.3" x2="973.4" y2="778.2" stroke="#457b9d" stroke-width="2"/>
<line x1="973.4" y1="778.2" x2="989.4" y2="780.2" stroke="#457b9d" stroke-width="2"/>
<line x1="989.4" y1="780.2" x2="997.5" y2="773.0" stroke="#457b9d" stroke-width="2"/>
<line x1="997.5" y1="773.0" x2="997.5" y2="769.6" stroke="#457b9d" stroke-width="2"/>
<line x1="737.1" y1="387.1" x2="719.5" y2="377.3" stroke="#457b9d" stroke-width="2"/>
<line x1="719.5" y1="377.3" x2="714.8" y2="363.9" stroke="#457b9d" stroke-width="2"/>
<line x1="734.2" y1="393.7" x2="716.1" y2="387.7" stroke="#457b9d" stroke-width="2"/>
<line x1="716.1" y1="387.7" x2="702.7" y2="393.9" stroke="#457b9d" stroke-width="2"/>
<line x1="636.3" y1="451.3" x2="655.1" y2="466.2" stroke="#457b9d" stroke-width="2"/>
<line x1="655.1" y1="466.2" x2="658.0" y2="479.5" stroke="#457b9d" stroke-width="2"/>
<line x1="640.4" y1="445.3" x2="657.2" y2="454.5" stroke="#457b9d" stroke-width="2"/>
<line x1="657.2" y1="454.5" x2="672.2" y2="449.4" stroke="#457b9d" stroke-width="2"/>
<line x1="997.5" y1="769.6" x2="1004.7" y2="769.6" stroke="#457b9d" stroke-width="2"/>
<line x1="1004.7" y1="769.6" x2="1004.6" y2="798.7" stroke="#457b9d" stroke-width="2"/>
<line x1="1004.6" y1="798.7" x2="997.4" y2="798.7" stroke="#457b9d" stroke-width="2"/>
<line x1="789.7" y1="177.9" x2="686.8" y2="433.4" stroke="#457b9d" stroke-width="2"/>
<line x1="686.8" y1="433.4" x2="600.1" y2="584.4" stroke="#457b9d" stroke-width="2"/>
<line x1="600.1" y1="584.4" x2="567.3" y2="626.8" stroke="#457b9d" stroke-width="2"/>
<line x1="567.6" y1="614.6" x2="594.4" y2="580.0" stroke="#457b9d" stroke-width="2"/>
<line x1="594.4" y1="580.0" x2="680.1" y2="430.7" stroke="#457b9d" stroke-width="2"/>
<line x1="680.1" y1="430.7" x2="782.0" y2="177.8" stroke="#457b9d" stroke-width="2"/>
<line x1="567.6" y1="614.6" x2="567.3" y2="626.8" stroke="#457b9d" stroke-width="2"/>
<line x1="782.0" y1="177.8" x2="789.7" y2="177.9" stroke="#457b9d" stroke-width="2"/>
<line x1="662.4" y1="453.7" x2="537.3" y2="368.9" stroke="#f4a261" stroke-width="1.5"/>
<line x1="537.3" y1="368.9" x2="431.9" y2="336.2" stroke="#f4a261" stroke-width="1.5"/>
<line x1="431.9" y1="336.2" x2="261.4" y2="335.6" stroke="#f4a261" stroke-width="1.5"/>
<line x1="261.4" y1="335.6" x2="254.7" y2="332.6" stroke="#f4a261" stroke-width="1.5"/>
<line x1="254.7" y1="332.6" x2="254.6" y2="356.5" stroke="#f4a261" stroke-width="1.5"/>
<line x1="254.6" y1="356.5" x2="261.3" y2="353.6" stroke="#f4a261" stroke-width="1.5"/>
<line x1="261.3" y1="353.6" x2="431.9" y2="354.2" stroke="#f4a261" stroke-width="1.5"/>
<line x1="431.9" y1="354.2" x2="527.2" y2="383.7" stroke="#f4a261" stroke-width="1.5"/>
<line x1="527.2" y1="383.7" x2="654.6" y2="470.2" stroke="#f4a261" stroke-width="1.5"/>
<line x1="558.9" y1="614.1" x2="588.7" y2="575.6" stroke="#f4a261" stroke-width="1.5"/>
<line x1="588.7" y1="575.6" x2="673.4" y2="428.0" stroke="#f4a261" stroke-width="1.5"/>
<line x1="673.4" y1="428.0" x2="774.3" y2="177.7" stroke="#f4a261" stroke-width="1.5"/>
<line x1="558.9" y1="614.1" x2="530.9" y2="650.3" stroke="#f4a261" stroke-width="1.5"/>
<line x1="572.8" y1="631.5" x2="547.9" y2="663.5" stroke="#f4a261" stroke-width="1.5"/>
<line x1="774.4" y1="177.7" x2="785.9" y2="146.7" stroke="#f4a261" stroke-width="1.5"/>
<line x1="785.9" y1="146.7" x2="798.1" y2="110.0" stroke="#f4a261" stroke-width="1.5"/>
<line x1="797.3" y1="178.1" x2="806.3" y2="153.8" stroke="#f4a261" stroke-width="1.5"/>
<line x1="806.3" y1="153.8" x2="818.6" y2="116.8" stroke="#f4a261" stroke-width="1.5"/>
<line x1="867.0" y1="250.6" x2="882.0" y2="275.9" stroke="#f4a261" stroke-width="1.5"/>
<line x1="882.0" y1="275.9" x2="873.1" y2="281.2" stroke="#f4a261" stroke-width="1.5"/>
<line x1="873.1" y1="281.2" x2="817.4" y2="406.9" stroke="#f4a261" stroke-width="1.5"/>
<line x1="817.4" y1="406.9" x2="822.0" y2="418.8" stroke="#f4a261" stroke-width="1.5"/>
<line x1="822.0" y1="418.8" x2="930.4" y2="466.7" stroke="#f4a261" stroke-width="1.5"/>
<line x1="930.4" y1="466.7" x2="937.8" y2="466.7" stroke="#f4a261" stroke-width="1.5"/>
<line x1="937.8" y1="466.7" x2="928.1" y2="488.6" stroke="#f4a261" stroke-width="1.5"/>
<line x1="928.1" y1="488.6" x2="923.2" y2="483.2" stroke="#f4a261" stroke-width="1.5"/>
<line x1="923.2" y1="483.2" x2="814.7" y2="435.2" stroke="#f4a261" stroke-width="1.5"/>
<line x1="814.7" y1="435.2" x2="802.9" y2="439.8" stroke="#f4a261" stroke-width="1.5"/>
<line x1="802.9" y1="439.8" x2="745.4" y2="569.6" stroke="#f4a261" stroke-width="1.5"/>
<line x1="745.4" y1="569.6" x2="852.4" y2="758.0" stroke="#f4a261" stroke-width="1.5"/>
<line x1="852.4" y1="758.0" x2="1006.4" y2="776.8" stroke="#f4a261" stroke-width="1.5"/>
<line x1="712.1" y1="389.8" x2="781.8" y2="420.7" stroke="#f4a261" stroke-width="1.5"/>
<line x1="781.8" y1="420.7" x2="786.4" y2="432.5" stroke="#f4a261" stroke-width="1.5"/>
<line x1="786.4" y1="432.5" x2="728.9" y2="562.3" stroke="#f4a261" stroke-width="1.5"/>
<line x1="728.9" y1="562.3" x2="850.2" y2="775.8" stroke="#f4a261" stroke-width="1.5"/>
<line x1="850.2" y1="775.8" x2="1006.4" y2="794.9" stroke="#f4a261" stroke-width="1.5"/>
<line x1="701.9" y1="412.8" x2="756.8" y2="437.1" stroke="#f4a261" stroke-width="1.5"/>
<line x1="756.8" y1="437.1" x2="705.9" y2="552.1" stroke="#f4a261" stroke-width="1.5"/>
<line x1="705.9" y1="552.1" x2="847.2" y2="800.8" stroke="#f4a261" stroke-width="1.5"/>
<line x1="847.2" y1="800.8" x2="1003.3" y2="819.9" stroke="#f4a261" stroke-width="1.5"/>
<line x1="867.0" y1="250.6" x2="801.0" y2="399.7" stroke="#f4a261" stroke-width="1.5"/>
<line x1="801.0" y1="399.7" x2="789.1" y2="404.2" stroke="#f4a261" stroke-width="1.5"/>
<line x1="789.1" y1="404.2" x2="718.8" y2="373.1" stroke="#f4a261" stroke-width="1.5"/>
<line x1="572.8" y1="631.5" x2="605.8" y2="588.8" stroke="#f4a261" stroke-width="1.5"/>
<line x1="605.8" y1="588.8" x2="693.4" y2="436.1" stroke="#f4a261" stroke-width="1.5"/>
<line x1="693.4" y1="436.1" x2="797.4" y2="178.1" stroke="#f4a261" stroke-width="1.5"/>
<line x1="1005.5" y1="1020.5" x2="1005.5" y2="1039.3" stroke="#999999" stroke-width="1"/>
<line x1="1005.5" y1="1039.3" x2="1025.8" y2="1039.6" stroke="#999999" stroke-width="1"/>
<line x1="1025.8" y1="1039.6" x2="985.3" y2="1046.3" stroke="#999999" stroke-width="1"/>
<line x1="985.3" y1="1046.3" x2="1005.5" y2="1046.0" stroke="#999999" stroke-width="1"/>
<line x1="1005.5" y1="1046.0" x2="1005.5" y2="1057.6" stroke="#999999" stroke-width="1"/>
<line x1="553.7" y1="621.0" x2="567.9" y2="602.7" stroke="#999999" stroke-width="1"/>
<line x1="552.9" y1="656.7" x2="572.4" y2="631.6" stroke="#999999" stroke-width="1"/>
<line x1="916.5" y1="138.9" x2="913.5" y2="185.6" stroke="#999999" stroke-width="1"/>
<line x1="1147.7" y1="519.4" x2="1016.4" y2="515.6" stroke="#999999" stroke-width="1"/>
<line x1="1149.0" y1="476.3" x2="1017.7" y2="472.5" stroke="#999999" stroke-width="1"/>
<line x1="1150.2" y1="433.2" x2="1018.9" y2="429.4" stroke="#999999" stroke-width="1"/>
<line x1="1151.3" y1="393.6" x2="1020.1" y2="389.9" stroke="#999999" stroke-width="1"/>
<line x1="1152.5" y1="354.1" x2="1021.2" y2="350.3" stroke="#999999" stroke-width="1"/>
<line x1="1153.6" y1="314.6" x2="1022.3" y2="310.8" stroke="#999999" stroke-width="1"/>
<line x1="739.8" y1="1072.0" x2="739.7" y2="1022.0" stroke="#999999" stroke-width="1"/>
<line x1="826.1" y1="1021.5" x2="883.6" y2="1158.0" stroke="#999999" stroke-width="1"/>
<line x1="919.6" y1="1021.0" x2="884.3" y2="1150.5" stroke="#999999" stroke-width="1"/>
<line x1="1005.7" y1="1088.6" x2="884.3" y2="1150.5" stroke="#999999" stroke-width="1"/>
<line x1="515.5" y1="687.4" x2="609.8" y2="743.6" stroke="#999999" stroke-width="1"/>
<line x1="479.5" y1="733.6" x2="607.8" y2="810.1" stroke="#999999" stroke-width="1"/>
<line x1="446.8" y1="779.1" x2="530.9" y2="832.2" stroke="#999999" stroke-width="1"/>
<line x1="530.9" y1="832.2" x2="605.8" y2="876.9" stroke="#999999" stroke-width="1"/>
<line x1="592.2" y1="1028.7" x2="601.4" y2="1022.9" stroke="#999999" stroke-width="1"/>
<line x1="164.9" y1="443.4" x2="130.2" y2="567.7" stroke="#999999" stroke-width="1"/>
<line x1="211.6" y1="457.0" x2="177.0" y2="580.8" stroke="#999999" stroke-width="1"/>
<line x1="258.2" y1="470.6" x2="223.8" y2="593.8" stroke="#999999" stroke-width="1"/>
<line x1="304.8" y1="484.2" x2="270.5" y2="606.9" stroke="#999999" stroke-width="1"/>
<line x1="351.5" y1="497.8" x2="317.3" y2="620.0" stroke="#999999" stroke-width="1"/>
<line x1="401.5" y1="512.4" x2="368.1" y2="632.2" stroke="#999999" stroke-width="1"/>
<line x1="459.3" y1="529.3" x2="415.8" y2="637.1" stroke="#999999" stroke-width="1"/>
<line x1="148.1" y1="328.9" x2="49.2" y2="382.4" stroke="#999999" stroke-width="1"/>
<line x1="565.9" y1="1020.0" x2="502.6" y2="889.7" stroke="#999999" stroke-width="1"/>
<line x1="153.5" y1="171.8" x2="18.0" y2="171.7" stroke="#999999" stroke-width="1"/>
<line x1="813.4" y1="58.5" x2="774.2" y2="177.6" stroke="#999999" stroke-width="1"/>
<line x1="421.4" y1="171.9" x2="421.4" y2="18.0" stroke="#999999" stroke-width="1"/>
<line x1="152.7" y1="236.5" x2="71.7" y2="234.5" stroke="#999999" stroke-width="1"/>
<line x1="814.5" y1="128.6" x2="796.5" y2="178.0" stroke="#999999" stroke-width="1"/>
<line x1="1146.8" y1="564.3" x2="1015.0" y2="564.6" stroke="#999999" stroke-width="1"/>
<line x1="1006.5" y1="749.5" x2="1182.0" y2="743.2" stroke="#999999" stroke-width="1"/>
<line x1="506.1" y1="604.4" x2="445.1" y2="564.6" stroke="#999999" stroke-width="1"/>
<circle cx="1005.9" cy="927.4" r="3" fill="#e63946" opacity="0.5"/>
<circle cx="1006.4" cy="794.9" r="3" fill="#e63946" opacity="0.5"/>
<circle cx="681.5" cy="807.5" r="3" fill="#e63946" opacity="0.5"/>
<circle cx="640.6" cy="764.3" r="3" fill="#e63946" opacity="0.5"/>
<circle cx="989.9" cy="240.9" r="3" fill="#e63946" opacity="0.5"/>
<circle cx="975.3" cy="189.5" r="3" fill="#e63946" opacity="0.5"/>
<circle cx="987.4" cy="268.1" r="3" fill="#e63946" opacity="0.5"/>
<circle cx="989.9" cy="240.9" r="3" fill="#e63946" opacity="0.5"/>
<circle cx="976.3" cy="291.2" r="3" fill="#e63946" opacity="0.5"/>
<circle cx="987.4" cy="268.1" r="3" fill="#e63946" opacity="0.5"/>
<circle cx="990.4" cy="357.6" r="3" fill="#e63946" opacity="0.5"/>
<circle cx="976.3" cy="291.2" r="3" fill="#e63946" opacity="0.5"/>
<circle cx="977.0" cy="383.8" r="3" fill="#e63946" opacity="0.5"/>
<circle cx="1016.1" cy="401.3" r="3" fill="#e63946" opacity="0.5"/>
<circle cx="873.1" cy="441.4" r="3" fill="#e63946" opacity="0.5"/>
<circle cx="907.1" cy="364.1" r="3" fill="#e63946" opacity="0.5"/>
<circle cx="907.1" cy="364.1" r="3" fill="#e63946" opacity="0.5"/>
<circle cx="844.6" cy="345.6" r="3" fill="#e63946" opacity="0.5"/>
<circle cx="1012.5" cy="380.6" r="3" fill="#e63946" opacity="0.5"/>
<circle cx="1016.1" cy="401.3" r="3" fill="#e63946" opacity="0.5"/>
<circle cx="990.4" cy="357.6" r="3" fill="#e63946" opacity="0.5"/>
<circle cx="1012.5" cy="380.6" r="3" fill="#e63946" opacity="0.5"/>
<circle cx="1010.4" cy="598.6" r="3" fill="#e63946" opacity="0.5"/>
<circle cx="1016.1" cy="401.3" r="3" fill="#e63946" opacity="0.5"/>
<circle cx="963.0" cy="480.4" r="3" fill="#e63946" opacity="0.5"/>
<circle cx="1013.7" cy="481.6" r="3" fill="#e63946" opacity="0.5"/>
<circle cx="952.3" cy="586.4" r="3" fill="#e63946" opacity="0.5"/>
<circle cx="1010.4" cy="598.6" r="3" fill="#e63946" opacity="0.5"/>
<circle cx="939.5" cy="591.6" r="3" fill="#e63946" opacity="0.5"/>
<circle cx="952.3" cy="586.4" r="3" fill="#e63946" opacity="0.5"/>
<circle cx="938.8" cy="608.7" r="3" fill="#e63946" opacity="0.5"/>
<circle cx="945.6" cy="501.0" r="3" fill="#e63946" opacity="0.5"/>
<circle cx="938.8" cy="608.7" r="3" fill="#e63946" opacity="0.5"/>
<circle cx="872.7" cy="600.6" r="3" fill="#e63946" opacity="0.5"/>
<circle cx="923.2" cy="483.2" r="3" fill="#e63946" opacity="0.5"/>
<circle cx="872.7" cy="600.6" r="3" fill="#e63946" opacity="0.5"/>
<circle cx="835.0" cy="583.9" r="3" fill="#e63946" opacity="0.5"/>
<circle cx="872.7" cy="600.6" r="3" fill="#e63946" opacity="0.5"/>
<circle cx="886.8" cy="467.1" r="3" fill="#e63946" opacity="0.5"/>
<circle cx="835.0" cy="583.9" r="3" fill="#e63946" opacity="0.5"/>
<circle cx="798.0" cy="567.6" r="3" fill="#e63946" opacity="0.5"/>
<circle cx="805.2" cy="551.2" r="3" fill="#e63946" opacity="0.5"/>
<circle cx="762.0" cy="532.1" r="3" fill="#e63946" opacity="0.5"/>
<circle cx="805.2" cy="551.2" r="3" fill="#e63946" opacity="0.5"/>
<circle cx="790.3" cy="601.9" r="3" fill="#e63946" opacity="0.5"/>
<circle cx="829.5" cy="666.1" r="3" fill="#e63946" opacity="0.5"/>
<circle cx="776.8" cy="722.5" r="3" fill="#e63946" opacity="0.5"/>
<circle cx="842.8" cy="651.9" r="3" fill="#e63946" opacity="0.5"/>
<circle cx="898.5" cy="267.8" r="3" fill="#e63946" opacity="0.5"/>
<circle cx="976.3" cy="291.2" r="3" fill="#e63946" opacity="0.5"/>
<circle cx="891.3" cy="241.8" r="3" fill="#e63946" opacity="0.5"/>
<circle cx="916.1" cy="185.7" r="3" fill="#e63946" opacity="0.5"/>
<circle cx="805.2" cy="551.2" r="3" fill="#e63946" opacity="0.5"/>
<circle cx="849.7" cy="450.7" r="3" fill="#e63946" opacity="0.5"/>
<circle cx="867.7" cy="621.9" r="3" fill="#e63946" opacity="0.5"/>
<circle cx="851.1" cy="757.8" r="3" fill="#e63946" opacity="0.5"/>
<circle cx="942.7" cy="631.0" r="3" fill="#e63946" opacity="0.5"/>
<circle cx="867.7" cy="621.9" r="3" fill="#e63946" opacity="0.5"/>
<circle cx="980.2" cy="635.6" r="3" fill="#e63946" opacity="0.5"/>
<circle cx="942.7" cy="631.0" r="3" fill="#e63946" opacity="0.5"/>
<circle cx="1011.8" cy="635.7" r="3" fill="#e63946" opacity="0.5"/>
<circle cx="980.7" cy="631.9" r="3" fill="#e63946" opacity="0.5"/>
<circle cx="905.2" cy="626.5" r="3" fill="#e63946" opacity="0.5"/>
<circle cx="888.6" cy="762.4" r="3" fill="#e63946" opacity="0.5"/>
<circle cx="942.7" cy="631.0" r="3" fill="#e63946" opacity="0.5"/>
<circle cx="926.1" cy="767.0" r="3" fill="#e63946" opacity="0.5"/>
<circle cx="980.7" cy="631.9" r="3" fill="#e63946" opacity="0.5"/>
<circle cx="963.6" cy="771.6" r="3" fill="#e63946" opacity="0.5"/>
<circle cx="838.1" cy="875.2" r="3" fill="#e63946" opacity="0.5"/>
<circle cx="813.7" cy="872.2" r="3" fill="#e63946" opacity="0.5"/>
<circle cx="770.8" cy="894.3" r="3" fill="#e63946" opacity="0.5"/>
<circle cx="813.7" cy="872.2" r="3" fill="#e63946" opacity="0.5"/>
<circle cx="1005.9" cy="927.4" r="3" fill="#e63946" opacity="0.5"/>
<circle cx="834.3" cy="906.4" r="3" fill="#e63946" opacity="0.5"/>
<circle cx="770.8" cy="894.3" r="3" fill="#e63946" opacity="0.5"/>
<circle cx="747.3" cy="889.0" r="3" fill="#e63946" opacity="0.5"/>
<circle cx="747.3" cy="889.0" r="3" fill="#e63946" opacity="0.5"/>
<circle cx="735.1" cy="831.9" r="3" fill="#e63946" opacity="0.5"/>
<circle cx="681.5" cy="807.5" r="3" fill="#e63946" opacity="0.5"/>
<circle cx="723.9" cy="849.2" r="3" fill="#e63946" opacity="0.5"/>
<circle cx="610.5" cy="719.8" r="3" fill="#e63946" opacity="0.5"/>
<circle cx="662.5" cy="750.9" r="3" fill="#e63946" opacity="0.5"/>
<circle cx="724.0" cy="673.3" r="3" fill="#e63946" opacity="0.5"/>
<circle cx="610.9" cy="707.1" r="3" fill="#e63946" opacity="0.5"/>
<circle cx="951.4" cy="920.8" r="3" fill="#e63946" opacity="0.5"/>
<circle cx="967.4" cy="790.1" r="3" fill="#e63946" opacity="0.5"/>
<circle cx="912.3" cy="916.0" r="3" fill="#e63946" opacity="0.5"/>
<circle cx="928.3" cy="785.4" r="3" fill="#e63946" opacity="0.5"/>
<circle cx="873.3" cy="911.2" r="3" fill="#e63946" opacity="0.5"/>
<circle cx="889.3" cy="780.6" r="3" fill="#e63946" opacity="0.5"/>
<circle cx="834.3" cy="906.4" r="3" fill="#e63946" opacity="0.5"/>
<circle cx="850.2" cy="775.8" r="3" fill="#e63946" opacity="0.5"/>
<circle cx="816.7" cy="767.8" r="3" fill="#e63946" opacity="0.5"/>
<circle cx="770.8" cy="894.3" r="3" fill="#e63946" opacity="0.5"/>
<circle cx="786.1" cy="752.7" r="3" fill="#e63946" opacity="0.5"/>
<circle cx="723.9" cy="849.2" r="3" fill="#e63946" opacity="0.5"/>
<circle cx="681.5" cy="807.5" r="3" fill="#e63946" opacity="0.5"/>
<circle cx="759.5" cy="731.1" r="3" fill="#e63946" opacity="0.5"/>
<circle cx="738.5" cy="704.2" r="3" fill="#e63946" opacity="0.5"/>
<circle cx="640.6" cy="764.3" r="3" fill="#e63946" opacity="0.5"/>
<circle cx="612.8" cy="643.1" r="3" fill="#e63946" opacity="0.5"/>
<circle cx="716.7" cy="639.9" r="3" fill="#e63946" opacity="0.5"/>
<circle cx="663.0" cy="602.3" r="3" fill="#e63946" opacity="0.5"/>
<circle cx="619.1" cy="570.7" r="3" fill="#e63946" opacity="0.5"/>
<circle cx="663.0" cy="602.3" r="3" fill="#e63946" opacity="0.5"/>
<circle cx="717.3" cy="603.5" r="3" fill="#e63946" opacity="0.5"/>
<circle cx="740.1" cy="537.1" r="3" fill="#e63946" opacity="0.5"/>
<circle cx="662.0" cy="502.6" r="3" fill="#e63946" opacity="0.5"/>
<circle cx="765.1" cy="480.7" r="3" fill="#e63946" opacity="0.5"/>
<circle cx="688.9" cy="447.0" r="3" fill="#e63946" opacity="0.5"/>
<circle cx="821.5" cy="353.2" r="3" fill="#e63946" opacity="0.5"/>
<circle cx="741.1" cy="317.7" r="3" fill="#e63946" opacity="0.5"/>
<circle cx="845.1" cy="300.0" r="3" fill="#e63946" opacity="0.5"/>
<circle cx="762.9" cy="263.7" r="3" fill="#e63946" opacity="0.5"/>
<circle cx="866.3" cy="252.2" r="3" fill="#e63946" opacity="0.5"/>
<circle cx="785.9" cy="206.5" r="3" fill="#e63946" opacity="0.5"/>
<circle cx="575.5" cy="416.5" r="3" fill="#e63946" opacity="0.5"/>
<circle cx="518.8" cy="500.1" r="3" fill="#e63946" opacity="0.5"/>
<circle cx="616.8" cy="444.5" r="3" fill="#e63946" opacity="0.5"/>
<circle cx="552.3" cy="539.3" r="3" fill="#e63946" opacity="0.5"/>
<circle cx="530.5" cy="386.0" r="3" fill="#e63946" opacity="0.5"/>
<circle cx="465.6" cy="481.5" r="3" fill="#e63946" opacity="0.5"/>
<circle cx="441.5" cy="484.4" r="3" fill="#e63946" opacity="0.5"/>
<circle cx="473.3" cy="359.5" r="3" fill="#e63946" opacity="0.5"/>
<circle cx="417.3" cy="485.1" r="3" fill="#e63946" opacity="0.5"/>
<circle cx="417.8" cy="354.2" r="3" fill="#e63946" opacity="0.5"/>
<circle cx="375.2" cy="354.0" r="3" fill="#e63946" opacity="0.5"/>
<circle cx="374.8" cy="462.8" r="3" fill="#e63946" opacity="0.5"/>
<circle cx="319.3" cy="353.8" r="3" fill="#e63946" opacity="0.5"/>
<circle cx="319.0" cy="441.0" r="3" fill="#e63946" opacity="0.5"/>
<circle cx="245.3" cy="362.0" r="3" fill="#e63946" opacity="0.5"/>
<circle cx="258.8" cy="419.5" r="3" fill="#e63946" opacity="0.5"/>
<circle cx="550.6" cy="555.9" r="3" fill="#e63946" opacity="0.5"/>
<circle cx="555.6" cy="548.6" r="3" fill="#e63946" opacity="0.5"/>
<circle cx="515.1" cy="355.9" r="3" fill="#e63946" opacity="0.5"/>
<circle cx="562.3" cy="260.8" r="3" fill="#e63946" opacity="0.5"/>
<circle cx="478.7" cy="342.3" r="3" fill="#e63946" opacity="0.5"/>
<circle cx="509.1" cy="225.2" r="3" fill="#e63946" opacity="0.5"/>
<circle cx="609.0" cy="303.2" r="3" fill="#e63946" opacity="0.5"/>
<circle cx="555.9" cy="381.4" r="3" fill="#e63946" opacity="0.5"/>
<circle cx="420.2" cy="231.4" r="3" fill="#e63946" opacity="0.5"/>
<circle cx="447.4" cy="245.5" r="3" fill="#e63946" opacity="0.5"/>
<circle cx="420.2" cy="231.4" r="3" fill="#e63946" opacity="0.5"/>
<circle cx="248.3" cy="280.2" r="3" fill="#e63946" opacity="0.5"/>
<circle cx="441.9" cy="336.6" r="3" fill="#e63946" opacity="0.5"/>
<circle cx="447.4" cy="245.5" r="3" fill="#e63946" opacity="0.5"/>
<circle cx="393.4" cy="236.4" r="3" fill="#e63946" opacity="0.5"/>
<circle cx="393.0" cy="336.1" r="3" fill="#e63946" opacity="0.5"/>
<circle cx="334.8" cy="261.0" r="3" fill="#e63946" opacity="0.5"/>
<circle cx="334.5" cy="335.9" r="3" fill="#e63946" opacity="0.5"/>
<circle cx="669.7" cy="294.9" r="3" fill="#e63946" opacity="0.5"/>
<circle cx="614.4" cy="421.1" r="3" fill="#e63946" opacity="0.5"/>
<circle cx="248.3" cy="280.2" r="3" fill="#e63946" opacity="0.5"/>
<circle cx="555.6" cy="548.6" r="3" fill="#e63946" opacity="0.5"/>
<circle cx="637.9" cy="367.5" r="3" fill="#e63946" opacity="0.5"/>
<circle cx="447.4" cy="245.5" r="3" fill="#e63946" opacity="0.5"/>
<circle cx="862.8" cy="304.5" r="3" fill="#e63946" opacity="0.5"/>
<circle cx="988.4" cy="348.0" r="3" fill="#e63946" opacity="0.5"/>
<circle cx="261.6" cy="275.7" r="3" fill="#e63946" opacity="0.5"/>
<circle cx="261.4" cy="335.6" r="3" fill="#e63946" opacity="0.5"/>
<circle cx="722.5" cy="306.1" r="3" fill="#e63946" opacity="0.5"/>
<circle cx="669.7" cy="294.9" r="3" fill="#e63946" opacity="0.5"/>
<circle cx="223.3" cy="342.6" r="3" fill="#e63946" opacity="0.5"/>
<circle cx="151.4" cy="335.1" r="3" fill="#e63946" opacity="0.5"/>
<circle cx="907.1" cy="364.1" r="3" fill="#e63946" opacity="0.5"/>
<circle cx="977.0" cy="383.8" r="3" fill="#e63946" opacity="0.5"/>
<circle cx="842.8" cy="651.9" r="3" fill="#e63946" opacity="0.5"/>
<circle cx="862.9" cy="661.4" r="3" fill="#e63946" opacity="0.5"/>
<circle cx="923.1" cy="463.5" r="3" fill="#e63946" opacity="0.5"/>
<circle cx="950.0" cy="402.6" r="3" fill="#e63946" opacity="0.5"/>
<circle cx="950.0" cy="402.6" r="3" fill="#e63946" opacity="0.5"/>
<circle cx="998.6" cy="393.4" r="3" fill="#e63946" opacity="0.5"/>
<circle cx="798.0" cy="567.6" r="3" fill="#e63946" opacity="0.5"/>
<circle cx="835.0" cy="583.9" r="3" fill="#e63946" opacity="0.5"/>
<circle cx="790.3" cy="601.9" r="3" fill="#e63946" opacity="0.5"/>
<circle cx="742.3" cy="577.3" r="3" fill="#e63946" opacity="0.5"/>
<g transform="translate(20,20)">
<line x1="0" y1="8" x2="30" y2="8" stroke="#e63946" stroke-width="2"/>
<text x="36" y="12" font-size="12" fill="#333">Lot lines (ce-prop-llot)</text>
<line x1="0" y1="30" x2="30" y2="30" stroke="#1d3557" stroke-width="3"/>
<text x="36" y="34" font-size="12" fill="#333">Property boundary (ce-prop-main)</text>
<line x1="0" y1="52" x2="30" y2="52" stroke="#457b9d" stroke-width="2"/>
<text x="36" y="56" font-size="12" fill="#333">Road edges (ce-road-edge)</text>
<line x1="0" y1="74" x2="30" y2="74" stroke="#f4a261" stroke-width="1.5"/>
<text x="36" y="78" font-size="12" fill="#333">Rights of way (ce-prop-rway)</text>
<line x1="0" y1="96" x2="30" y2="96" stroke="#999999" stroke-width="1"/>
<text x="36" y="100" font-size="12" fill="#333">Adjacent (ce-prop-adjc)</text>
</g>
</svg>