<?xml version="1.0" encoding="UTF-8"?><svg id="a" xmlns="http://www.w3.org/2000/svg" width="1.32in" height=".33in" viewBox="0 0 94.75 23.65"><path d="M62.75,8.24h-7.45c-.64,0-1.16.52-1.16,1.16h0c0,.64.52,1.16,1.16,1.16h7.45c.64,0,1.16-.52,1.16-1.16s-.52-1.16-1.16-1.16Z" fill="#bd3528"/><path d="M0,.09v23.56h94.75V.09H0ZM23.29,18.21c0,1.46-1.18,2.64-2.64,2.64H5.48c-1.45,0-2.63-1.18-2.64-2.63l-.02-7.33h5.27v3.54c0,.64.52,1.16,1.16,1.16h7.62c.64,0,1.16-.52,1.16-1.16v-6.24h-2.68V2.92h7.94v15.29ZM46.05,18.19c0,1.46-1.18,2.64-2.64,2.64h-17.79V2.94h5.27v12.64h1.17c.64,0,1.16-.52,1.16-1.16v-6.24h5.27v7.39h1.14c.64,0,1.16-.52,1.16-1.16V2.92h5.27v15.27ZM69.17,20.83h-5.27v-3.79c0-.64-.52-1.16-1.16-1.16h-8.77v4.95h-5.27V2.92s17.83,0,17.83,0c1.46,0,2.64,1.18,2.64,2.64v2.37c0,1.46-1.18,2.64-2.64,2.64h0c1.46,0,2.64,1.18,2.64,2.64v7.62ZM91.93,8.48h-14.02c-.64,0-1.16.52-1.16,1.16v4.76c0,.64.52,1.16,1.16,1.16h8.75v-4.76h5.27v10.02h-3.15s-14.66,0-14.66,0c-1.46,0-2.64-1.18-2.64-2.64V5.85c0-1.46,1.18-2.64,2.64-2.64h17.8v5.27Z" fill="#bd3528"/></svg>