<?xml version="1.0" encoding="UTF-8"?><svg id="a" xmlns="http://www.w3.org/2000/svg" width="1.32in" height=".33in" viewBox="0 0 94.75 23.65"><path d="M46.05,2.86v15.27c0,1.46-1.18,2.64-2.64,2.64h-17.79V2.88h5.27v12.64h1.17c.64,0,1.16-.52,1.16-1.16v-6.24h5.27v7.39h1.14c.64,0,1.16-.52,1.16-1.16V2.86h5.27ZM15.35,2.86v5.27h2.68v6.24c0,.64-.52,1.16-1.16,1.16h-7.62c-.64,0-1.16-.52-1.16-1.16v-3.54H2.82l.02,7.33c0,1.45,1.18,2.63,2.64,2.63h15.17c1.46,0,2.64-1.18,2.64-2.64V2.86h-7.94ZM66.53,10.51h0c1.46,0,2.64-1.18,2.64-2.64v-2.37c0-1.46-1.18-2.64-2.64-2.64h-17.84v17.91h5.28v-4.95h8.77c.64,0,1.16.52,1.16,1.16v3.79h5.27v-7.62c0-1.46-1.18-2.64-2.64-2.64ZM62.75,10.5h-7.45c-.64,0-1.16-.52-1.16-1.16h0c0-.64.52-1.16,1.16-1.16h7.45c.64,0,1.16.52,1.16,1.16s-.52,1.16-1.16,1.16ZM91.93,10.74h-5.27v4.76h-8.75c-.64,0-1.16-.52-1.16-1.16v-4.76c0-.64.52-1.16,1.16-1.16h14.02V3.16h-17.8c-1.46,0-2.64,1.18-2.64,2.64v12.33c0,1.46,1.18,2.64,2.64,2.64h17.8v-10.02Z" fill="#fcca82"/></svg>