<?xml version="1.0" encoding="UTF-8"?>
<svg id="map-svg" preserveAspectRatio="xMidYMid meet" xmlns="http://www.w3.org/2000/svg" version="1.1" xmlns:xlink="http://www.w3.org/1999/xlink" viewBox="-208.57145270231706 -77.9658773912502 1445.253378439806 1165.526918096618" class="">
  <!-- Generator: Adobe Illustrator 29.6.0, SVG Export Plug-In . SVG Version: 2.1.1 Build 207)  -->
  <defs>
    <style>
      .st0 {
        fill: url(#linear-gradient2);
      }

      .st1, .st2, .st3 {
        fill: none;
        stroke: currentColor;
        stroke-miterlimit: 10;
      }

      .st4 {
        fill: #eae6dc;
      }

      .st5 {
        fill: #fff;
      }

      .st6 {
        mask: url(#mask);
      }

      .st7 {
        fill: url(#linear-gradient1);
      }

      .st2 {
        stroke-width: 2px;
      }

      .st3, .st8 {
        isolation: isolate;
      }

      .st3, .st9 {
        font-family: ArialMT, Arial;
        font-size: 12px;
      }

      .st8 {
        opacity: 0;
      }

      .st8, .st10 {
        display: none;
      }

      .st10 {
        opacity: .4;
      }

      .st11 {
        fill: url(#linear-gradient3);
      }

      .st12 {
        fill: url(#linear-gradient);
      }

      /* .esmt, .esmt-open, .esmt-closed, .open-space → map-styles.css */
    </style>
    <!-- Feather gradients: black-at-edge → transparent-inward (120px each side) -->
    <!-- Top edge: y from -116.7 fading to transparent at y=3.3 -->
    <linearGradient id="linear-gradient" x1="0" y1="-116.7" x2="0" y2="3.3" gradientUnits="userSpaceOnUse">
      <stop offset="0" stop-color="#000"/>
      <stop offset="1" stop-color="#000" stop-opacity="0"/>
    </linearGradient>
    <!-- Bottom edge: transparent at y=809.5 fading to black at y=929.5 -->
    <linearGradient id="linear-gradient1" x1="0" y1="809.5" x2="0" y2="929.5" gradientUnits="userSpaceOnUse">
      <stop offset="0" stop-color="#000" stop-opacity="0"/>
      <stop offset="1" stop-color="#000"/>
    </linearGradient>
    <!-- Left edge: x from -44.1 fading to transparent at x=75.9 -->
    <linearGradient id="linear-gradient2" x1="-44.1" y1="0" x2="75.9" y2="0" gradientUnits="userSpaceOnUse">
      <stop offset="0" stop-color="#000"/>
      <stop offset="1" stop-color="#000" stop-opacity="0"/>
    </linearGradient>
    <!-- Right edge: transparent at x=1117.8 fading to black at x=1237.8 -->
    <linearGradient id="linear-gradient3" x1="1117.8" y1="0" x2="1237.8" y2="0" gradientUnits="userSpaceOnUse">
      <stop offset="0" stop-color="#000" stop-opacity="0"/>
      <stop offset="1" stop-color="#000"/>
    </linearGradient>
    <mask id="mask" x="-44.1" y="-116.7" width="1281.9" height="1046.2" maskUnits="userSpaceOnUse">
      <g id="topo-feather-mask">
        <!-- White base: fully opaque everywhere -->
        <rect class="st5" x="-44.1" y="-116.7" width="1281.9" height="1046.2"/>
        <!-- Top fade strip -->
        <rect class="st12" x="-44.1" y="-116.7" width="1281.9" height="120"/>
        <!-- Bottom fade strip -->
        <rect class="st7" x="-44.1" y="809.5" width="1281.9" height="120"/>
        <!-- Left fade strip -->
        <rect class="st0" x="-44.1" y="-116.7" width="120" height="1046.2"/>
        <!-- Right fade strip -->
        <rect class="st11" x="1117.8" y="-116.7" width="120" height="1046.2"/>
      </g>
    </mask>
    <path id="lawrence-road-path" d="M 724,940 L 828,807 L 886,723 L 944,613 L 1040,380 L 1106,215"/>
    <path id="tennyson-court-path" d="M 300,436 L 420,435 L 550,438 L 650,449 L 720,468"/>

    <!-- Required by HTML CSS: lot status fill patterns and shadow filter -->
    <filter id="lotShadow" x="-2%" y="-2%" width="104%" height="104%">
      <feDropShadow dx="1" dy="2" stdDeviation="3" flood-color="#000" flood-opacity="0.06"/>
    </filter>
    <pattern id="pat-available" x="0" y="0" width="28" height="28" patternUnits="userSpaceOnUse" patternTransform="scale(.5)">
      <rect width="28" height="28" fill="#ccd9b8" fill-opacity="0.7"/>
      <g fill="#ccd9b8">
        <circle cx="7" cy="7" r="5"/>
        <circle cx="21" cy="7" r="5"/>
        <circle cx="0" cy="21" r="5"/>
        <circle cx="14" cy="21" r="5"/>
        <circle cx="28" cy="21" r="5"/>
      </g>
    </pattern>
    <pattern id="pat-available-sel" x="0" y="0" width="28" height="28" patternUnits="userSpaceOnUse" patternTransform="scale(.5)">
      <rect width="28" height="28" fill="#8eba5e"/>
      <g fill="#ccd9b8" fill-opacity="0.1">
        <circle cx="7" cy="7" r="5"/>
        <circle cx="21" cy="7" r="5"/>
        <circle cx="0" cy="21" r="5"/>
        <circle cx="14" cy="21" r="5"/>
        <circle cx="28" cy="21" r="5"/>
      </g>
    </pattern>
    <pattern id="pat-sold" x="0" y="0" width="14" height="14" patternUnits="userSpaceOnUse" patternTransform="scale(.5)">
      <rect width="14" height="14" fill="#e8c0b8" fill-opacity="0.7"/>
      <polygon points="7,1 13,7 7,13 1,7" fill="#e8c0b8"/>
    </pattern>
    <pattern id="pat-sold-sel" x="0" y="0" width="14" height="14" patternUnits="userSpaceOnUse" patternTransform="scale(.5)">
      <rect width="14" height="14" fill="#d97963"/>
      <polygon points="7,1 13,7 7,13 1,7" fill="#e8c0b8" fill-opacity="0.1"/>
    </pattern>
    <pattern id="pat-reserved" x="0" y="0" width="28" height="33.48" patternUnits="userSpaceOnUse" patternTransform="scale(.5)">
      <rect width="28" height="33.48" fill="#e8dca0" fill-opacity="0.7"/>
      <g fill="#e8dca0">
        <polygon points="7,1.37 15.09,15.37 -1.09,15.37"/>
        <polygon points="21,15.37 12.91,1.37 29.09,1.37"/>
        <polygon points="0,32.11 -8.09,18.11 8.09,18.11"/>
        <polygon points="14,18.11 22.09,32.11 5.91,32.11"/>
        <polygon points="28,32.11 19.91,18.11 36.09,18.11"/>
      </g>
    </pattern>
    <pattern id="pat-reserved-sel" x="0" y="0" width="28" height="33.48" patternUnits="userSpaceOnUse" patternTransform="scale(.5)">
      <rect width="28" height="33.48" fill="#e7bf54"/>
      <g fill="#e8dca0" fill-opacity="0.1">
        <polygon points="7,1.37 15.09,15.37 -1.09,15.37"/>
        <polygon points="21,15.37 12.91,1.37 29.09,1.37"/>
        <polygon points="0,32.11 -8.09,18.11 8.09,18.11"/>
        <polygon points="14,18.11 22.09,32.11 5.91,32.11"/>
        <polygon points="28,32.11 19.91,18.11 36.09,18.11"/>
      </g>
    </pattern>


    <!-- Reusable topo contour path data (referenced by overlay and open-space texture) -->
    <g id="topo-line-data">

      <path class="st2" d="M-43.2,111.3c35.3,12.6,57.1-16.7,89.6-21.4,16.4-1.7,32.3,3.6,48.6,2.5,19.1-3.1,38.6-8.2,57.6-2.6,25.8,9.4,53.9,21.6,82,17.3,32.8-5,75,6.9,98.3-18.8,8.7-10.7,13.2-24.9,30.1-23.2,43.1,7.9,89.1-3.3,131-16.9,28.3-13.2,89.8-49.7,89.9,7.3,1,12.7-6.5,29,4.4,39.4,17.9,14.1,44.4,14.8,65.9,8.3,28.5-8.1,46.8,13.3,72.3,12.4,23-3,47.5-1.1,70.5-.6,35.9,3.6,1.8,36.8-13.3,45.9-8,4.6-15.4,5.6-24.3,8.4-21.2,8.2-49.4,4.9-45.6,33.8-3.4,36.5-49.2,16.3-72.8,18.8-42.7,6.3-86.8,7.4-129.2,15.6-36.7,3.4-63.3,30.7-96.4,43.7-21.7,10.9-47,16.2-68.1,24.9-17.8,8.4-35.2,18.9-52.2,28.5-16.8,9.7-35,20.5-42.4,39.2-12.9,34.4-7.5,68.7-4.6,104.7,1.2,28.7,18.7,54.6,39.4,74,17.9,13.7,41.1,24.4,59.7,35.9,12.4,7.8,33.6,11.3,46.2,16.4,11.3,5.4,25.2,12.9,34.9,20.5,12.4,10,26.3,25.2,39.5,34.9,21.2,12.1,42.9,24.8,64.2,38.7,13.8,8.7,30.9,13.6,43.5,25,20.2,20.8-18.1,19.3-31,16.1-21.9-5.5-48.8-2.7-70-7.9-16.6-6.3-32.3-18-50.7-17.7-51.9,5.2-101.6,34.7-152.2,14.8-39.4-18.6-77.3-57.4-124-47.7-13.5,2.4-25.9-1.2-38.5-5.8-49.3-14.9-104.4-22.3-152.3,1.1" vector-effect="none"/>
      <path class="st2" d="M1213.6,928.6c-15.3-21-25.4-46-40.7-67.2-7.6-16.6-32.7-30.7-31.9-49.6,16-20.9,49.3,9.5,95.8-39.1" vector-effect="none"/>
      <path class="st2" d="M-43.2,82.7C-8.2,100.6,12.7,57,45.5,52.9c25.7-.4,52.1,2,77.8-3.7,45.5-7.7,73.4,43,119,36.1,21.8-3.4,50.7-.8,66.2-18.7,6.8-8.7,8.9-24.8,20.9-29.2,14.8-4.8,32.7,4.6,47.7,5.4,37.3,1.4,56.3-22.8,96.7-16,38.3-.7,63.5-44.8,102.7-36.6,20.9,6.5,44.3,10,66.4,9.4,29.5,7.1-.2,44.9-8.2,59.4-21.2,23.4,3.8,22.5,20.9,17.3,35.5-25.4,76.8-33,119.9-22.7,24.3,4.6,47,20,72.3,13.8,15.6-.8,11.1,17,9.4,27.2-2.3,16.9-6.5,27.1-19.9,37.8-16.1,12.3-28.8,28.6-40,45.2-11.1,17.1-31.7,26.8-30.9,50.1,1.3,46.9-76.9,16.2-103.8,14.7-26.3-7.1-54.9,1.2-81.1,1.3-27.4,1.5-59.1-.6-85.8,8.5-29.4,9.6-60.9,32.1-86.7,45.6-25.4,15-60,20.4-84,40.3-29.5,20.3-52.2,27-50.2,67.3,4.9,38.6-.7,83.5,17,120,16,26.4,45.9,41.2,71.7,55.7,23.3,7.8,45,18,66.9,30,32.7,23.2,25.4,36.7,74.3,53.9,29.5,16.3,61.9,34.5,91.8,49.6,23.5,9.3,52,50.1,6.6,48-20.8-.5-42.1-1.4-62.4-6.2-34-11.2-63.8,2.4-93.4-21-50.1-24-104.2,25.3-157,12.4-27.4,0-46.5-20.3-68.7-32.8-31.7-15-50.7-15.4-84.4-8-21.6,2.1-43.5-3.7-65.2-3.2-21-3.5-41.8-8.6-62.5-1-16.8,6.5-34.4,18.5-52.8,22.8" vector-effect="none"/>
      <path class="st2" d="M-43.2,918.3c18.1,2.7,41.1,2.5,60,10.3" vector-effect="none"/>
      <path class="st2" d="M1190.4,928.6c-10.6-30.3-25-62.1-47.7-84.5-6.5-6.5-14.7-14.9-20.8-21-14.1-11.7-49.8-37.2-10.5-42.3,31-10.1,71.7,13.7,96.5-14.5,8.7-9.6,17.3-19,29-25.3" vector-effect="none"/>
      <path class="st2" d="M8.9-115.7C2.5-89.5-4.7-29.8-43.2-40.3" vector-effect="none"/>
      <path class="st2" d="M-43.2,38.8c23,5.9,28.6,2.8,48.3-7.5,12.7-7.2,22.5-8.3,36.4-11.8,21.5-6.7,43.9,2.9,65.7-1.5,37.7-8.7,62.8,3.9,94,22.8,23.5,17.1,52.2,13.4,77.3,2.6,12.6-6.9,18.8-22.1,28.6-32.2,29.6-27.3,59.7,32.4,111.2-8.7,31.1-30.4,51-.6,84.7-15.7,23.2-9.9,39.9-33.2,67.8-28.9,18.4,3,36.1,17.3,55.4,12.6,21.5-3.9,62.6-31.8,73.5.1,2.3,13.2-2.6,31.2,7.3,42.4,15.6,14.3,65.5-3.3,86.5-4.2,45.8,1.2,105,12.5,86.2,73.1-3.9,18.7-10,38.8-25.3,51.1-34,30.1-28.5,25.2-47,65.3-8.8,16.4-11.5,35.2-8.2,53.6,17.5,51.2-35.3,28.8-63.5,22.1-27.7-6.9-57.6-12.9-86.4-18.8-16.8-3.5-35.9,1.3-51.8,2.2-79.6-4.4-120.2,7.9-181.7,55.8-51.9,33.7-122.5,36.8-113.1,116.6,3.3,34,1.1,72.4,23.7,100,35.3,35.9,88.4,50.7,126.9,80,19.7,30.7,43.1,31.3,72.6,46.2,29.5,16.9,57.5,31,89.5,40.1,25,4.9,33.8,25,41.5,47.3,3.1,8.4,7.2,15.4,6.9,24.4-2.6,18.3-25.4,15.7-40.1,14.1-18.5-2.3-36.9.8-55-.8-13.9-1.5-31.6-8.6-44.8-12-16.4-5.7-35.7-1.3-52.1-5.2-14.9-3.4-26.7-15.7-41.1-19.9-52.5-11.6-99.6,32.4-152.9,16.6-76-11.1-28.1-57.9-150.7-21.3-27.7,8.3-58.2,2.9-86.5,5-26.8,10.1-56.5,14.8-83.9,19.9" vector-effect="none"/>
      <path class="st2" d="M-43.2,887.6c18.2,10,38.4,2.2,58,4.4,40.5-.7,78.7,14.2,112.1,36.5" vector-effect="none"/>
      <path class="st2" d="M1169.5,928.6c-13.8-80.9-61-86.8-112-134.4-38.6-45.8,106.5-34.5,127.4-49.8,17.7-11,34.1-25.1,52-35.9" vector-effect="none"/>
      <path class="st2" d="M49.8-115.7c4.2,26.5-.4,65.5,25.8,82.1,28.1,19.7,62.2,11.2,93.4,15.8,32.1,10.3,66.5,40,101.4,23.5,19.2-13.5,29.2-46.3,58.5-36.6,22.1,6,44.3,28.9,67.9,16,19.2-12,37.8-30,62.2-27.7,12.9,1.2,27.4,5.6,39.8,3,19.9-6.4,39.2-20.4,58.2-29.3,35.7-15.4,60.9,32,96.1.1,23.1-17.3,50.1-40.1,73.2-9,22.6,22.9,8.3,49.6,26,58.2,20.2,5.5,39.1-3.4,60.2-5.9,18.6-4.4,34.6-3.3,45.7,14.4,12.7,21.8,32.5,39.8,37.2,63.8,6.2,24.9-6.7,66.4-25.2,84.5-21.1,20.7-27.7,17.9-38.5,49-15.4,48.1-13.5,57.4,8.4,100.5,3,43.5-69.2,10.8-92.3,5.5-26.3-8-55.7-12.5-83.5-18.5-28.1-8.9-56.6,2.3-85,2.2-15-.3-30.8-2.5-46.1-1.5-69.8,8.2-108.8,71.1-170.6,96.8-20,8.2-32.4,24.9-32.9,47.1-3.1,26.4-1.2,55.1,11.6,78.6,28.2,44.7,77.3,67.3,119.8,95.8,15.4,17.9,35.5,27.5,56.5,37.1,22.1,10.5,46.4,26.1,70.7,34,16.6,6.4,35.5,6.8,51.7,13,31.5,15.5,38.9,54.7,49.2,84.8,10.4,25.5-19,39.1-40.2,37.4-22.2-.6-43.4-.7-65.1,2-27.7,3.3-50.5-14.4-77.5-18.4-28.3-1.7-42-2.1-66.8-18.1-41.9-25.9-83.7,14.6-127.3,15.6-20.7-1.7-44.5-2.3-65.2-4.4-27.8-7.6-34.2-31.7-69.8-19.1-21,5.9-42.7,15.2-62.4,23.1-27.9,9.3-57.8,7.9-85.3,18.6-12.4,5.5-31.2,14.7-32.2,30.8,3.3,17.8,42.3,16.1,56.1,24.4,11.8,5,30.3,10.4,41.2,17.1,24.5,20,53.4,40.5,78.9,58.1" vector-effect="none"/>
      <path class="st2" d="M1147.4,928.6c-1-24.6-10.8-51.4-31-65.8-25.2-18-49.6-37.6-71.5-57.6-70.3-54.8,40.8-65.8,78-74.2,42.5-5.2,72.5-42.9,114-52.5" vector-effect="none"/>
      <path class="st2" d="M96.9-115.7c3.3,50.4,24.8,55,70.4,60.5,23,3,45.2,15.5,66.7,23.2,58.9,8.2,46.7-66.5,128.7-23.5,31.7,15.1,61-15.7,93.6-11.2,55.3,10.5,58.8-6.4,102.6-29.4,53-20.3,50.3,36.2,113.3-19.6" vector-effect="none"/>
      <path class="st2" d="M731.8-115.7c45.5,11.2,17.5,73.8,76.9,65.7,34.4-6.2,55.7,15.9,71.2,44.3,11.7,29.2,37.4,56.4,28.3,89.9-4.5,31.6-23.3,56.9-44.6,79.1-12.5,17.5-24.4,51.6-20.9,73,3.7,20.1,20.5,36.8,30.6,54,35.8,45.8-11.9,66-51.2,44.2-56.7-26-121-45.6-183.8-44.3-16.2,3.1-34.4,10.3-50.4,10.5-45.8-4.2-89.4-2.6-126.7,29.8-23.4,25.6-49,44.8-79,62.8-29.8,15-37.2,60.9-15.8,85.9,11,14.7,23.5,24.9,37,36.3,28.7,32.4,38.6,38.9,76.7,58.3,43.6,37.8,92.3,69.7,150.7,77,47.4,5.8,70.1,69.1,80.1,109.6,7.1,23.5,2.3,40.8-23.5,46.3-13.3,4.9-24.6,6.9-38.7,7.2-35.9-1.5-65.4,15.5-101.4,1.2-25.5-12.2-52.6-17.9-80.5-21.9-24.8-4.3-47.4-24.3-73.6-15.6-31.2,7-59.7,25.7-92.5,19.8-20.3-3.4-40.6,4.1-60.8,3.5-24.8-5.5-50.3-11.7-71.8,6.8-34.8,15.5-21.1,57.2,1,77.4,15.6,13.6,36.2,23.8,43.5,43.6" vector-effect="none"/>
      <path class="st2" d="M1120.2,928.6c2.4-27.1-20.8-44.4-36.5-63.3-14.2-15.1-29.7-31.5-45.8-44.5-34.7-21.7-71-50.9-25.5-85.5,30.4-17.2,65.7-16.3,98.2-29,22.4-7.8,39.4-25.8,61.2-34.6,21.2-7.2,44.1-8.7,65-15.9" vector-effect="none"/>
      <path class="st2" d="M152.6-115.7c14.8,14.4,37.1,20.1,55.8,28.2,55,24,81.7-28.5,134.7-10.1,47,17.5,55.6,8.1,100.6,6.5,51.9.2,62.3,5,105.4-24.7" vector-effect="none"/>
      <path class="st2" d="M813.9-115.7c-2,17-.8,34.9,20.1,37.3,12.9,2.3,27.5,6.2,39.9,7.5,32.4-4.1,59.1-28.4,86.5-44.8" vector-effect="none"/>
      <path class="st2" d="M1014.9-115.7c-7,17.5-4.2,38.4-1.9,56,.7,14.4-3.6,35.5-3.7,49,2.9,31.6,1.7,52.8-28.9,68.7-21,13.4-49.2,18.6-58.9,43.6-7.5,14.7-12.6,30.4-21.3,43.9-20,29-49.8,73.2-21.2,105.7,11.7,13.7,21.7,25.8,36,37.5,20.2,13.6,28.6,32.6,24.1,56.6-14.1,41.5-72.1,41.7-104.8,23.2-19.2-11.1-37.9-24.9-57.4-34.3-31.8-13.8-69.5-21.5-104.8-16.3-15.8,3-26.1,18.4-40.5,25-11,4.9-23.4,7.4-35,10.9-19.5,7.6-37.2-6.3-54.7-13.5-26.2-8.8-58.3,7.3-77.1,25.4-20.6,20.3-41.8,39.4-66.3,55.1-36.7,30.2,16,58.3,39.9,72.6,14.2,10.1,32.8,23,44.7,35.1,39.7,40.5,81.2,91.8,142.3,95.2,80.1,6.8,101.2,99.9,111.9,165.5-1.6,44.4-82.5,33.1-113,42.4-47.5,23.8-78.5-2.3-123.4-11.8-27.7-4.2-59-9.5-86.4-16.3-27.4-2-56.6,11.7-83.3,16.2-21.4,2.8-44.3-.2-64.4,9.9-12.2,5.6-27.9,9.8-34.4,22-11.7,30.8,38,45,30.7,76.8" vector-effect="none"/>
      <path class="st2" d="M1079.9,928.6c-7.1-15.8-19.4-31.3-27.3-47.7-6.7-14-12.7-28.5-23.4-40.2-16.5-18.1-40.4-27.4-52.9-49.4-19.7-30.3-9.1-61.1,21.9-78,48.4-18.6,99.4-21.4,137.9-60.5,29-23.1,54.1,1.8,100.8-19.5" vector-effect="none"/>
      <path class="st2" d="M883.8-115.7c5,1.4,11,1,15.5,0" vector-effect="none"/>
      <path class="st2" d="M1033.6-115.7c2.3,33.3-.7,71.2,2.2,104.6,3.3,28.5,18.3,65.9-14.9,80.6-29.1,13.8-65.8,20.1-84.1,48.6-8.6,13.8-12.4,32.1-21.5,46.2-21,36.5-18.1,67.1,12.4,96.4,28.9,30.4,41.7,44.8,36.5,88.8-3.3,15.2-16.4,26.4-27.4,36.8-18.8,20.3-48.1,25.4-74.5,20.1-62-20.3-96.4-72.4-170.6-42.4-33.9,18.2-70.7,31.7-109.5,34-26.5-.9-51.2-5.8-77.6,1.4-27.4-.3-30.6,20-20,41.5,7.1,35,38.8,57.7,61.6,80.8,10.9,9.5,19.8,24.2,27.4,37.1,14.3,25.8,37.9,31.8,63.9,38.9,23.8,9.2,51.4,13.9,68.6,34,32.2,34.7,37.9,85.3,49.2,129.6,4.3,15.7,16.6,38.1,1.6,52-29.3,24.3-69.7,24.3-105.8,32.3-31.8,6.5-60.6,32-94.3,19.7-50.3-26.9-68.8-.3-112.9-20.4-32.9-20.4-71-8.7-105.6,2.6-50.7,21.8-48.5,30.7-34.5,81" vector-effect="none"/>
      <path class="st2" d="M1040,928.6c-18.4-25.9-18-62.6-39.9-85.2-46.4-40-76.3-101.4-15.4-144.4,24.2-14.9,54.7-25,79.9-36.5,12.2-4.7,27.4-7.8,38.1-17,10.6-7.4,24.8-18.2,35-24.7,32.3-15.7,51.8,11,99.3-12.7" vector-effect="none"/>
      <path class="st2" d="M1236.8,499.8c-2.4-6.6-2.4-14.4,0-21" vector-effect="none"/>
      <path class="st2" d="M1049.4-115.7c9.1,43.4,1.1,91.6,19.6,133,21.4,29.2,32.4,51.9,0,79-26,22.4-64.2-1.7-91.3,23.7-12.3,10.7-25.1,22-28.2,38.4-7.5,27-18.6,57.7-2.5,83.9,13.3,29.1,41.7,53.9,42.1,88.7.2,23-5.6,33.1-20.7,50-16.4,17-43.7,50.2-65.2,69.6-14.7,7.9-40.9-11.5-57.5-14.5-34-16.6-54.9-37.3-95.7-32.2-44.2-3.1-81.7,17.4-122,31.6-18.7,5-56.7,10.1-46,38.1,97.5,155.7,144.7,39.7,201.6,288.2,14.7,50.2,9.5,71.9-46,79.7-19.2,6.6-38.4,14.6-58.2,18.7-31.4,10.2-53,38.4-84.6,47.2-50.7,1.2-49.9-30.4-110.6-11.2-30.3,2.5-54.1-28.6-84.2-26.7-29.1,3.9-58,29.3-60.2,59.2" vector-effect="none"/>
      <path class="st2" d="M1006.9,928.6c-7.9-19.8-9.9-42.6-18.6-62.4-20-33.1-50.3-63.4-52-104.4,2.2-48.6,43.6-85.4,82.1-109.5,21.4-13.8,47.9-14.8,70.6-24.5,25-12,43.5-40.5,73.8-37,21.8.6,48.6,3.2,64.3-15.3,23.7-29.1-13-54.1-11.2-84.7.5-16.7,11.9-30.2,20.9-43.6" vector-effect="none"/>
      <path class="st2" d="M1065.9-115.7c1.2,17.4,11,33,13.9,50.2,1.1,18.3,3.7,35.9,13.6,51.5,13.2,28.3,47.9,55.1,37.8,89-11.7,22.6-36,36.7-56.6,50.1-14.5,7.1-30.3,6.9-45.3,11.4-48.5,11.4-61.5,41.7-55.8,88.5-1.3,32.4,22.5,54.3,35.2,81.5,25.7,57.3-47.5,93.5-63.4,141.7-10.3,22.9-33,74.4-64.8,57.6-12.9-8.6-23.1-20.7-36.5-28.8-18.9-11.1-39.8-22.4-60.3-28.5-14.1-2.4-30.3,3.4-44.4,3.6-31.4-1.1-42.1,1.8-63.3,26.3-25,27,13.1,48.7,33.7,61.6,15.1,12.1,32.4,23,44,38.8,38.1,68.9,120.3,254.8,8.8,290.6-23.7-5.8-28.2,7.6-46.1,16.6-34,7.4-62.9,30.7-94.9,42.7" vector-effect="none"/>
      <path class="st2" d="M558.3,928.6c-12.1-2.9-24.7-2.6-36.5,0" vector-effect="none"/>
      <path class="st2" d="M978,928.6c-5.6-29.6-14.5-60.5-31.5-85.9-25.5-32.7-31.9-79.8-15.3-117.6,20-34.5,39.1-68.6,70.6-94.3,17.5-14.4,44.2-15.3,64.8-20.5,40.4-11.5,61.7-46.6,109-46.5,39.9-2.1,19.6-48.6,23-74.2.7-30.1,27.4-48.6,38.3-74.9" vector-effect="none"/>
      <path class="st2" d="M1236.8,352.9c-.3-5.2-1.3-10.5,0-15.6" vector-effect="none"/>
      <path class="st2" d="M886.7,804.8c-28.7,12.4-39.8,45.9-53.8,72.1-9.8,19.3-21.5,28.1-19,51.7" vector-effect="none"/>
      <path class="st2" d="M943.3,928.6c-4.6-31.6-17.4-63-35.7-89.5-6-11.6-10.9-24.5-20.8-34.2" vector-effect="none"/>
      <path class="st2" d="M1088.5-115.7c10,28.7,21.6,59.7,37.4,86.4,13.2,19.4,31.6,35.5,35.2,60.1,4.5,28.7-6.8,60.1-26.3,81.5-40.1,53.8-104.1,36-118.4,97.4-19.7,75.7,67.6,79.4-5.7,187.6-41.2,48.2-40.9,50.9-59.2,111.6-5.2,17.9-11.7,29.6-32.3,32.1-45.5,14.9-48.8-3.4-90.5-16.3-34.5-8.9-49.2.8-35.2,36.8,7.2,33.2,27.8,58.5,42.3,88.9,20.4,34.8,21.4,114.6,68.6,45.9,14.5-39.4,9.7-53.3,52.6-74.4,13.9-3.7,24-14.4,35.5-22,18.4-8.8,42.5-6.3,61.6-8.4,38.5-7.8,69.4-37.2,103.9-51.8,8.9-4,14-11.2,17.4-19.8,1.5-4.8,1.5-8.1,2.5-15.8-1.1-58.8,37.6-66.6,38.9-112-.4-12.3-8.8-21.9-12.1-33.2-9.6-32.4,22-57.7,32.1-84.7" vector-effect="none"/>
      <path class="st2" d="M1175.4,167c-19.4-5.9-43.8,40.8-53.4,55.7-6.8,16.8-6.5,12.3-19,3.1-19.1-6.5-32.4,9-20.7,26.4,3.3,4.8,9.4,9.9,11.6,15,1.5,3.9.2,8.3.5,13.1,3.3,12.4,1.9,23.8-1.6,35.7-13.2,33.7-7.6,53.1-33.8,83.3-8.4,29.2-26.7,52.7-37.1,81.1-7.2,27.5-24.5,75.4,14,84.6,44.9,10.2,84.7-23.7,110.6-56.7,4.9-12.9,7-32.7,10.2-45.1,29.6-71,36.4-36.6,8.4-114.2-2.4-39.3,40.4-61.3,42.5-99.7,4.9-20.8-10.1-75.1-31.8-82.1" vector-effect="none"/>
      <path class="st2" d="M874.7,901.6l-6.3,27" vector-effect="none"/>
      <path class="st2" d="M896.6,928.6c0-8.9-4.6-17-9-24.3-2.8-3.4-9-1.9-12.9-2.7" vector-effect="none"/>
      <path class="st2" d="M1117.4-115.7c6.4,10,14.8,22.2,20.9,32.5,6.6,11.9,10.3,28.3,18.6,39.2,9,14.1,21.8,26.8,26.6,42.6,3.8,20.4,13.4,42.7,5.2,63.2-.5,4.8,5.6,4.7,8.9,4,7.4-1,12.9-8.8,18.9-12.4,5.9-3.5,14-3.4,20.3-5.5" vector-effect="none"/>
      <path class="st2" d="M1114.3,434.2c-12.4-4-24.9,16.5-34.4,22.1-21.1,16.9-63.6,73.7-12.7,78.7,10-.8,18.4-13.6,26.7-19.6,9.3-7.5,24.8-10.5,28.4-23.6,4.4-18.1,2.7-42.3-7.7-57.4" vector-effect="none"/>
      <path class="st2" d="M1168.3-115.7c7.2,10.6,13.4,30.1,29,27.5,14,.7,26.1,12.4,39.6,11.4" vector-effect="none"/>
      <path class="st2" d="M-43.2,383.8c4.1,2.4,10.6,3,11.3,8.8,3.5,10.3-.3,26.4-11.3,29.7" vector-effect="none"/>
      <path class="st2" d="M-43.2,345.9c20.3,6.9,42.8,10.9,64.8,9.6,42-12.8,50.1-3,22.2,31.9-11.8,11.4-26.8,20.8-39.6,31-22.4,17.7,6.5,47.9-47.4,34.8" vector-effect="none"/>
      <path class="st2" d="M-43.2,320c100.2,29.2,87.1-25.5,167.2-3.2-3.2,11.5-11,19.3-20.3,27.1-18.9,15.6-31.8,37.2-47.1,55.9-7,9.4-20,20.2-24.3,32.5-2.8,7.3,0,15.1.8,22.4,10.6,41.6-55.3,17.5-76.3,16" vector-effect="none"/>
      <path class="st2" d="M-43.2,297.8c94.6,27,80.8-16.3,180.9-15.7,8.8-1.1,80.3-13.5,61.5,7.4-34.4,17.2-65.1,43.8-94.9,68.2-18.8,15.7-30.5,39-40.1,60.7-11.2,27.3,6,55.5,17,80.5,19.9,35.6-41.9,1-55,.2-22.4-7.3-47.4-8.4-69.5-12.9" vector-effect="none"/>
      <path class="st2" d="M-43.2,276.5c29.3,3.7,55.9,18.2,85.2,6.2,40.7-15.2,83-20,126.5-22.6,27.1,0,53.3-16.3,79.5-19.7,6.7,0,18.3,0,19.4,8.3-1,15.1-25.6,22.6-35.4,32.2-13.3,14-29.7,24.3-48.2,29.7-22.3,10.2-40.1,27.8-60,42.7-40.5,26-48.9,76.8-31,119,9.1,26.3,29.8,45.6,45.1,68.4,39.4,50.9-20.1,20.1-39.5,3.4-42.2-25.9-92.4-39.3-141.6-41.1" vector-effect="none"/>
      <path class="st2" d="M-43.2,256.6c18.1,1.1,34.3,8.2,52,10.9,48.5,1.1,95.2-22.4,143-24.2,75.1-17.6,110-40.4,190.7-11.9-36.8,28.6-85.4,45.7-123.2,73.6-53.9,23.8-128,60.8-117.1,130.3,3.5,33.8,22.2,62.1,43,87.8,25.4,31.6,48.5,66.7,82.6,90.5,1.8,1.2,4.4,4.1,3.2,5.6-37.7,12-69.5-29.5-103.1-42.5-31.5-19.3-63.4-44-100.1-51.6-22.7-2.6-47.9-4.9-70.9-5.8" vector-effect="none"/>
      <path class="st2" d="M-43.2,235c37.9,8.4,75.9,19.3,113.7,8.3,41.8-12.1,86-17.4,125.1-37.3,58.2-22.7,122,5.9,182.2-2.5,30.7-4.9,99.3-11.8,39,28.3-36.3,14-75.7,20.1-110.5,36.2-32,14.8-63.4,33.7-95.7,49.4-66.6,27.6-114,73.4-83.9,148.9,19.3,41.1,50,72.6,78.9,107.7,14.1,14.5,33.4,26.5,51.9,35.8,25.8,7.7,63.3,19.4,15.7,35.6-58.2,5.3-109.1-32.8-156.5-62-18.5-12-40.4-30.5-62.6-38-30.7-12.3-65-7.4-97.4-9.4" vector-effect="none"/>
      <path class="st2" d="M-43.2,211.5c74.1,13.6,96,27.8,171.2-1.6,24.5-7.7,46.6-26.3,73.3-28.7,32.7-7.9,64.9-2.5,98.4.1,25.6,1.6,53-4.5,79-.9,27.3.6,60.2-5.8,86.2-14.3,30.9-2.7,86.8,7.5,26.4,31.1-47.7,13.4-40.2,43.6-106.8,55.7-60,12.8-98.2,35.3-149.9,62.1-69.6,27.5-126.3,75.5-88.7,155.8,23.6,42.5,55.5,80.6,91.8,112.7,21.2,20.1,51.7,20.6,77.6,32.6,24.8,10.6,62.1,30.8,12.3,39.1-26.3-2.3-51.1,12.9-77.3,6-69.7-21.4-128.7-63.4-191.1-100.6-32.9-15.8-68.4,2.8-102.5-3.3" vector-effect="none"/>
      <path class="st2" d="M-43.2,187.5c17.8,3.4,36.3,3.5,54.5,4.8,19.3,2.2,38.1,8.4,57.8,6.6,31.2,1.5,58.1-17.4,85.4-29.7,23.4-6.8,49.8-5.4,75.6-8.6,29.7-4.3,60.2,5,91.1,1.3,14.6-2.6,29.7-11.1,44-12.4,74.2,7,52.1-6.8,113.1-21,17.2,1,26.3,18.7,45.9,17.4,19.7,1.2,39-3.4,58.7.9,42.2,12.8,17.8,25.8-9.7,33.7-20,8-39.5,17.2-59.8,24.3-13.2,4.4-32.1,5.8-42.9,15.3-20,16-42.1,32.3-68.1,37.2-60.7,12.7-117.7,40.8-174.8,71.2-37.1,15.4-66.2,45.4-71.8,86.1-9.7,60.2,51.6,117.2,89.4,157,15.7,16,37.9,21.8,58.5,28.4,15.2,5.2,29.7,14.3,44.8,20.6,16.7,6.8,40,15,44.6,34.2-5.4,5.9-20.8,6.9-28.5,10.3-42,14.7-66.2,27.4-112.1,11.7-57.2-25.4-132.3-64.9-182.8-95-42.1-27.8-62.2,13.6-112.7-.5" vector-effect="none"/>
      <path class="st2" d="M1236.8,887.7c-3.8-9.4-13.6-28.7,0-36" vector-effect="none"/>
      <path class="st2" d="M-43.2,163.1c19.7,2.4,43.2-1.1,62.4-1.8,20.3,1.1,42.8,8,63.8,6.9,27,.7,44-24.5,70.8-25.5,28.7,2.5,57.1,2.7,85.6,0,82.3,2.3,59.7,10.2,137-21.5,45.9-.9,52.8.8,96.6-18.7,62.7-27.4,28.9,25.8,80.4,25.4,24.9,1.7,48,7.6,72.9,11,9.9.8,24.7-2.2,34.4.4,4.7,1.7,9.5,5.5,8.1,10.6-16.3,33.3-60.2,36.4-93.8,48.5-15.6,4.5-32.7,9.4-47.7,13.8-15.7,5.5-38.2,5.1-52.4,15.5-13.4,8.4-29.5,19.9-41.2,26.3-20.5,9.4-45.5,14.4-68.3,21.7-45.5,15.4-92.3,37.8-134.9,65-28.4,15.2-46.6,42.1-49.7,74.3-5.2,17.9-2.8,35.6,4.6,53,12.4,37.5,42.6,65.8,69,93.3,12.7,13.8,31.1,19.6,47.8,27.1,24.4,12,49.6,24.8,76,33,21.3,10.5,65,42.5,72.6,64.8-.6,9.4-38-2.3-45.2-2.6-26.4-6.6-51.2,13-75,18.7-48.2,11.8-91.8-19.3-132.9-40.9-14.7-8.2-36.3-14.9-51.7-21.5-31.1-16.2-62.5-37.5-96.4-45.8-16.1-1.1-31.4,7.3-47.6,8.5-14.9,2.1-30.6,1.3-45.4.5" vector-effect="none"/>
      <path class="st2" d="M1236.8,910.3c-10.5-12.2-15.2-28.1-24.7-40.8-20.7-25.8,2.7-33.6,24.7-40.5" vector-effect="none"/>
      <path class="st2" d="M-43.2,136.9c27.3,4.2,55.4-5.7,82.3-6.3,14.5.5,30.7,1.9,45.2,2.5,27.5-1.7,53-24.9,81.7-13.2,41,13.9,83.8,2.2,127,5.8,37.5,7.6,56.2-32.8,90.7-32.7,67.7.5,72.8-4.3,133.1-29.9,33.5-14.9,36.3,6.1,35.9,34.1,10.9,20.2,39.1,17.8,58.9,24.1,23.1,6.9,49.3-5.4,72.4,1.3,11.1,3.8,23.8,12.8,35,17.4,53.9,8.6,6.6,12.1-14.2,17.8-18.8,5.1-24.7,25.7-40.8,34.1-52.1,18-109.3,24.6-162.3,36.2-26.9,4-45.2,26.5-69.8,36.2-25.7,9.7-59.1,19-81.8,27.6-76.4,35-147.5,58.3-142,157.8,4.1,47,37,84.6,71,114.3,25.1,15.4,51.5,29.2,78.9,40,48.6,10.8,70.4,39.4,107.4,67.6,15,10.4,71.3,46.9,21.3,47.3-11.2-.1-22.5-6.6-33.3-10.4-21.1-8-41.7-12.6-63.8-3.6-32.8,10.3-67.5,21.6-102,14.1-38.9-12-70.5-40.1-107.7-53.4-14.2-5.8-30.1-3.5-44.4-8.3-59.4-37.9-112.4-29.7-178.5-27" vector-effect="none"/>
      <path class="st2" d="M1236.8,926.7c-13.3-7.4-19.9-21.5-26.8-34-12.3-19.1-31.2-37.4-35.9-59.9,3.2-15,26.3-11.3,37.5-17.1,8.4-3.3,17.4-8.4,25.3-12.1" vector-effect="none"/>
      <path class="st2" d="M-43.2,98.7c37.3,12,48.1-15,79.6-25.3,18.9-6.4,39.1.4,58.5-1.5,25.9-4.5,39.5-12.5,64.8,1.3,42.7,28.2,77.8,25.9,125.6,20.4,52.6,1.6,32.1-45.8,68.2-42.9,35.5,11.2,59.2-.4,93.5-6.5,35,1,63.7-15.7,92.9-32.4,21-9.6,54.8-11.3,67.6,11.4,3.8,15-6.9,33.7-8.4,49.4-.2,30.5,40.2,26.3,60.2,18.7,28.1-7,54.6-26,84.7-16.5,22.5,5.2,46.7,9.2,67.7,17.8,13.8,1.7,35.4,8.2,26,26.2-4.5,8.9-15.6,16.5-22.2,23.5-9,8.5-17,21.2-26.3,28.9-11.8,13-46.1,15.7-47.6,33.3-1,8.1-.4,16.5-4.5,23.7-17.4,21.3-60,5-84.9,4.8-34.6-3.4-69,5.6-104.6,5.4-60-1.1-97.3,33.8-149,57.4-23,8.8-49.8,15.1-69.7,29.1-21,14.6-46.8,23.5-60.7,45.2-15.5,32.3-3.8,93.5-1.3,128.2,5.8,20.5,16.7,42.1,34.6,53.8,15.6,9.4,35.7,25.3,53,32.9,21.8,9.5,45.4,14.4,65.6,27.6,19.5,8.4,28.7,27,45.2,39.2,15.9,15.9,171,76.9,137.9,97.7-28,8.4-57.7-1.9-86.4-5.7-40.3-1.2-41.8-.9-77.4-19.9-51.4-11-101.8,29.5-152.4,16.7-25.5-2.5-43.7-21.9-65.5-33.2-24.8-13.5-51.4-22.7-79.4-13.9-12.9,2.5-25.6-2.4-37.9-5.2-28-1.9-56.7-11.4-83.8-9.2-23,1.2-43.1,14-63.9,21.7" vector-effect="none"/>
      <path class="st2" d="M1201.1,928.6c-11.6-26.4-25-53.2-41.9-76-10.6-15.1-70.8-63.3-19.3-61.1,46.1,5.2,66.7-1.8,97-35.5" vector-effect="none"/>
      <path class="st2" d="M-17.1-115.7c-7.3,11.5-16,21.3-26.1,29.7" vector-effect="none"/>
      <path class="st2" d="M-43.2,64.6c30.8,15.1,48.3-19.1,75.7-25.2,21.1-9.7,43.2-2,65-3.4,30-4.5,57.6-7.1,83.2,11.4,36.9,25,62.9,31.4,104.8,13,17.4-9,19.8-34.5,39.5-39.8,22.6-1.8,44.3,15.2,67.9,8.5,37.8-10.7,38.3-31,83.6-18.9,35.6,0,57.7-41.9,94.3-36.3,10.3,1.4,20.1,6.8,30.2,9,25.1,10.7,60.5-21,77.3,8.3,5.4,11.3-1.5,30.1,8,39,21.9,12,56.1,0,80.5.5,16.5-1.9,38.1,5.2,53.4,8.4,12.2,5.1,24.3,5.4,36.5,1.3,23.2-1.8,20.5,25.8,15.2,41.4-7.9,45.2-26.5,46.5-53,76.5-11.3,17.5-23.3,37.5-31.4,56.1-3.5,9.7-2.5,20.5-3,30.8,0,28.3-14.5,27.1-37,22.6-20.1-4.2-49.1-10.1-70.5-14.6-43.9-12.6-88.2,0-133-2-48-3.1-90.3,28.8-128.6,52.1-14.4,9.8-34.2,16.4-51,23.3-20.1,8.4-39.9,23.7-57.2,35.5-6.7,5.4-12.7,13.2-15.1,21.7-6.3,30,.7,60.3,1.9,91.5,1,30.7,10.4,59,37.8,75.4,33.5,26,75.1,36.3,110,59.3,11.1,7.6,17.9,21.3,27.9,29.5,15,12,35.1,14.3,51.1,24.2,16.6,9.1,33.6,20.8,51.3,28.2,17.5,7.8,39.3,14.1,53.1,28.4,9.9,12,35.7,44.3,13.4,52.9-19.7.4-43.9-2.2-63.4-1.9-17.4-2.2-36.2-7.9-53.5-11.3-15.2-3.9-33.7.2-49.2-3.6-15.6-4-27.2-17.3-43-20.5-50.8-6.5-98.7,32.1-149.1,17.6-25-.7-38.1-17.8-57.5-30-29.3-15.9-64.6-6.9-94.3-1-14.6,2.9-30.2,2.6-45.5,2.9-15.4-.2-32.5-6.9-47.8-4.2-26,8.2-50.9,20.6-78.5,24" vector-effect="none"/>
      <path class="st2" d="M-43.2,904.4c13.2,4.2,29.6,2.1,43.7,3.2,34.3,4,68,10.4,100.6,21" vector-effect="none"/>
      <path class="st2" d="M1179.9,928.6c-21.9-111.7-144-124.9-108-155,8.6-4,21.6-2.7,30-3.9,17.2-1.7,33.6-6.6,50.7-4.6,11.5.4,21.3,2.7,32.6-.8,20.2-8.7,31.6-29.2,51.6-38.7" vector-effect="none"/>
      <path class="st2" d="M30.2-115.7c-.5,27.7,1.3,55.2-6.8,82.4C14.1-6.3,43.5-5.8,62.1-3.2c14.4,2,25.4,4.6,40.4,3.6,31.6-4.1,61.1-3.2,89.2,14.6,23.4,14.2,53.8,20.8,80,11.4,13.4-6,19.2-20.8,29-30.7,34.4-35.4,67.7,43.6,123.4-14.3,9-6.8,22.5-10.5,33.7-9.8,67.3,19.8,79.9-51.6,138.6-21.3,30.8,22.1,61.4-12,90.1-17.9,25-3.9,38.3,17.7,35.4,40.4-4.5,48.2,51.2,21.5,77.3,18.2,49.3-8.1,47.7-1.2,77,36.3,24.2,25,11.5,65.4-1.9,92.8-9.8,17.3-29.3,27-41.3,41.8-13,24.6-24.4,53-23.4,81.2,0,16.1,15.4,30.6,11.2,46.8-9.6,14.3-31.5,6.4-44.9,3.1-36.5-10.5-75-19.8-112.9-27.2-21.3-6.5-44.7-2.8-66.1-.2-20.1,2.5-41-1-61.4,0-48.2,3.3-89.3,35-125.6,63.8-26.1,20.3-67.8,27.2-87.3,55.4-12.5,35.1-7.9,77.5,2.2,112.9,31.4,64.3,111.5,76.4,156.1,127.3,30.4,13.2,62.6,29,92.2,44.8,48.8,19.5,79,5.1,95.1,68.4,24.7,55.7-8.9,56.4-54.6,51.9-40,2.9-54.5,1.7-92.3-13.1-14.1-4.7-31.6-2.3-45.9-4.7-29.6-7.4-47.3-32.3-81-22.4-25.5,5.7-54.1,19.3-81.1,21.6-25.6-1.8-54.3,1.6-76.7-13.2-16.2-15.4-30.8-24.1-54-18.5-29.6,6.6-58.6,20.1-89.5,24.2-44.7,4.1-99.6,5.8-136.4,35.8" vector-effect="none"/>
      <path class="st2" d="M-43.2,848c23.1,44.3,89.2,11.7,136,42,19.3,12.2,38.2,25,55.9,38.6" vector-effect="none"/>
      <path class="st2" d="M1158.8,928.6c-3.7-30-16.7-61.2-42.3-78-20.8-14.4-41-28.3-59.8-45.8-69.4-59,61.4-53.4,93.7-67.7,33.9-5.6,55.9-32.2,86.4-45.8" vector-effect="none"/>
      <path class="st2" d="M72.8-115.7c2.5,47.6,3.6,69.1,57.4,76.5,32.3-1,52.5,4.5,80.7,20.2,69.8,38.3,64.7-38.6,116.7-30.3,14.6,2.8,26.9,11.7,40.2,17.7,30,9.7,53.4-25,83.5-23.5,28.4,1,45.6,11.8,71.7-6.9,69.6-57.6,77.4,11.2,128.5-22.2,14.4-9.4,26.4-24.9,44.8-27.3,37.9-2.5,50.8,38.6,64.3,65.9,12.5,18.4,37.7,9,55.9,7.3,37.7-8.9,52.5,34.2,69.6,59.4,33.6,45.7,9.3,107.3-31.7,139.4-22.3,32.7-34.6,81.3-6.3,114.4,50.8,78.5-66.7,35.9-102.3,24.1-25.8-8.1-52.4-11.3-82.9-17.5-27.7-8.5-56.5,5.2-84.5,5.2-21.5-.5-43.6-5.8-64.3,2.8-34.4,8.2-62.7,33.4-86.8,56.3-23.4,26-70.1,31.8-82.9,67.2-19.4,69.5,33.5,107.7,82.6,145.1,11.2,7.4,24.6,14.5,35.9,21.8,10.6,7.3,26.9,23,38.5,28.6,32.6,16.5,60.4,36.7,91.5,45.6,61.3,14.3,69.8,13,96.8,75.3,3.9,15,11.8,32,12.4,47.2-5.2,32.3-47.8,30.1-73,29.5-23.7.9-46.1,8.7-70.1,2.5-13.6-2.1-26.6-9.3-39.5-14.1-17.7-6.3-37-5.6-55-10-30.2-9.6-49.1-30.9-82.5-14.8-26.1,8.1-54.4,22.8-82.6,18.6-24.2-5.1-50.6,4.5-73.1-6.7-19.9-8-30.6-15.1-52.7-7-21.1,7.2-41.2,18.5-60,29.7-24.9,11.4-16.1,34.2-2.4,51.3,8.1,10.8,23.7,23.3,34.2,33.7,14.9,14.2,36.7,22,48.9,39.2" vector-effect="none"/>
      <path class="st2" d="M1134.6,928.6c3.5-31.4-19.7-54-42.7-71.1-18.3-15.6-36.3-34.4-53.9-47.9-11.5-8.5-27.4-16.9-30.6-32.3-.8-41.3,51.7-45.4,82.6-50.4,17.2-3.8,37-11.4,53-17.9,33.4-21.8,53.3-34.1,93.9-41.8" vector-effect="none"/>
      <path class="st2" d="M210.7-115.7c34.5,14.9,50.4,12.8,85.2,0" vector-effect="none"/>
      <path class="st2" d="M332-115.7c21.1,3.5,44.9,11,67,11.9,13.6-.7,28.5-2,41.6-1.6,32.4-1.5,61.6,7.5,87.4-10.3" vector-effect="none"/>
      <path class="st2" d="M841.7-115.7c12.4,47.5,71.2,15.6,97.7,0" vector-effect="none"/>
      <path class="st2" d="M1024.5-115.7c-2.4,34.9-.9,70.6-1.2,105.1,10.2,56.1-6.9,64.2-55.4,88.5-25.6,10.3-42.6,30.1-50.5,55.9-19,36.2-55.2,80-17.9,117.2,15.5,22.4,45.7,34.9,51.5,63.2,15.3,56.5-38.5,88.9-88.7,77.8-32.9-7.6-58.9-32.1-88.5-46.2-29.3-9.4-62.4-19.3-92.2-5.5-29.2,22.6-53.1,28.5-88.4,36-18.5,4.9-36.4-4.2-54.3-9.3-48.3-19-89.2,29.2-112.9,65.5-12,21.5,17.5,33.3,31.7,42.9,11.3,8,21.4,18,32.3,27.2,35,25.8,54.7,67.8,91.7,91.3,23.6,17.5,52.1,14.6,77.9,25.5,62.1,20,71.8,94.2,85.3,149,26.5,63.2-54.3,59.2-97,68-24.6,2.1-47.2,21.1-73,16.4-24.2-1.9-47.6-15.9-71.1-18.5-29.5-2-59.9-7.6-88-16.4-34-1.5-69.9,12.8-102.6,20.1-71.2,26.1-35.7,36.8-30.8,90.5" vector-effect="none"/>
      <path class="st2" d="M1058.5,928.6c-12.4-20.3-21.5-42.4-29.7-64.3-13.3-31.8-52-44.6-63.7-77.8-18.9-29.8-1.4-67,28.1-81.8,33.8-15.9,73-20.5,105.1-40.6,13.9-9.3,30.8-24.4,47.1-32.8,33.1-9.5,43.9,11.6,91.5-10.4" vector-effect="none"/>
      <path class="st2" d="M1042.2-115.7c4.8,41.3.5,83.4,9.3,124.4,1.7,13.3,9.5,25.9,9.4,39.1,0,19.2-11.1,43.5-33.1,43.3-32,.6-56.4,9.1-77.5,33.4-8,11-12.5,22.2-17.1,35.3-12,29.7-21.6,63.6,2.4,89.9,10.8,15.5,26.2,31.7,34.7,48.5,10.5,27,11.9,59.9-12.1,80-18.8,19.5-38.5,44-67,47.8-72.2,3.1-89.7-69.1-187.1-41.6-34.9,9.4-62,31.8-99.1,33.6-23.4,6.4-47.6-.2-70.5,7-12.9,6.3-17.6,21.8-9.8,34.1,10.1,15.1,28,27.8,41.9,42.5,17.8,17.1,31.1,40.5,49.3,57.6,13.2,10.6,32,22.2,48,30.3,79.3,21.3,87.8,114,108.3,180.2,12.6,35.2,7,53.5-32.5,63.2-30.3,12.5-62.9,14-93,26.9-28.2,11.5-54.2,44.2-87.3,27.1-48.8-31.6-42.5-11.1-86.5-9.9-26.2-6-47.2-28.2-74.9-27-49.2,7-87.2,20-74.9,78.6" vector-effect="none"/>
      <path class="st2" d="M1022.4,928.6c-11-19.8-12.2-44.9-22.4-65.2-27.8-40.5-82.2-90.8-45.1-142.1,8.3-11,16.4-23.2,27.7-31.6,22.5-13.7,45.5-28.2,69.7-37.8,32.7-7.6,53.3-20.9,78.7-40.5,30.4-21.1,71.6,6.5,105.9-20.8" vector-effect="none"/>
      <path class="st2" d="M1236.8,521.2c-14.8-18-15.5-42.5,0-60.3" vector-effect="none"/>
      <path class="st2" d="M1057.7-115.7c.6,17.3,7.6,33,9.3,49.9.3,22.5,2.6,43.6,11.6,64.7,37,55.3,62.4,64.2-5.1,112.4-30,17.3-60.8-1.1-88.3,24.6-25.9,15.9-27.3,45.7-29.4,72.7-2.3,69.3,86.8,105.6,22.6,174.2-7.9,9.2-20.3,23.7-27.9,32.6-19.6,18.8-30.4,73.9-66.9,61.6-17.4-14-38.9-20-57.9-30.9-28.3-21.4-62-22.1-96.2-19.5-34.6,0-71,16.6-93.7,43.1-15.1,16.2.6,34,11.2,47.8,20.5,28.6,59.3,39.1,83.5,64.3,16.5,19.9,24.4,43.3,34.3,67.1,20.2,47.1,33.8,91,39.5,141.3,3.2,22.4-8.5,43.3-27.9,54.9-9.4,5.3-20.8,3.4-31.1,4-14.2,1.3-26.8,10-38.9,17-26.9,7.5-50.5,24.3-72.4,40.2-51.6,34.7-90.2-13.3-147,5-25.6,3.7-50.4-8.5-75.4-8.6-17.8,5.8-37,12.1-50.7,25.9" vector-effect="none"/>
      <path class="st2" d="M993.4,928.6c-11.7-84.3-59-92.5-63.9-165.7,2.3-46.8,57.9-120.4,104.3-131.4,23.7-7,47.2-8.1,65.9-23.1,13.6-9.4,26.5-22.3,42.8-27.1,23.6-7.6,54.8,6.1,71.2-17.8,13-20.8-6.1-42.6-6.1-64.5-3.4-25.4,16.5-46.3,29.3-65.2" vector-effect="none"/>
      <path class="st2" d="M1076.7-115.7c2.3,17.2,12.4,33.5,16.9,50.5,2.3,9.2,3.9,19.6,7.9,28.2,16.1,39.4,62.7,73.9,42.1,117.7-17.4,28.6-48.9,50.6-79.6,62.7-42.4,8.9-74.9,34.2-71.1,80.9-1.6,79.5,70.7,71.7,9.5,161.6-31.8,35.2-44.7,58.6-59.9,103.5-7.5,27.8-22.8,36.7-50.3,39.8-24.1,1.6-38.9-22.2-58.7-31.9-39-31.5-152-32.8-90.3,38.9,29,26.8,43.1,65,61.7,98.8,5.3,10.1,10.2,19.9,13.7,31.1,5,16.5,13.2,38.1,16.6,55.8,2.3,21.1,2.8,42.2,7.6,63-6,49-37.2,89.8-77.9,116-29.9,17.3-65.5,12.1-96.7,27.8" vector-effect="none"/>
      <path class="st2" d="M959.8,928.6c-2.8-37.2-20.6-72.8-40.3-103.5-11.8-31.8-12.1-71,1.5-102,17.9-35.5,38.5-68.1,66.2-97.1,23.9-25.9,47.8-17.8,77.8-26.6,35.8-10.4,61.7-38.2,98-47.7,42.8-11.9,14.2-69.6,38.1-97.9,6.5-10.2,15.6-21.3,21-32.4,29-52-24.8-62.2,14.7-118" vector-effect="none"/>
      <path class="st2" d="M1164.2,214.7c-22.4,12.7-39.3,61.3-29.5,85.6.8,3.3,2.7,9.6,6.7,6.3,10.7-15,29.4-24.3,37.7-41.1,8.9-15.4,7.5-49.9-14.6-50.8" vector-effect="none"/>
      <path class="st2" d="M1126.6,361.4c-26.1,2.7-41.2,54.5-56.1,72.4-22.4,27-45.6,59.8-43.6,96.5.2,22.6,28.1,25,45.4,21.6,14.6-2.8,25.9-13.7,36.7-23.1,18.1-13.4,31.2-30.8,32.4-54,2.3-58.5,49.9-62.2-14.6-113.4" vector-effect="none"/>
      <path class="st2" d="M1136.4-115.7c15.9,17.1,21.2,40.5,34.1,59.7,16.1,18.8,42.6,69.3,66.4,31.6" vector-effect="none"/>
      <path class="st2" d="M-43.2,332.1c83.8,28.6,88.7-12.9,127,3,7.8,6-1.5,16.7-5.6,22.3-11.4,13.5-21.1,31.6-34.2,43.9-10.6,11.5-28.6,20.2-31.4,37-.6,11.7,8.5,26.8-10,28.7-15.3,1.8-30.4-.5-45.8-4" vector-effect="none"/>
      <path class="st2" d="M-43.2,308.5c45.4,14,73.2,10.2,115.3-9,25.6-8.1,53.5-2.2,79.5-8.7,31.8-2.5-2.5,22.6-10.8,29.9-15.5,14.4-32.9,28.9-49.3,42.6-10.2,11.4-17.9,22.6-26.2,35.7-16.4,25.5-24.3,31.8-15.8,63.5,5.4,17.9,7.3,35.1-17.6,29.1-19.7-3.7-55.4-8.9-75.1-13" vector-effect="none"/>
      <path class="st2" d="M-43.2,286.8c62.4,17.1,67.7,9.8,125-8.3,37.2-8.8,79.7-6.4,116.2-12.2,11.6-.7,42.3-13.8,26.3,9.6-12.6,21-36.6,26.2-56.3,37.6-26.9,20.1-55.7,38.5-76.6,65.2-9,16-19,36.8-18.9,55.4,4.5,32.5,18.3,61.1,37.8,87.1,3.7,5.6,9.6,10.6,10.2,17.6.3,7.8-4.5,6.9-9.8,3.2-3.1-2.1-6.8-3.9-9.5-5-14.3-6-37.4-15.7-51.6-21.6-28-13.5-61.8-17.6-92.8-21.8" vector-effect="none"/>
      <path class="st2" d="M-43.2,266.5c15.6,1,30.4,6.1,45.1,9.9,46.1,5.9,89.5-24.2,136.9-22,38.1-.7,72.1-18.4,109.2-25.6,12.5-2.6,65.1-3.7,47.5,19.5-16.6,13.3-35.5,24.6-54.7,34.4-16.2,11.7-32.7,25.1-51.8,30.4-22.6,10-40.4,26-59.8,41.6-44.1,27.2-44.2,86.1-22.3,127.6,22.1,38.7,54.3,69.4,75.6,108,1.5,1.5,3.7,3.9,1.1,5.4-5.7,2.7-11.1-3.3-15.6-6.3-27.9-9.9-53.3-25.5-77-42.7-18.3-10.9-40.7-19.8-59.5-27-24.9-5.6-49.9-6.2-74.8-8.2" vector-effect="none"/>
      <path class="st2" d="M-43.2,223.3c57.4,13.2,104.5,23.2,161.3-1.2,36-6.2,66.7-29.6,103.4-34.5,51.8-3.2,102.6,9.1,155,5.3,24.2-5,49.1-4,73.3-9,5.7-3.1,46.7-3.9,37.3,1.8-18.5,6.1-30.5,23.3-43.6,36.5-34.3,28.8-89.8,28.9-127.2,46.7-29.4,14-62.4,32.6-92.7,47.3-37.8,14.1-75,37.7-93.2,75.3-16.4,48.9,13.5,96.7,43.4,132.9,25.2,30.4,50.1,65,88.3,79.8,14.3,6,36.5,8.3,50.3,17.2,6.5,3.3,30.4,18.4,12.8,21.1-17.9.3-34.1,8.3-51.3,11.4-64.3,2-140.5-54.5-193.3-88.9-36.2-25.6-82.3-19.2-123.8-19.4" vector-effect="none"/>
      <path class="st2" d="M-43.2,200c28.8,5.1,59.5,7.8,87.8,14.5,42.5,3.9,83-15.2,119.3-34.7,26-7.3,53.2-10.9,80.2-11.7,17.7-.4,38.7,2.6,55.8,3.6,23.7,2.1,47-10,71.1-7,20.7,1.8,39.3,1.9,59.4-1.7,20.2-9.5,35.8-18.2,59.2-9.6,11.7,7.6,102.1-7.6,77.2,16.8-16.5,12.7-37,19.4-55.8,28.3-13.5,3.8-29,7.4-40.5,14.7-14.2,10-25,23.1-41.5,30.2-23.3,8.3-71.8,21-88.2,26.2-41.7,15.2-89.1,42.6-129,61.3-29.6,12.3-53.9,37.1-63.9,67.7-16.2,50.2,20.4,96,49.7,132.8,22.3,22.8,40.3,50.1,70.2,62.6,16.8,5.1,148.4,44.1,86.2,64-44.8,14.7-93.8,22.4-136.1-3.4-49.9-23-96.7-46.8-142.8-78.4-10.2-7.5-22.4-11.5-35-13.1-32.5-3.6-43.6,16.7-83.4,6.3" vector-effect="none"/>
      <path class="st2" d="M-43.2,175.4c19,3.1,41,1.5,60.1.9,25.4,3.7,50.9,11.6,76.7,5.2,28.1-6.2,47.2-29.7,78-26.3,25,0,50.3-2.7,75.4-4.2,26.5-.5,55.8,8.2,81.9-.5,26.3-12.9,50.2-17.5,79.4-14.1,27.7,1.1,71.6-36.4,92.7-22.3,18.5,24,30.1,22.3,58.2,22.3,18.9.9,37.8,4.9,56.2,9.3,20,3.7,41.8,10.5,12.4,24.5-31.8,16.2-69.2,23.3-102,37-16.2,6.3-38,5.4-52.5,16.4-20.5,15.6-41.4,31.4-66.7,36.8-47,10.7-93,28.2-136.3,51.6-60.3,30.5-106.8,52.2-104.2,129.8,10.7,52.2,72.5,129.7,122.4,147.4,22.2,9.6,67.5,28.7,83,35.5,17.4,7.4,32,22.3,46.3,34.3,15.9,13.6-3.2,17.8-16.6,14.1-24.9-3.8-48.6,7.5-70.6,17.3-51.5,19.8-100.2-20.8-145.2-40.6-49.7-16.9-90.6-56.2-141.7-67.5-29,4.7-56.3,16.5-86.9,10.5" vector-effect="none"/>
      <path class="st2" d="M1236.8,899.9c-7.2-9-10.2-21.6-15.5-32.3-8.1-15.7-.1-23.8,15.5-27.8" vector-effect="none"/>
      <path class="st2" d="M-43.2,150.5c23.6,1.8,49.1-2.3,72.5-3.4,21.3-.7,44.2,8.5,65.2,3.2,39.1-20.5,50.5-25.9,94.9-15.3,28.7,3.8,55.4-2.7,84.3-.4,12.5.4,26.4,2.7,39.2,1.1,24.8-4.5,45.3-28.4,71.6-29.7,53.9,3.8,65.9-5.8,114-23.9,55.4-18.2,16.5,24.5,52.8,34.9,16.2,3.4,37,7.6,53.6,10.9,21.3,6.8,44.1-1.5,66,1.9,39.9,8,1.3,38.4-14.1,49.9-24.2,10.7-51.6,20.6-78.1,26-35.6,10.1-75.2,11.4-106.5,28.3-10.4,6.9-21.5,15.4-32.3,21.8-25.6,12.8-58.1,18.4-83.2,27.6-39.3,15-78.8,34.3-114.7,57-19.8,15.6-40.9,34.7-44.5,60.9-9.1,33.3-6.1,66.3,11.8,96.3,17.9,26.4,39.3,50.9,63.8,71.3,26.9,14.5,52.8,28.4,81.5,39.6,25.3,6.3,49.1,19.7,69,36.5,11,9.9,24.4,22.3,35.1,31.8,5,4.7,13.3,8.9,18.6,14.1,9.7,10,5.6,18.9-9.3,15.1-93.8-34.7-88.4,9.5-169.8,8.1-49.6-8.8-88-47-135.6-60.7-18.7-2.9-35.1-13.5-51-23-12.8-5.8-33-12.7-44.9-17.2-17.4-8.1-36.5-1.7-54.5.7-17.5,2.1-38.2.7-55.6,1.2" vector-effect="none"/>
      <path class="st2" d="M1236.8,919.4c-16-15.6-23-37.7-37.6-54.5-28.2-36.4,13.2-36.4,37.6-48.2" vector-effect="none"/>
      <path class="st2" d="M990.7-112.8l-.7-2.9" vector-effect="none"/>
      <path class="st2" d="M996.5-115.7c-.9,3.2-2.9,2.9-5.7,2.9" vector-effect="none"/>
      <path class="st2" d="M122-115.7c1.2,31.4,35.4,33.3,58.7,40.4,21.9,7.5,43.4,18.7,65.9,19.3,33.5-5.1,54.1-43.1,92.4-26.3,37.2,12.9,49.5,17.2,88.5,5.7,60.7-5.3,67.9,13.5,122.7-28.2,41.2-28.2,64.3,16.5,104-10.9" vector-effect="none"/>
      <path class="st2" d="M778.4-115.7c3.7,8.1,3.6,16,3.6,24.7,1.6,33.2,34.2,25.7,57.6,30.6,17.2.8,32.4,28.6,48,15.4,14.5-19.8,36.1-30.8,56.9-42.2,10.1-5.5,29-23,39.6-18.7,3.2,2,2.3,7.6,3.3,12.9,1.5,11.6,11.2,20.2,12.7,31.8,2.2,12.9-1.4,28-12.5,35.5-5.4,3.9-12.1,3.4-18.2,4.9-9.6,3.4-18.9,8.9-26.8,14.2-15.4,10-47.5,6.2-32.5,32.9,4.3,7.2,14.1,7.1,16.1-1.2,10.4-17.3,31.9-21.9,50.5-23,5-.5,8.6,2.3,11.3,6.7,18.3,32.7-37.6,57.9-61,38.8-5.3-5.8-3.6,3.8-4.2,7.3.2,29.3-13.8,57.2-27.4,83-21,28.9-48.1,61.9-39.8,100.1,6.1,20.3,24.4,35.6,36.6,51.9,9.5,11.4,26.6,20.2,29.5,36.1-.3,39.5-56.7,49.4-84.1,30.2-48.9-31.4-105.5-51.1-163.8-54.5-28.9-5.6-45.3,15.1-69.8,24.6-49.1,16.6-53.5-34.8-128.8,10.3-13.1,9.6-24.6,23-36.3,33.6-16.7,17.6-42.3,26.9-58.8,44.5-17.5,20.3-12.3,51,10,65.5,7.6,6.2,20.9,17.3,29.2,24.3,13.5,10.7,27.2,30.3,41.9,38.6,8.4,5.1,20.4,11.6,27.3,16.6,57.9,52.8,80.7,69.9,159.1,82.2,20.8,5,29.5,20.8,41.3,36.5,20.5,25.2,26.9,58,33.5,89.1,8.1,28.5.9,41-29.3,46.6-22.7,6.6-46.2,5.2-69.6,8.9-15.3,4.2-32.7,11.5-49.3,7.8-19.5-2.3-41.1-12.6-59.1-18.8-24-6.5-49.4-7.8-73.4-15.1-11.5-3.4-23.4-8.3-35.5-7.8-27.9,1.1-53.8,16.3-81.7,20.1-14.6,1.3-31.2-2.6-45.2-.7-26.6,5.4-55.8,11.3-80.1,22.7-27.4,14.8-11.8,43.4,7.1,58.7,11.8,10.5,25.6,21.9,27.5,38.5" vector-effect="none"/>
      <path class="st2" d="M1102.7,928.6c-9.7-31.1-52.7-87.8-79.9-107.6-25.3-16.1-58.9-43.1-39.7-75.1,9.9-18.3,28.4-28.6,48.1-31.9,23.9-6.1,52.4-10.3,75.6-21.5,20.4-10.1,35.4-29.1,57.7-35.1,23.8-3.9,49.5-4.4,72.2-13.3" vector-effect="none"/>
      <path class="st2" d="M910.8,567.8c-4,1.1-7.5,4.3-11.7,5.3-5,1.3-10.2-.3-15.2,1.7-21.5,6.4-11.4,28.2-10.9,44.9,17.2,22.5,50.8-13.6,54.4-32.6,5.6-16.1.5-21.4-16.2-19.5" vector-effect="none"/>
      <path class="st2" d="M886.7,860.3c-36.7-1.7-41,41.3-47,68.3" vector-effect="none"/>
      <path class="st2" d="M923.7,928.6c-2.4-15.1-7-28.3-14.9-41.2-5.9-11.9-10.1-21.2-22.1-27.1" vector-effect="none"/>
      <path class="st2" d="M1102.3-115.7c5.7,13.3,15.7,27.1,21.3,40.8,6.7,15.8,11.9,32.6,23.6,45.7,51.9,47.4,20.7,125.3-15.9,172.1-12.1,15-30.7,19.3-46.1,29.1-20.5,15.3-52.3,36.9-43.4,67.9,25,47.4,21.4,94.8-4.1,141.6-15.7,36.6-52.8,61.7-61.6,101.8-6.7,22.2-15.1,47.2,6.8,61.2,10.1,22.1,16.1,29.1,41.6,33.3,50.3,12.1,95.4-27.5,131.6-55.4,17.9-19.9,3.2-51.5,21-72.6,4.6-7.7,12.7-21.3,17.5-29.5,19.9-30-22.7-58.9-7.4-90.2,4.3-14.2,13.5-23.9,22.1-35.4,50.1-72.2-30.9-129.3,27.5-196.1" vector-effect="none"/>
      <path class="st2" d="M-43.2,360.9c20.3,10.1,43.5,4.9,65.2,8.8,10.1,0,15,3.9,9.4,13.8-3.9,7.7-13.4,10.3-20.7,14.5-43.1,17.7-21.8,48.6-53.9,43.5" vector-effect="none"/>
      <path class="st2" d="M-43.2,246.3c83.5,25.2,113-.7,191.3-11.4,38.7-10.3,75.6-30.5,117.5-26.7,24.4.2,50.3,5.5,72.6,7.5,6.6,3.3,83.9-5.7,60.8,8.8-16.2,13.3-35.6,20.4-56.1,23.4-14.9,2.6-27,9.5-39.7,15.9-30,14.7-58.6,30.2-86.5,46.8-21.2,9.5-46.3,19.3-63.5,35.9-13.7,12.6-31,24.7-38.5,42.5-14.6,43,4.3,90.6,32.6,123.4,24.5,28.4,46.2,67.2,78.8,87.9,5,6,57.2,26.3,43.2,31.9-40.8,13.1-84.5-11.1-116.3-34.3-24.4-13.7-48.1-29-70.9-45-13.7-7.2-32.2-14.5-45.9-19.6-26-5.2-52.9-4.6-79.4-5.8" vector-effect="none"/>
      <path class="st2" d="M-43.2,124.8c22.4,3.3,43.4-2.5,64.4-9.9,21.7-9.4,43.7.2,66.3-.7,18.1-1.4,37.8-8.8,56.2-10,18.5-.3,35.2,10.6,53.9,12.2,30.6,3.6,68.9-.8,98.2-1,25.2,2.5,43.3-17.1,60.7-32,9.8-5.3,21.7-2.6,32.6-2.5,31.5-1.4,65-3.3,94.8-16.9,23.1-5.2,45.9-30.2,70-17.5,34.3,27.8-27.3,61.4,75.5,69.3,73.4-13.1,56.2,16,111.7,12.4,14.4-.4,58.1-2.1,39.9,20.8-21.8,14.5-49.9,15.3-74.8,20.7-20.1,8.8-10.3,40.4-38.2,40.2-15.6,0-27.9-.4-43.6,3.9-47.4,10.7-97.4,9.4-143.4,26.2-18.3,9.6-35.2,23.3-54.9,31-49.6,17.4-96.5,33.7-141,60-17.3,8.5-35.4,21.8-44.9,39.7-18.8,39-17.5,84.4-5.4,125.2,14.6,28.4,36.2,58.7,65.8,73.6,19.1,9.8,34.8,21.5,55.2,28.4,27,7.4,53.1,17.9,74.3,36.2,33.8,35.9,81.1,57.9,118.1,89.9,5.3,4.2-6.7,2.9-9.7,3.3-15.2-.4-37.3,1.6-52.7,0-23-4.5-45.1-21.6-70.1-20.2-49.9,6.3-103.8,39.3-152.4,10.2-26.4-13.8-60.7-38.6-91.9-46.4-12.2-2.5-25.9,1.8-38.3-1.1-54.2-24.1-117.3-32.2-176-19.1" vector-effect="none"/>
      <path class="st2" d="M1226.4,928.6c-10.1-8.6-16.9-20.2-23.1-32.2-9.9-13.8-20-28.2-28.8-43-25.2-34.2-25.7-37.7,17.7-42.7,16.7-1.9,30.7-13.2,44.7-21.8" vector-effect="none"/>
      </g>

    <!-- Clip paths for open space and recreation area texture -->
    <clipPath id="open-space-clip">
      <polygon clip-rule="evenodd" points="144.5,479.8 166.4,505.6 248.2,539.6 295.6,551.6 320.4,557.9 353.2,582.2 390.2,585.4 445.4,590.1 477.7,624.6 544.5,654.6 582.5,653.6 620.4,648.9 634.6,647.1 693.8,653.6 703.9,678 713,700 754.1,743.5 783.1,774.2 112.2,579.2 122.1,408.9 128.9,263.4 130.5,161.6 551.3,161.6 870.6,167.4 815.3,238.6 874.2,300.3 959.5,311 1033.4,326.9 1041.8,328.4 1023.9,373.2 940.9,355.8 894.2,462.3 874.8,405.8 845.6,368.8 819.9,336.1 772.2,302.1 687.5,250.4 629.6,226.9 591.8,278.2 549,256.1 506.9,263.9 489.6,267.2 414.9,302.6 389.1,296.1 300,325.7 279.1,332.7 228.2,328.5 202.6,351.2 149.4,361.9 128.5,386.4 127.2,413.3 126.9,419 126.6,424.6 126.5,426.9 144.5,479.8"/>
    </clipPath>
    <clipPath id="rec-area-clip">
      <polygon points="144.5,479.8 166.4,505.6 248.2,539.6 295.6,551.6 320.4,557.9 353.2,582.2 390.2,585.4 445.4,590.1 477.7,624.6 544.5,654.6 582.5,653.6 620.4,648.9 634.6,647.1 693.8,653.6 703.9,678 713,700 754.1,743.5 783.1,774.2 112.2,579.2"/>
    </clipPath>
  <clipPath id="builder-clip-2"><polygon points="713 700 713 700 703.9 678 703.9 678 793.1 546.8 857.9 590.7 857.9 590.7 857.9 590.7 754.1 743.5 713 700"/></clipPath><clipPath id="builder-clip-3"><polygon points="703.9 678 693.8 653.6 693.8 653.6 634.6 647.1 620.4 648.9 722.4 498.8 722.4 498.8 793.1 546.7 793.1 546.7 793.1 546.8 703.9 678"/></clipPath><clipPath id="builder-clip-4"><polygon points="722.4 498.8 722.4 498.8 620.4 648.9 620.4 648.9 582.5 653.6 632.4 457.1 632.4 457.1 648.7 461.6 668.4 468.9 684.4 476 698.1 483.2 715.8 494 715.8 494 722.4 498.8"/></clipPath><clipPath id="builder-clip-6"><polygon points="544.5 654.6 477.7 624.6 478.4 448.5 545.3 448.7 545.3 448.8 545.3 448.8 544.5 654.6"/></clipPath><clipPath id="builder-clip-7"><polygon points="477.7 624.6 477.7 624.6 445.4 590.1 445.4 590.1 390.2 585.4 390.7 448.2 478.4 448.5 478.4 448.5 477.7 624.6"/></clipPath><clipPath id="builder-clip-9"><polygon points="274.8 461.1 295.6 551.6 248.2 539.6 248.2 539.6 166.4 505.6 144.5 479.8 126.5 426.9 126.8 419 126.9 419 240.2 430.6 240.4 439 243.1 446.5 247 452.2 251.3 456.2 255.8 459 261.1 460.8 267 461.7 274.8 461.1"/></clipPath><clipPath id="builder-clip-8"><polygon points="286.7 454.9 289 452.5 292.5 449.8 295.4 448.5 299.8 447.7 390.7 448.2 390.7 448.2 390.7 448.2 390.2 585.4 353.2 582.2 353.2 582.2 320.4 557.9 320.4 557.9 295.6 551.6 295.6 551.6 274.8 461.1 282.7 458 286.7 454.9"/></clipPath><clipPath id="builder-clip-10"><polygon points="228.2 328.5 279.1 332.7 300 325.7 298.9 419.5 298.5 419.5 295.1 418.7 292.1 417.2 289.3 414.6 285.1 410.9 280.4 408.1 275.4 406.3 271.4 405.5 267.3 405.3 263.3 405.7 259.3 406.7 255.5 408.2 252 410.2 248.8 412.8 246 415.8 243.7 419.1 241.9 422.8 241 425.1 240.2 430.6 240.2 430.6 240.2 430.6 126.9 419 126.9 419 128.5 386.4 149.4 361.9 202.6 351.2 228.2 328.5"/></clipPath><clipPath id="builder-clip-11"><polygon points="389.1 296.1 414.9 302.6 414.9 302.6 414.2 420 414.2 420 414.2 420 298.9 419.5 300 325.7 300 325.7 389.1 296.1"/></clipPath><clipPath id="builder-clip-12"><polygon points="489.6 267.2 489.6 267.2 506.9 263.9 506.3 420.4 414.2 420 414.2 420 414.9 302.6 414.9 302.6 489.6 267.2"/></clipPath><clipPath id="builder-clip-13"><polygon points="591.8 278.2 591.8 278.2 583.7 421.2 567.7 420.6 567.7 420.6 506.3 420.4 506.3 420.4 506.3 420.4 506.9 263.9 506.9 263.9 549 256.1 591.8 278.2"/></clipPath><clipPath id="builder-clip-14"><polygon points="591.8 278.2 591.8 278.2 629.6 226.9 687.5 250.4 640.9 430.1 640.9 430.1 627.9 427 612.3 424.2 598.3 422.4 583.7 421.2 591.8 278.2"/></clipPath><clipPath id="builder-clip-15"><polygon points="687.5 250.4 687.5 250.4 772.2 302.1 698.4 451.6 696.4 450.6 694.7 449.8 693.4 449.1 692.6 448.7 686.1 445.7 675.5 441.4 663.4 436.9 651 432.9 640.9 430.1 687.5 250.4"/></clipPath><clipPath id="builder-clip-16"><polygon points="772.2 302.1 772.2 302.1 772.2 302.1 819.9 336.1 845.6 368.8 762.2 491.6 762.2 491.6 733.5 471.9 733.5 471.9 717.1 461.6 704.1 454.5 703.5 454.1 698.4 451.6 772.2 302.1"/></clipPath><clipPath id="builder-clip-17"><polygon points="845.6 368.8 874.8 405.8 894.2 462.3 894.2 462.3 854 554 762.2 491.6 762.2 491.6 845.6 368.8"/></clipPath></defs>
  <rect class="st4" x="0" y="0" width="1240" height="1000" rx="4" ry="4"/>
  <!-- Open space and recreation area topo texture fills -->
  <g id="area-topo-fills" style="opacity: 0.2;" class="">
    <polygon id="open-space" class="open-space" fill-rule="evenodd" points="144.5 479.8 166.4 505.6 248.2 539.6 295.6 551.6 320.4 557.9 353.2 582.2 390.2 585.4 445.4 590.1 477.7 624.6 544.5 654.6 582.5 653.6 620.4 648.9 634.6 647.1 693.8 653.6 703.9 678 713 700 754.1 743.5 783.1 774.2 112.2 579.2 122.1 408.9 128.9 263.4 130.5 161.6 551.3 161.6 870.6 167.4 815.3 238.6 874.2 300.3 959.5 311 1033.4 326.9 1041.8 328.4 1023.9 373.2 940.9 355.8 894.2 462.3 874.8 405.8 845.6 368.8 819.9 336.1 772.2 302.1 687.5 250.4 629.6 226.9 591.8 278.2 549 256.1 506.9 263.9 489.6 267.2 414.9 302.6 389.1 296.1 300 325.7 279.1 332.7 228.2 328.5 202.6 351.2 149.4 361.9 128.5 386.4 127.2 413.3 126.9 419 126.6 424.6 126.5 426.9 144.5 479.8"/>
    <g id="topo-fill" clip-path="url(#open-space-clip)" class="">
      <use href="#topo-line-data" class=""/>
    </g>
  </g>
  <g id="topo-bg" style="opacity: 0.02; color: rgb(0, 0, 0); display: block;" class="st6">
    <use href="#topo-line-data"/>
  </g><polygon id="open-space-border" class="open-space" fill-rule="evenodd" points="144.5 479.8 166.4 505.6 248.2 539.6 295.6 551.6 320.4 557.9 353.2 582.2 390.2 585.4 445.4 590.1 477.7 624.6 544.5 654.6 582.5 653.6 620.4 648.9 634.6 647.1 693.8 653.6 703.9 678 713 700 754.1 743.5 783.1 774.2 112.2 579.2 122.1 408.9 128.9 263.4 130.5 161.6 551.3 161.6 870.6 167.4 815.3 238.6 874.2 300.3 959.5 311 1033.4 326.9 1041.8 328.4 1023.9 373.2 940.9 355.8 894.2 462.3 874.8 405.8 845.6 368.8 819.9 336.1 772.2 302.1 687.5 250.4 629.6 226.9 591.8 278.2 549 256.1 506.9 263.9 489.6 267.2 414.9 302.6 389.1 296.1 300 325.7 279.1 332.7 228.2 328.5 202.6 351.2 149.4 361.9 128.5 386.4 127.2 413.3 126.9 419 126.6 424.6 126.5 426.9 144.5 479.8"/>
  <g>
    <polyline class="road-edge" points="710 930 781.2 838.7 814.1 797 828.8 777.7 844.9 755 859.9 732.6 873.1 712.1 885.6 690.9 896.8 670.7 909.3 647.6 917.2 631 929.4 605.2 946.7 564.8 1023.9 373.2 1073.5 249.1" style="display: none;"/>
    <polyline class="road-edge" points="808.8 859.3 841.4 817.1 857.7 795.3 871.9 775.4 885.6 755.2 898.8 734.6 911.5 713.7 923.7 692.5 935.3 671 946.4 649.2 959.6 621.5 978 579 1055.5 387.4 1138.3 180.4" transform="translate(0.00,0.03)"/>
  </g>
  <g>
    <polygon class="road-interior" points="759.8917724609375 865.480419921875 781.2 838.7 814.1 797 828.8 777.7 844.9 755 859.9 732.6 873.1 712.1 885.9 690.4 896.8 670.7 909.3 647.6 917.2 631 929.4 605.2 946.7 564.8 1023.9 373.2 1073.5 249.1 1105.4 171.1 1123.5 125.1 1155 135 1138.3 180.4 1055.5 387.4 978 579 959.6 621.5 946.4 649.2 935.3 671 923.7 692.5 911.5 713.7 898.8 734.6 885.6 755.2 871.9 775.4 857.7 795.3 841.4 817.1 808.8 859.3 787.7 886.2"/>
    <polygon class="road-interior" points="762.2 491.6 762.2 491.6 854 554 854 554 854 554 854 554 929.4 605.2 929.1 606 928.7 606.8 928.3 607.6 927.9 608.4 927.6 609.2 927.2 610 926.8 610.8 926.4 611.7 926.1 612.5 925.7 613.3 925.3 614.1 924.9 614.9 924.5 615.7 924.2 616.5 923.8 617.3 923.4 618.1 923 618.9 922.6 619.7 922.3 620.5 921.9 621.3 921.5 622.2 921.1 623 920.7 623.8 920.3 624.6 919.9 625.4 919.5 626.2 919.2 627 918.8 627.8 918.4 628.6 918 629.4 917.6 630.2 917.2 631 917.2 631 857.9 590.7 857.9 590.7 857.9 590.7 793.1 546.8 793.1 546.7 793.1 546.7 722.4 498.8 722.4 498.8 715.8 494 715.8 494 698.1 483.2 684.4 476 668.4 468.9 648.7 461.6 632.4 457.1 632.4 457.1 632.4 457.1 618.3 453.8 598.1 450.7 579.6 449.1 567.4 448.8 567.4 448.8 545.3 448.8 545.3 448.8 545.3 448.7 478.4 448.5 478.4 448.5 478.4 448.5 390.7 448.2 390.7 448.2 390.7 448.2 299.8 447.7 295.4 448.5 292.5 449.8 289 452.5 289 452.5 286.7 454.9 282.7 458 274.8 461.1 267 461.7 261.1 460.8 255.8 459 251.3 456.2 247 452.2 243.1 446.5 240.4 439 240.2 430.6 241 425.1 241.9 422.8 243.7 419.1 246 415.8 248.8 412.8 252 410.2 255.5 408.2 259.3 406.7 263.3 405.7 267.3 405.3 271.4 405.5 275.4 406.3 280.4 408.1 285.1 410.9 289.3 414.6 292.1 417.2 295.1 418.7 298.5 419.5 298.9 419.5 414.2 420 414.2 420 414.2 420 506.3 420.4 506.3 420.4 506.3 420.4 567.7 420.6 567.7 420.6 583.7 421.2 598.3 422.4 612.3 424.2 627.9 427 640.9 430.1 640.9 430.1 640.9 430.1 651 432.9 663.4 436.9 675.5 441.4 686.1 445.7 692.6 448.7 693.4 449.1 694.7 449.8 696.4 450.6 698.4 451.6 698.4 451.6 698.4 451.6 703.5 454.1 704.1 454.5 717.1 461.6 733.5 471.9 733.5 471.9 762.2 491.6"/>
  </g>
  <g>
    
    
    <path class="stream-buffer" d="M115.8,516.4s5.1,2,8.6,2.1c8.8.5,7.6-5.4,17,1.8s5.2,10.8,7,14.1c1.5,2.6,3.9,4.8,6,7,3.4,3.3,6.8,6.9,10.4,8.9,4.4,2.7,11.1,2.8,13.7,7.9,1.1,2,1.4,4.5,2.7,6.3,2.4,3.2,7.5-4.4,11.5-3.2,2.6.5,3.7,3.4,4.7,5.7.8,1.9,1.7,3.6,2.9,5.1,3.7,4.5,10.6,6.8,4,11.9-4.1,2.9-4.5,6.1.1,9.3,6.2,3.5,14.3,1.4,20.9,3.9,4.7,1.6,10.2,5.3,15.3,7,3.9,1.5,7.9,1.5,11.9,2.1,7.5,1,13.7,7.6,20.6,10.4,5.7,2.2,11,.4,17.1,1.6,6.2,1.4,12.1,1.6,18.5.5,2.3-.3,4.9-1.1,6.9-2,3.7-1.7,6-3.8,10.4-2.7,3.7,1,7.4,3.4,9.4,6.7,2.6,5.2,1.1,9.2,7.5,11,4.6,1.2,10,1.9,14.4,1.7,4.6-.3,10-1.6,14.7-2.4,7.1-1.8,13.6-.1,20.5,2.7,6,2.1,12.9,5.7,19.3,8.8,7.8,3.7,15.7,6.1,22.4,11.7,11,8.4,22.2,15.1,34.1,22.8s18.4,10.8,18.4,10.8l-5.5-1.6s-14.5-7-27-15.3-13.4-8.9-19.8-13.9c-6.1-5.2-13.1-7.1-20.3-9.8-6.2-2.6-13.4-6.7-19.3-9-8.1-3.4-15.2-5.6-24.3-3.8-8.3,1.2-15.1,2.4-23.5.6-3.2-.6-6.9-.9-9.6-2.9-3.1-2.3-2.2-5.9-4.1-9.6-2.3-5.1-8.9-7.5-13.8-4.7-6.2,3.4-14.8,4.1-21.9,3.9-4.4-.3-8.3-1.6-12.7-1.6-13.5.9-14.6-2.6-25.3-8.8-5.4-3.5-11.7-2.8-17.7-4.3-5.8-1.5-11.7-5.8-17.2-7.6-7-2.5-15.5-.3-22-4.3-3.5-2.3-6.2-6.8-3.5-10.4,1.1-1.8,3-3,4.1-4.8.7-1.4-1.3-2.1-3.4-3.9-.6-.5-1.2-1.1-1.8-1.8-2-2.2-2.7-5.3-3.9-7.9-3.2-6.2-8.8,3.8-13.6,1.6-3.2-2-2.8-7.1-5.3-9.8-3.5-3.9-8.5-3.5-12.9-6.8-1.6-1.1-3.2-2.6-4.7-4-3.8-3.7-7.6-7.1-10.4-10.7-4.2-6-3.6-14.1-12.4-16.3s-4.8,1.6-7.8,1.6c-5.3-.2-11.4-3.1-11.4-3.1l.2-2.7Z"/>
    <path class="stream-buffer" d="M675.1,163.8s-.2,0-3.8,2.1c-4.2,2.5-10,.5-13.4,4.5-2.9,2.9-4.1,7.8-8.4,7.5-4.9-.4-11.1-6.1-16.5-3.2-2.2,1-4,2.6-6.1,3.7-2.9,1.6-6.6,2.5-10.3,3-6.2,1.1-10.7-.3-15.9-3-4.3-2.4-8.5-.6-12.7.8-4.1,1.1-7.7.2-11.8.8-6.1,1-11.7,5.5-14.8,10.7-4.2,8.7-10,0-15.6-1.9-4.1-1.4-7.5.3-11.4.9-3.9.8-7,1.6-10.4,4.4-2.1,1.6-4.1,3.7-6.7,4.3-3.1.8-6.3-.5-9.2-1.2-4.7-1.4-9.7.3-13.1,3.8-4.4,3.8-6.4,8.7-10.3,12.7-2.4,2.4-5.2,4.2-8,6-3,1.8-6.4,4.1-9.9,3.9-4.4-.2-5.1-8.9-7.8-8.5-2.5,1.5-3.5,5.1-4.9,7.7-3.4,6.8-7.4,13.9-14.5,16.9-3.5,1.2-7.2.5-10.9.9-7.4.8-14.2,3.9-20.2-1.4-4.4-3.3-9-8.7-12.4-3.4-1.8,2.7-2.7,6.4-4.7,8.9-3.5,4.1-9.9,3.5-14.3,1.3-3.2-1.5-6.2-5-8.3-5.3-1.9-.4-3.3,1.1-4.5,2.5-3.7,5.3-10.6,4.9-16.5,5.1-7.1.1-13.3,3.2-15,9.8-1.3,3.9-1,8.2-3.9,11.4-2.2,2.5-5.7,4.2-8.8,4.5-6.3.3-1.6-11.7-5.3-15.6-2.3-3.2-6.2-4.1-10.9-5.5-2.4-.7-4.9-1.3-7.3-1.8-3.3-.6-7.2-2.1-10.4-1.4-1.6.6-1.5,2.1-1,4.4,1.4,5.3,1,13-3.4,17.1-3.5,3.5-6.5-1.3-8.8-4.6-2.4-4.1-6.1-3.5-9.9-1.4-4.1,2.4-10.3,4.4-10.7,9.6-.2,4.2,2,8.9,1.9,13.2.2,4.3-4.6,9.1-7.7,13.1-1.7,2.1-3.6,4.4-5.3,6.5-2.4,2.7-4.4,5.9-7.2,7.3-9.7,3.9-12.5-15.7-20.9-15.4-6.8,1-12.4,10.6-17.5,12.6-3,1.3-5.6-1.5-7.4-3.6-1.7-1.8-3.4-3.7-5.6-1.3-1.6,1.9-3.8,5.7-5.4,8.3-3.7,6-8.3,14.2-12,18.8-5.3,6.9-12.4,12.5-20.8,14.9-3.9,1.2-8.8.1-11.2,3.4-6.1,8.3-8.6,8.3-8.6,8.3v-2.9c.1,0,1.3-.7,2.4-2.8,4.3-8,7.3-7.1,12.2-7.8,26.3-4.7,29.4-26.9,43.7-44.3,3.2-2.3,5.5,2.4,7.7,4.2,7.1,7.9,14.9-12.9,24.5-10.5,4.1,1,6.5,5.2,8.8,8.5,4.8,7.9,8.2,10.3,14.8,1.9,3.6-4.4,8.1-9.5,11.3-14.1,1.4-2.1,2.1-4.5,1.8-7-.3-4.7-3.2-10.5-1.5-14.5,1.4-2.9,4.3-4.2,7-5.8,3-1.7,7-4,10-5,6.1-2.2,7,5.1,10.7,7.9,2.8,1.9,5.6-4.3,5.4-8,0-3-.7-6.2-1.4-9-.5-2-.8-4.4,1.6-4.8,3.2-.4,7.2.8,10.5,1.4,6.1,1.4,11.1,2.5,15.7,4.1,5.2,1.5,9.2,4.8,9.1,10.7,0,3.5-.2,9.7,5,7.3,8.6-5.2,2.7-17.2,15.2-22.8,4.9-2.2,10.9-1.2,16.1-2,8.1-.7,8.8-10.4,14.1-8.4,2.2,1,3.7,3,5.6,4.5,4.4,3.6,11.2,5.7,15.2.5,1.7-2,2.4-5,3.8-7.3,3.9-7.7,9.3-2.8,14.8,1.5,4.9,4.4,10.5,3.9,16.5,2.4,5.2-1.2,10.9,0,15.4-2.4,6.3-3.4,9.8-11,12.9-17.5,1.1-2.4,2.6-5.3,4.7-6.8,3.7-2.3,5.1,5,7.3,7.3,3.9,5,17.2-6.2,19.6-9.5,2.1-2.6,3.7-5.5,6-8,4.3-4.5,9.9-8.9,16.2-7.7,3.5.6,7.1,2.7,10.6,1.4,2.4-.9,4.2-3,6.2-4.6,2.7-2.4,5.9-3.3,9.4-3.8,5.5-.8,10.7-3.4,15.9.5,2.2,1.4,5.3,4,7.8,3.3,1.4-.4,2.3-1.9,3.7-3.8,1.6-2.2,4.2-4.5,6.7-6,3.1-1.9,6.4-3.8,10.1-4,3.7-.3,6.5.3,10.2-.5,7.1-2.1,9.2-3.3,16.4.6,6.4,3.6,15.6,2.3,22-1.1,2.3-1.2,4.2-2.9,6.5-4,1.5-.7,3.2-1,4.9-.8,4.2.4,8.4,4.3,12.2,3.7,2.1-.3,3.5-2.1,4.7-3.9,2.1-3.7,4.5-6.1,8.7-6.2s7.9-1.1,7.9-1.1h4.3Z"/>
  </g>
  
  <g>
    <polygon id="lot-1" class="lot sold" points="754.1 743.5 857.9 590.7 857.9 590.7 917.2 631 909.3 647.6 896.8 670.7 885.9 690.4 873.1 712.1 859.9 732.6 844.9 755 828.8 777.7 814.1 797 814.1 797 781.2 838.7 783.1 774.2 783.1 774.2 754.1 743.5" data-lot="1" data-lot-id="1" data-acres="1.1586"/>
    <polygon id="lot-2" class="lot reserved" points="713 700 713 700 703.9 678 703.9 678 793.1 546.8 857.9 590.7 857.9 590.7 857.9 590.7 754.1 743.5 713 700" data-lot="2" data-lot-id="2" data-acres="0.9848"/>
    <polygon id="lot-3" class="lot available" points="703.9 678 693.8 653.6 693.8 653.6 634.6 647.1 620.4 648.9 722.4 498.8 722.4 498.8 793.1 546.7 793.1 546.7 793.1 546.8 703.9 678" data-lot="3" data-lot-id="3" data-acres="0.9757"/>
    <polygon id="lot-4" class="lot available" points="722.4 498.8 722.4 498.8 620.4 648.9 620.4 648.9 582.5 653.6 632.4 457.1 632.4 457.1 648.7 461.6 668.4 468.9 684.4 476 698.1 483.2 715.8 494 715.8 494 722.4 498.8" data-lot="4" data-lot-id="4" data-acres="0.9192"/>
    <polygon id="lot-5" class="lot reserved" points="582.5 653.6 582.5 653.6 582.5 653.6 544.5 654.6 545.3 448.8 567.4 448.8 567.4 448.8 579.6 449.1 598.1 450.7 618.3 453.8 632.4 457.1 582.5 653.6" data-lot="5" data-lot-id="5" data-acres="0.9239"/>
    <polygon id="lot-6" class="lot available" points="544.5 654.6 477.7 624.6 478.4 448.5 545.3 448.7 545.3 448.8 545.3 448.8 544.5 654.6" data-lot="6" data-lot-id="6" data-acres="0.919"/>
    <polygon id="lot-7" class="lot available" points="477.7 624.6 477.7 624.6 445.4 590.1 445.4 590.1 390.2 585.4 390.7 448.2 478.4 448.5 478.4 448.5 477.7 624.6" data-lot="7" data-lot-id="7" data-acres="0.9251"/>
    <polygon id="lot-9" class="lot sold" data-lot="9" data-lot-id="9" data-acres="0.927" points="274.8 461.1 295.6 551.6 248.2 539.6 248.2 539.6 166.4 505.6 144.5 479.8 126.5 426.9 126.8 419 126.9 419 240.2 430.6 240.4 439 243.1 446.5 247 452.2 251.3 456.2 255.8 459 261.1 460.8 267 461.7 274.8 461.1"/>
    <polygon id="lot-8" class="lot available" data-lot="8" data-lot-id="8" data-acres="0.9198" points="286.7 454.9 289 452.5 292.5 449.8 295.4 448.5 299.8 447.7 390.7 448.2 390.7 448.2 390.7 448.2 390.2 585.4 353.2 582.2 353.2 582.2 320.4 557.9 320.4 557.9 295.6 551.6 295.6 551.6 274.8 461.1 282.7 458 286.7 454.9"/>
    <polygon id="lot-10" class="lot available" points="228.2 328.5 279.1 332.7 300 325.7 298.9 419.5 298.5 419.5 295.1 418.7 292.1 417.2 289.3 414.6 285.1 410.9 280.4 408.1 275.4 406.3 271.4 405.5 267.3 405.3 263.3 405.7 259.3 406.7 255.5 408.2 252 410.2 248.8 412.8 246 415.8 243.7 419.1 241.9 422.8 241 425.1 240.2 430.6 240.2 430.6 240.2 430.6 126.9 419 126.9 419 128.5 386.4 149.4 361.9 202.6 351.2 228.2 328.5" data-lot="10" data-lot-id="10" data-acres="0.9255"/>
    <polygon id="lot-11" class="lot available" points="389.1 296.1 414.9 302.6 414.9 302.6 414.2 420 414.2 420 414.2 420 298.9 419.5 300 325.7 300 325.7 389.1 296.1" data-lot="11" data-lot-id="11" data-acres="0.9194"/>
    <polygon id="lot-12" class="lot available" points="489.6 267.2 489.6 267.2 506.9 263.9 506.3 420.4 414.2 420 414.2 420 414.9 302.6 414.9 302.6 489.6 267.2" data-lot="12" data-lot-id="12" data-acres="0.9183"/>
    <polygon id="lot-13" class="lot available" points="591.8 278.2 591.8 278.2 583.7 421.2 567.7 420.6 567.7 420.6 506.3 420.4 506.3 420.4 506.3 420.4 506.9 263.9 506.9 263.9 549 256.1 591.8 278.2" data-lot="13" data-lot-id="13" data-acres="0.9183"/>
    <polygon id="lot-14" class="lot available" points="591.8 278.2 591.8 278.2 629.6 226.9 687.5 250.4 640.9 430.1 640.9 430.1 627.9 427 612.3 424.2 598.3 422.4 583.7 421.2 591.8 278.2" data-lot="14" data-lot-id="14" data-acres="1.0056"/>
    <polygon id="lot-15" class="lot reserved" points="687.5 250.4 687.5 250.4 772.2 302.1 698.4 451.6 696.4 450.6 694.7 449.8 693.4 449.1 692.6 448.7 686.1 445.7 675.5 441.4 663.4 436.9 651 432.9 640.9 430.1 687.5 250.4" data-lot="15" data-lot-id="15" data-acres="0.9935"/>
    <polygon id="lot-16" class="lot available" points="772.2 302.1 772.2 302.1 772.2 302.1 819.9 336.1 845.6 368.8 762.2 491.6 762.2 491.6 733.5 471.9 733.5 471.9 717.1 461.6 704.1 454.5 703.5 454.1 698.4 451.6 772.2 302.1" data-lot="16" data-lot-id="16" data-acres="0.9935"/>
    <polygon id="lot-17" class="lot available" points="845.6 368.8 874.8 405.8 894.2 462.3 894.2 462.3 854 554 762.2 491.6 762.2 491.6 845.6 368.8" data-lot="17" data-lot-id="17" data-acres="0.9218"/>
    <polygon id="lot-18" class="lot available" points="854 554 854 554 854 554 854 554 894.2 462.3 894.2 462.3 940.9 355.8 1023.9 373.2 946.7 564.8 929.4 605.2 929.4 605.2 929.4 605.2 854 554" data-lot="18" data-lot-id="18" data-acres="1.4563"/>
    <polygon id="lot-b" class="lot reserved" points="1105.4 171.1 870.6 167.4 815.3 238.6 990 232.6 1073.5 249.1 1105.4 171.1" data-lot="b" data-lot-id="b" data-acres="1.2244"/>
    <polygon id="lot-a" class="lot reserved" points="1073.5 249.1 990 232.6 815.3 238.6 874.2 300.3 959.5 311 1041.8 328.4 1073.5 249.1" data-lot="a" data-lot-id="a" data-acres="1.1649"/>
  </g>
  <g id="easement-overlay" style="display: none;">
    <!-- V-ESMT-POWR: power easements -->
    <path class="esmt esmt-open" d="M 856.3 548.7 L 888.2 570.3"/>
    <path class="esmt esmt-open" d="M 830.7 538.1 L 835.4 531.1 L 865.8 551.7 L 861.1 558.7"/>
    <path class="esmt esmt-open" d="M 885 575 L 893 563.3 L 930.9 566.2 L 942.6 537.4 L 955.7 542.7"/>
    <!-- V-ESMT-UTIL: utility easements along road -->
    <path class="esmt esmt-open" d="M 885.6 690.9 L 872.9 683.6 L 902.9 628.1 L 854.7 595.4"/>
    <path class="esmt esmt-open" d="M 781.6 824.3 L 807.1 791.5 L 910.1 626.2"/>
    <!-- V-ESMT-NGAS: natural gas easement -->
    <path class="esmt esmt-open" d="M 922.3 600.3 L 938.9 561.7 L 1033.4 326.9"/>
    <!-- V-ESMT-STRM-1: storm drainage easement (closed polygon) -->
    <path class="esmt esmt-closed" d="M 703.5 454.1 L 765.8 327.8 L 780.9 327.6 L 831.1 360.6 L 853 363.5 L 888.7 359 L 895.8 329.5 L 836.4 262.5 L 818 261.8 L 801.6 274.5 L 784.5 274.6 L 780.6 280.4 L 780.1 289.4 L 758.9 302.2 L 753.2 316.8 L 754.6 324.8 L 693.4 449.1 Z"/>
    <!-- V-ESMT-ACCESS: access easement -->
    <path class="esmt esmt-open" d="M 126.6 424.6 L 239.8 436.3"/>
    <path class="esmt esmt-open" d="M 127.2 413.3 L 241 425.1"/>
  </g>

  <image id="plat-overlay" class="st10" width="4800" height="3600" transform="translate(555,513) rotate(0) scale(1,1) translate(-555,-513) matrix(0.282,0,0,0.282,-59.32199999999996,71.05000000000003)" xlink:href="plat_full.png" style="display: none; opacity: 0;"/>
  <text id="label-open-space" class="area-label" transform="translate(250 215)"><tspan x="0" y="0">OPEN SPACE</tspan></text>
  <text id="label-rec-area" class="area-label" transform="translate(600 690)"><tspan x="0" y="0">RECREATION AREA</tspan></text>
  <text id="label-lawrence-road" class="road-label">
        <textPath href="#lawrence-road-path" startOffset="35%">Lawrence Road</textPath>
      </text>
  <text id="label-tennyson-court" class="road-label">
        <textPath href="#tennyson-court-path" startOffset="15%">Tennyson Court</textPath>
      </text>
  <!-- Stroke-only redraw of open-space boundary, above road/lot fills -->
  <g id="builder-dots" class=""><polygon points="713 700 713 700 703.9 678 703.9 678 793.1 546.8 857.9 590.7 857.9 590.7 857.9 590.7 754.1 743.5 713 700" fill="none" stroke="#4a80c4" stroke-width="10" clip-path="url(#builder-clip-2)" class="builder-dot" data-lot="2"/><polygon points="703.9 678 693.8 653.6 693.8 653.6 634.6 647.1 620.4 648.9 722.4 498.8 722.4 498.8 793.1 546.7 793.1 546.7 793.1 546.8 703.9 678" fill="none" stroke="#c06090" stroke-width="10" clip-path="url(#builder-clip-3)" class="builder-dot" data-lot="3"/><polygon points="722.4 498.8 722.4 498.8 620.4 648.9 620.4 648.9 582.5 653.6 632.4 457.1 632.4 457.1 648.7 461.6 668.4 468.9 684.4 476 698.1 483.2 715.8 494 715.8 494 722.4 498.8" fill="none" stroke="#40a080" stroke-width="10" clip-path="url(#builder-clip-4)" class="builder-dot" data-lot="4"/><polygon points="544.5 654.6 477.7 624.6 478.4 448.5 545.3 448.7 545.3 448.8 545.3 448.8 544.5 654.6" fill="none" stroke="#4a80c4" stroke-width="10" clip-path="url(#builder-clip-6)" class="builder-dot" data-lot="6"/><polygon points="477.7 624.6 477.7 624.6 445.4 590.1 445.4 590.1 390.2 585.4 390.7 448.2 478.4 448.5 478.4 448.5 477.7 624.6" fill="none" stroke="#c49040" stroke-width="10" clip-path="url(#builder-clip-7)" class="builder-dot" data-lot="7"/><polygon points="274.8 461.1 295.6 551.6 248.2 539.6 248.2 539.6 166.4 505.6 144.5 479.8 126.5 426.9 126.8 419 126.9 419 240.2 430.6 240.4 439 243.1 446.5 247 452.2 251.3 456.2 255.8 459 261.1 460.8 267 461.7 274.8 461.1" fill="none" stroke="#40a080" stroke-width="10" clip-path="url(#builder-clip-9)" class="builder-dot" data-lot="9"/><polygon points="286.7 454.9 289 452.5 292.5 449.8 295.4 448.5 299.8 447.7 390.7 448.2 390.7 448.2 390.7 448.2 390.2 585.4 353.2 582.2 353.2 582.2 320.4 557.9 320.4 557.9 295.6 551.6 295.6 551.6 274.8 461.1 282.7 458 286.7 454.9" fill="none" stroke="#c06090" stroke-width="10" clip-path="url(#builder-clip-8)" class="builder-dot" data-lot="8"/><polygon points="228.2 328.5 279.1 332.7 300 325.7 298.9 419.5 298.5 419.5 295.1 418.7 292.1 417.2 289.3 414.6 285.1 410.9 280.4 408.1 275.4 406.3 271.4 405.5 267.3 405.3 263.3 405.7 259.3 406.7 255.5 408.2 252 410.2 248.8 412.8 246 415.8 243.7 419.1 241.9 422.8 241 425.1 240.2 430.6 240.2 430.6 240.2 430.6 126.9 419 126.9 419 128.5 386.4 149.4 361.9 202.6 351.2 228.2 328.5" fill="none" stroke="#c49040" stroke-width="10" clip-path="url(#builder-clip-10)" class="builder-dot" data-lot="10"/><polygon points="389.1 296.1 414.9 302.6 414.9 302.6 414.2 420 414.2 420 414.2 420 298.9 419.5 300 325.7 300 325.7 389.1 296.1" fill="none" stroke="#9060b8" stroke-width="10" clip-path="url(#builder-clip-11)" class="builder-dot" data-lot="11"/><polygon points="489.6 267.2 489.6 267.2 506.9 263.9 506.3 420.4 414.2 420 414.2 420 414.9 302.6 414.9 302.6 489.6 267.2" fill="none" stroke="#c49040" stroke-width="10" clip-path="url(#builder-clip-12)" class="builder-dot" data-lot="12"/><polygon points="591.8 278.2 591.8 278.2 583.7 421.2 567.7 420.6 567.7 420.6 506.3 420.4 506.3 420.4 506.3 420.4 506.9 263.9 506.9 263.9 549 256.1 591.8 278.2" fill="none" stroke="#4a80c4" stroke-width="10" clip-path="url(#builder-clip-13)" class="builder-dot" data-lot="13"/><polygon points="591.8 278.2 591.8 278.2 629.6 226.9 687.5 250.4 640.9 430.1 640.9 430.1 627.9 427 612.3 424.2 598.3 422.4 583.7 421.2 591.8 278.2" fill="none" stroke="#9060b8" stroke-width="10" clip-path="url(#builder-clip-14)" class="builder-dot" data-lot="14"/><polygon points="687.5 250.4 687.5 250.4 772.2 302.1 698.4 451.6 696.4 450.6 694.7 449.8 693.4 449.1 692.6 448.7 686.1 445.7 675.5 441.4 663.4 436.9 651 432.9 640.9 430.1 687.5 250.4" fill="none" stroke="#40a080" stroke-width="10" clip-path="url(#builder-clip-15)" class="builder-dot" data-lot="15"/><polygon points="772.2 302.1 772.2 302.1 772.2 302.1 819.9 336.1 845.6 368.8 762.2 491.6 762.2 491.6 733.5 471.9 733.5 471.9 717.1 461.6 704.1 454.5 703.5 454.1 698.4 451.6 772.2 302.1" fill="none" stroke="#c06090" stroke-width="10" clip-path="url(#builder-clip-16)" class="builder-dot" data-lot="16"/><polygon points="845.6 368.8 874.8 405.8 894.2 462.3 894.2 462.3 854 554 762.2 491.6 762.2 491.6 845.6 368.8" fill="none" stroke="#9060b8" stroke-width="10" clip-path="url(#builder-clip-17)" class="builder-dot" data-lot="17"/></g><g class="labels" style=""><g class="lot-label-group" data-lot-id="1" transform="translate(833.4250740444589,700.7696237334821)"><text class="lot-label-num" x="0" y="-8">Lot 1</text><text class="lot-label-acres" x="0" y="8">1.1586 ac</text></g><g class="lot-label-group" data-lot-id="2" transform="translate(776.9629713449989,641.6897374929051)"><text class="lot-label-num" x="0" y="-8">Lot 2</text><text class="lot-label-acres" x="0" y="8">0.9848 ac</text></g><g class="lot-label-group" data-lot-id="3" transform="translate(711.8821010105185,587.9156597554937)"><text class="lot-label-num" x="0" y="-8">Lot 3</text><text class="lot-label-acres" x="0" y="8">0.9757 ac</text></g><g class="lot-label-group" data-lot-id="4" transform="translate(645.7393633476871,548.064186171308)"><text class="lot-label-num" x="0" y="-8">Lot 4</text><text class="lot-label-acres" x="0" y="8">0.9192 ac</text></g><g class="lot-label-group" data-lot-id="5" transform="translate(577.8705006268345,538.9337279418081)"><text class="lot-label-num" x="0" y="-8">Lot 5</text><text class="lot-label-acres" x="0" y="8">0.9239 ac</text></g><g class="lot-label-group" data-lot-id="6" transform="translate(512.3441410860885,544.3002645207663)"><text class="lot-label-num" x="0" y="-8">Lot 6</text><text class="lot-label-acres" x="0" y="8">0.919 ac</text></g><g class="lot-label-group" data-lot-id="7" transform="translate(435.9472474603221,522.1041102252443)"><text class="lot-label-num" x="0" y="-8">Lot 7</text><text class="lot-label-acres" x="0" y="8">0.9251 ac</text></g><g class="lot-label-group" data-lot-id="8" transform="translate(340.91332315974597,508.35154205913545)"><text class="lot-label-num" x="0" y="-8">Lot 8</text><text class="lot-label-acres" x="0" y="8">0.9198 ac</text></g><g class="lot-label-group" data-lot-id="9" transform="translate(213.0477437987605,479.46721784782966)"><text class="lot-label-num" x="0" y="-8">Lot 9</text><text class="lot-label-acres" x="0" y="8">0.927 ac</text></g><g class="lot-label-group" data-lot-id="10" transform="translate(221.08400358572467,381.372889319446)"><text class="lot-label-num" x="0" y="-8">Lot 10</text><text class="lot-label-acres" x="0" y="8">0.9255 ac</text></g><g class="lot-label-group" data-lot-id="11" transform="translate(359.6122883424022,363.71228451899805)"><text class="lot-label-num" x="0" y="-8">Lot 11</text><text class="lot-label-acres" x="0" y="8">0.9194 ac</text></g><g class="lot-label-group" data-lot-id="12" transform="translate(462.8784658806823,350.2530286315528)"><text class="lot-label-num" x="0" y="-8">Lot 12</text><text class="lot-label-acres" x="0" y="8">0.9183 ac</text></g><g class="lot-label-group" data-lot-id="13" transform="translate(546.7541755466253,340.679767092488)"><text class="lot-label-num" x="0" y="-8">Lot 13</text><text class="lot-label-acres" x="0" y="8">0.9183 ac</text></g><g class="lot-label-group" data-lot-id="14" transform="translate(629.4177834735397,326.6407416139902)"><text class="lot-label-num" x="0" y="-8">Lot 14</text><text class="lot-label-acres" x="0" y="8">1.0056 ac</text></g><g class="lot-label-group" data-lot-id="15" transform="translate(701.6763875628651,351.6740188416408)"><text class="lot-label-num" x="0" y="-8">Lot 15</text><text class="lot-label-acres" x="0" y="8">0.9935 ac</text></g><g class="lot-label-group" data-lot-id="16" transform="translate(771.9504700498571,398.280091550861)"><text class="lot-label-num" x="0" y="-8">Lot 16</text><text class="lot-label-acres" x="0" y="8">0.9935 ac</text></g><g class="lot-label-group" data-lot-id="17" transform="translate(836.5590871035492,466.1834603731108)"><text class="lot-label-num" x="0" y="-8">Lot 17</text><text class="lot-label-acres" x="0" y="8">0.9218 ac</text></g><g class="lot-label-group" data-lot-id="18" transform="translate(937.615586168858,473.9360455494979)"><text class="lot-label-num" x="0" y="-8">Lot 18</text><text class="lot-label-acres" x="0" y="8">1.4563 ac</text></g><g class="lot-label-group" data-lot-id="a" transform="translate(957.5208375937449,272.5080640856734)"><text class="lot-label-num" x="0" y="-8">Lot A</text><text class="lot-label-acres" x="0" y="8">1.1649 ac</text></g><g class="lot-label-group" data-lot-id="b" transform="translate(968.2442056461915,204.01156174763045)"><text class="lot-label-num" x="0" y="-8">Lot B</text><text class="lot-label-acres" x="0" y="8">1.2244 ac</text></g></g><g id="topo-overlay" style="opacity: 0; color: rgb(0, 0, 0);" class="st6" transform="translate(555,513) rotate(0) scale(1,1) translate(-555,-513) matrix(1,0,0,1,0,0)">
    <use href="#topo-line-data" class=""/>
  </g>
  
  

  <g id="vertex-anchor-layer"/></svg>